STARTFONT 2.1
FONT -HP-Batang-Bold-R-Normal--64-640-75-75-C-320-KSC5636.1989-0
SIZE 64 75 75
FONTBOUNDINGBOX 32 64 0 -6

STARTPROPERTIES 23
FONTNAME_REGISTRY ""
FOUNDRY "HP"
FAMILY_NAME "Batang"
WEIGHT_NAME "Bold"
SLANT "R"
SETWIDTH_NAME "Normal"
ADD_STYLE_NAME ""
PIXEL_SIZE 64
POINT_SIZE 640
RESOLUTION_X 75
RESOLUTION_Y 75
SPACING "C"
AVERAGE_WIDTH 320
CHARSET_REGISTRY "KSC5636.1989"
CHARSET_ENCODING "0"
COPYRIGHT "Copyright (c) 1994 Samsung Hewlett-Packard Company."
WEIGHT 200
X_HEIGHT 58
QUAD_WIDTH 32
_HP_ASXVERSION "@(#) ASX 3.00 $Revision: 13.9 $ batB64a"
DEFAULT_CHAR 32
FONT_DESCENT 6
FONT_ASCENT 58
ENDPROPERTIES

CHARS 256

STARTCHAR CODE000
ENCODING 0
SWIDTH 451 0
DWIDTH 32 0
BBX 32 64 0 -6
BITMAP
00000000
00000000
00000000
00000000
00000000
00000000
00000000
00000000
00000000
00000000
00000000
00000000
00000000
00000000
00000000
00000000
00000000
00000000
00000000
00000000
00000000
00000000
00000000
00000000
00000000
00000000
00000000
00000000
00000000
00000000
00000000
00000000
00000000
00000000
00000000
00000000
00000000
00000000
00000000
00000000
00000000
00000000
00000000
00000000
00000000
00000000
00000000
00000000
00000000
00000000
00000000
00000000
00000000
00000000
00000000
00000000
00000000
00000000
00000000
00000000
00000000
00000000
00000000
00000000
ENDCHAR

STARTCHAR CODE001
ENCODING 1
SWIDTH 451 0
DWIDTH 32 0
BBX 32 64 0 -6
BITMAP
00000000
00000000
00000000
00000000
001FF000
007FFC00
01FFFF00
03F83F80
07E00FC0
078003E0
0F0001F0
1E0000F8
1E000078
3C00003C
3C00003C
3800001C
78F01E1E
71F83F0E
71F83F0E
F1F83F0F
F1F83F0F
E1F83F07
E0F01E07
E0000007
E0000007
E0000007
E0000007
E0000007
E0000007
E0000007
E0000007
E1800187
E38001C7
F3C003CF
F1C0038F
71E0078E
70F00F0E
78FC3F1E
387FFE1C
383FFC1C
3C1FF83C
1C07E038
1E000078
0E0000F0
0F0001F0
078003E0
07E007C0
03F81F80
01FFFF00
007FFE00
001FF800
00000000
00000000
00000000
00000000
00000000
00000000
00000000
00000000
00000000
00000000
00000000
00000000
00000000
ENDCHAR

STARTCHAR CODE002
ENCODING 2
SWIDTH 451 0
DWIDTH 32 0
BBX 32 64 0 -6
BITMAP
00000000
00000000
00000000
00000000
001FF000
007FFC00
01FFFF00
03FFFF80
07FFFFC0
0FFFFFE0
0FFFFFF0
1FFFFFF0
1FFFFFF8
3FFFFFF8
3FFFFFFC
3FFFFFFC
7FFFFFFE
7F3FF9FE
7E1FF0FE
7E1FF0FE
FE1FF0FF
FF3FF9FF
FFFFFFFF
FFFFFFFF
FFFFFFFF
FFFFFFFF
FFFFFFFF
FFFFFFFF
FFFFFFFF
FFFFFFFF
FFFFFFFF
FFFFFFFF
FFFFFFFF
FFFFFFFF
FEFFFF7F
7FFFFFFE
7F7FFEFE
7FBFFDFE
7FDFFBFE
3FE7E7FC
3FF00FFC
3FFC3FFC
1FFFFFF8
1FFFFFF8
0FFFFFF0
0FFFFFF0
07FFFFE0
03FFFFC0
01FFFF80
007FFE00
001FF800
00000000
00000000
00000000
00000000
00000000
00000000
00000000
00000000
00000000
00000000
00000000
00000000
00000000
ENDCHAR

STARTCHAR CODE003
ENCODING 3
SWIDTH 451 0
DWIDTH 32 0
BBX 32 64 0 -6
BITMAP
00000000
00000000
00000000
03E007C0
0FF81FF0
1FFC3FF8
3FFC3FF8
3FFE7FFC
7FFE7FFC
7FFFFFFE
7FFFFFFE
7FFFFFFE
FFFFFFFF
FFFFFFFF
FFFFFFFF
FFFFFFFF
FFFFFFFF
FFFFFFFF
FFFFFFFF
FFFFFFFF
FFFFFFFF
FFFFFFFF
FFFFFFFF
FFFFFFFF
7FFFFFFE
7FFFFFFE
7FFFFFFE
7FFFFFFE
3FFFFFFC
3FFFFFFC
3FFFFFFC
3FFFFFFC
1FFFFFF8
1FFFFFF8
1FFFFFF8
0FFFFFF0
0FFFFFF0
07FFFFE0
07FFFFE0
03FFFFC0
03FFFFC0
01FFFF80
01FFFF80
00FFFF00
00FFFF00
007FFE00
007FFE00
003FFC00
003FFC00
001FF800
001FF800
000FF000
000FF000
0007E000
0007E000
0003C000
00018000
00018000
00000000
00000000
00000000
00000000
00000000
00000000
ENDCHAR

STARTCHAR CODE004
ENCODING 4
SWIDTH 451 0
DWIDTH 32 0
BBX 32 64 0 -6
BITMAP
00000000
00018000
00018000
0003C000
0003C000
0007E000
0007E000
000FF000
000FF000
001FF800
001FF800
003FFC00
003FFC00
007FFE00
007FFE00
00FFFF00
00FFFF00
01FFFF80
01FFFF80
03FFFFC0
03FFFFC0
07FFFFE0
07FFFFE0
0FFFFFF0
0FFFFFF0
1FFFFFF8
1FFFFFF8
3FFFFFFC
3FFFFFFC
7FFFFFFE
FFFFFFFF
FFFFFFFF
7FFFFFFE
3FFFFFFC
3FFFFFFC
1FFFFFF8
1FFFFFF8
0FFFFFF0
0FFFFFF0
07FFFFE0
07FFFFE0
03FFFFC0
03FFFFC0
01FFFF80
01FFFF80
00FFFF00
00FFFF00
007FFE00
007FFE00
003FFC00
003FFC00
001FF800
001FF800
000FF000
000FF000
0007E000
0007E000
0003C000
0003C000
00018000
00018000
00000000
00000000
00000000
ENDCHAR

STARTCHAR CODE005
ENCODING 5
SWIDTH 451 0
DWIDTH 32 0
BBX 32 64 0 -6
BITMAP
00000000
00000000
00000000
00000000
0007E000
001FF800
003FFC00
003FFC00
007FFE00
007FFE00
007FFE00
00FFFF00
00FFFF00
00FFFF00
00FFFF00
00FFFF00
00FFFF00
00FFFF00
00FFFF00
007FFE00
007FFE00
007FFE00
007FFE00
07BFFDE0
1FFFFFF8
3FFFFFFC
3FFFFFFC
7FFFFFFE
7FFFFFFE
7FFFFFFE
FFFFFFFF
FFFFFFFF
FFFFFFFF
FFFFFFFF
FFFFFFFF
FFFFFFFF
FFFFFFFF
FFFFFFFF
FFFFFFFF
FFFFFFFF
FFFFFFFF
7FFFFFFE
7FFFFFFE
7FFBDFFE
3FFBDFFC
3FF3CFFC
1FE3C7F8
0783C1E0
0003C000
0007E000
0007E000
0007E000
0007E000
0007E000
000FF000
000FF000
000FF000
000FF000
00000000
00000000
00000000
00000000
00000000
00000000
ENDCHAR

STARTCHAR CODE006
ENCODING 6
SWIDTH 451 0
DWIDTH 32 0
BBX 32 64 0 -6
BITMAP
00000000
00018000
00018000
0003C000
0003C000
0007E000
0007E000
000FF000
001FF800
001FF800
003FFC00
007FFC00
007FFE00
00FFFF00
00FFFF00
01FFFF80
01FFFF80
03FFFFC0
03FFFFC0
07FFFFE0
07FFFFE0
0FFFFFF0
0FFFFFF0
1FFFFFF8
1FFFFFF8
1FFFFFF8
3FFFFFFC
3FFFFFFC
3FFFFFFC
7FFFFFFE
7FFFFFFE
7FFFFFFE
FFFFFFFF
FFFFFFFF
FFFFFFFF
FFFFFFFF
FFFFFFFF
FFFFFFFF
FFFFFFFF
FFFFFFFF
FFFFFFFF
FFFFFFFF
FFFFFFFF
7FFBDFFE
7FFBDFFE
3FF3CFFC
1FF7EFF8
07C7E3E0
0007E000
000FF000
000FF000
000FF000
001FF800
001FF800
001FF800
003FFC00
003FFC00
003FFC00
00000000
00000000
00000000
00000000
00000000
00000000
ENDCHAR

STARTCHAR CODE007
ENCODING 7
SWIDTH 451 0
DWIDTH 32 0
BBX 32 64 0 -6
BITMAP
00000000
00000000
00000000
00000000
00000000
00000000
00000000
00000000
00000000
00000000
00000000
00000000
00000000
00000000
00000000
00000000
00000000
00000000
001FF800
007FFE00
01FFFF80
03FFFFC0
07FFFFE0
07FFFFE0
0FFFFFF0
0FFFFFF0
0FFFFFF0
1FFFFFF8
1FFFFFF8
1FFFFFF8
1FFFFFF8
1FFFFFF8
1FFFFFF8
1FFFFFF8
1FFFFFF8
0FFFFFF0
0FFFFFF0
0FFFFFF0
07FFFFE0
07FFFFE0
03FFFFC0
01FFFF80
007FFE00
001FF800
00000000
00000000
00000000
00000000
00000000
00000000
00000000
00000000
00000000
00000000
00000000
00000000
00000000
00000000
00000000
00000000
00000000
00000000
00000000
00000000
ENDCHAR

STARTCHAR CODE008
ENCODING 8
SWIDTH 451 0
DWIDTH 32 0
BBX 32 64 0 -6
BITMAP
00000000
00000000
00000000
00000000
00000000
00000000
00000000
FFFFFFFF
FFFFFFFF
FFFFFFFF
FFFFFFFF
FFFFFFFF
FFFFFFFF
FFFFFFFF
FFFFFFFF
FFFFFFFF
FFFFFFFF
FFFFFFFF
FFFC7FFF
FFF01FFF
FFE00FFF
FFC007FF
FF8003FF
FF8003FF
FF0001FF
FF0001FF
FF0001FF
FE0000FF
FE0000FF
FE0000FF
FE0000FF
FE0000FF
FE0000FF
FE0000FF
FE0000FF
FF0001FF
FF0001FF
FF0001FF
FF8003FF
FF8003FF
FFC007FF
FFE00FFF
FFF01FFF
FFFC7FFF
FFFFFFFF
FFFFFFFF
FFFFFFFF
FFFFFFFF
FFFFFFFF
FFFFFFFF
FFFFFFFF
FFFFFFFF
FFFFFFFF
FFFFFFFF
FFFFFFFF
00000000
00000000
00000000
00000000
00000000
00000000
00000000
00000000
00000000
ENDCHAR

STARTCHAR CODE009
ENCODING 9
SWIDTH 451 0
DWIDTH 32 0
BBX 32 64 0 -6
BITMAP
00000000
00000000
00000000
00000000
00000000
00000000
00000000
00000000
00000000
00000000
00000000
00000000
00000000
00000000
00000000
00000000
00000000
00000000
000FE000
007FFC00
01FFFF00
03FFFF80
07F01FC0
0FC007E0
0F8003E0
1F0001F0
1E0000F0
1E0000F0
3E0000F8
3C000078
3C000078
3C000078
3C000078
3E0000F8
1E0000F0
1E0000F0
1F0001F0
0F8003E0
0FC007E0
07F01FC0
03FFFF80
01FFFF00
007FFC00
000FE000
00000000
00000000
00000000
00000000
00000000
00000000
00000000
00000000
00000000
00000000
00000000
00000000
00000000
00000000
00000000
00000000
00000000
00000000
00000000
00000000
ENDCHAR

STARTCHAR CODE010
ENCODING 10
SWIDTH 451 0
DWIDTH 32 0
BBX 32 64 0 -6
BITMAP
00000000
00000000
00000000
00000000
00000000
00000000
FFFFFFFF
FFFFFFFF
FFFFFFFF
FFFFFFFF
FFFFFFFF
FFFFFFFF
FFFFFFFF
FFFFFFFF
FFFFFFFF
FFFFFFFF
FFFFFFFF
FFF81FFF
FFE7E7FF
FFDFFBFF
FFBFFDFF
FFBFFDFF
FF7FFEFF
FF7FFEFF
FF7FFEFF
FF7FFEFF
FEFFFF7F
FEFFFF7F
FEFFFF7F
FEFFFF7F
FEFFFF7F
FEFFFF7F
FEFFFF7F
FEFFFF7F
FEFFFF7F
FF7FFEFF
FF7FFEFF
FF7FFEFF
FF7FFEFF
FFBFFDFF
FFBFFDFF
FFDFFBFF
FFE7E7FF
FFF81FFF
FFFFFFFF
FFFFFFFF
FFFFFFFF
FFFFFFFF
FFFFFFFF
FFFFFFFF
FFFFFFFF
FFFFFFFF
FFFFFFFF
FFFFFFFF
FFFFFFFF
FFFFFFFF
00000000
00000000
00000000
00000000
00000000
00000000
00000000
00000000
ENDCHAR

STARTCHAR CODE011
ENCODING 11
SWIDTH 451 0
DWIDTH 32 0
BBX 32 64 0 -6
BITMAP
00000000
00000000
00000000
00000000
00000000
00000000
00000000
00000003
0000000F
0000007F
000003FF
00001FFF
0000FFFF
0000FFFF
0000007F
0000007F
000000FF
000001FF
000001FF
000003E7
000007C7
000007C7
00000F83
00001F03
00001E00
00003E00
00007C00
00007800
0000F800
01F9F000
07FFF000
1FFFE000
3FBFE000
3E07E000
7801E000
7801F000
7800F000
F000F000
F000F000
F0007000
E0007000
E000F000
F000F000
F000F000
7000F000
7801E000
7801E000
3E07C000
3FBFC000
1FFF8000
0FFF0000
03FC0000
00000000
00000000
00000000
00000000
00000000
00000000
00000000
00000000
00000000
00000000
00000000
00000000
ENDCHAR

STARTCHAR CODE012
ENCODING 12
SWIDTH 451 0
DWIDTH 32 0
BBX 32 64 0 -6
BITMAP
00000000
00000000
00000000
000FF000
003FFC00
00FFFF00
01FFFF80
03F81FC0
03E007C0
07C003E0
07C001E0
0F8001F0
0F8000F0
0F0000F0
0F0000F0
0F0000F0
0F8000F0
078001F0
07C001E0
07C003E0
03F00FC0
03FC3FC0
01FFFF80
00FFFF00
003FFC00
000FE000
0003C000
0003C000
0003C000
0003C000
0003C000
0003C000
0003C000
FFFFFFFF
FFFFFFFF
FFFFFFFF
FFFFFFFF
0003C000
0003C000
0003C000
0003C000
0003C000
0003C000
0003C000
0003C000
0003C000
0003C000
0003C000
0003C000
0003C000
0003C000
0003C000
0003C000
0003C000
0003C000
0003C000
0003C000
0003C000
0003C000
00000000
00000000
00000000
00000000
00000000
ENDCHAR

STARTCHAR CODE013
ENCODING 13
SWIDTH 451 0
DWIDTH 32 0
BBX 32 64 0 -6
BITMAP
00000000
00000000
00000000
00000000
001E0000
001E0000
001E0000
001F0000
001F8000
001FC000
001FE000
001FF000
001FF800
001FFC00
001FFF00
001FFF80
001FFFC0
001FFFE0
001EFFF0
001E3FF8
001E1FFC
001E07FC
001E03FE
001E01FE
001E00FF
001E007F
001E003F
001E003F
001E001F
001E001F
001E001F
001E001F
001E001F
001E001E
001E003E
001E003E
001E007C
001E007C
001E00F8
001E01F0
001E03E0
001E03C0
001E0780
001E0F00
001E0E00
001E0000
01FE0000
07FE0000
1FFE0000
3FFE0000
7FFC0000
7FFC0000
FFF80000
FFF80000
FFF00000
FFE00000
FF800000
7E000000
00000000
00000000
00000000
00000000
00000000
00000000
ENDCHAR

STARTCHAR CODE014
ENCODING 14
SWIDTH 451 0
DWIDTH 32 0
BBX 32 64 0 -6
BITMAP
00000000
00000000
00000000
00000000
0000000F
0000007F
000003FF
00001FFF
0000FFFF
000FFFFF
00FFFFFF
00FFFFFF
00FFFFEF
00FFFF0F
00FFF80F
00FFC07F
00FE03FF
00F01FFF
00F0FFFF
00F7FFFF
00FFFFFF
00FFFFFF
00FFFFEF
00FFFF0F
00FFF80F
00FFC00F
00FE000F
00F0000F
00F0000F
00F0000F
00F0000F
00F0000F
00F0000F
00F0000F
00F0000F
00F0000F
00F0000F
00F0001F
00F0007F
00F000FF
00F001FF
00F003FF
00F003FF
00F007FE
00F007FE
03F007FE
0FF007FC
1FF007FC
3FF007F8
7FE007F0
7FE003C0
FFC00000
FFC00000
FF800000
FF800000
FF000000
FE000000
78000000
00000000
00000000
00000000
00000000
00000000
00000000
ENDCHAR

STARTCHAR CODE015
ENCODING 15
SWIDTH 451 0
DWIDTH 32 0
BBX 32 64 0 -6
BITMAP
00000000
00000000
0003C000
0003C000
0003C000
0003C000
0003C000
0003C000
0003C000
F003C00F
F803C01F
FC03C03F
7E0FF07E
3F3FFCFC
1FFFFFF8
0FFE7FF0
07F81FE0
03F00FC0
03E007C0
03E007C0
03C003C0
07C003E0
07C003E0
078001E0
078001E0
078001E0
0F8001F0
0F0000F0
0F0000F0
FF0000FF
FF0000FF
FF0000FF
FF0000FF
0F0000F0
0F0000F0
0F8000F0
078001E0
078001E0
078001E0
07C001E0
07C003E0
03C003C0
03E003C0
03E007C0
01F00F80
01F81F80
03FE7FC0
07FFFFE0
0FFFFFF0
1F8FF1F8
3F03C0FC
7E03C07E
FC03C03F
F803C01F
F003C00F
0003C000
0003C000
0003C000
0003C000
0003C000
00000000
00000000
00000000
00000000
ENDCHAR

STARTCHAR CODE016
ENCODING 16
SWIDTH 451 0
DWIDTH 32 0
BBX 32 64 0 -6
BITMAP
00000000
00000000
00000000
00000000
00000000
70000000
78000000
7C000000
7E000000
7F000000
7F800000
7FE00000
7FF00000
7FF80000
7FFC0000
7FFE0000
7FFF8000
7FFFC000
7FFFE000
7FFFF000
7FFFF800
7FFFFE00
7FFFFF00
7FFFFF80
7FFFFFC0
7FFFFFE0
7FFFFFF8
7FFFFFFC
7FFFFFFE
7FFFFFFF
7FFFFFFF
7FFFFFFF
7FFFFFFF
7FFFFFFE
7FFFFFFC
7FFFFFF8
7FFFFFE0
7FFFFFC0
7FFFFF80
7FFFFF00
7FFFFE00
7FFFF800
7FFFF000
7FFFE000
7FFFC000
7FFF8000
7FFE0000
7FFC0000
7FF80000
7FF00000
7FE00000
7F800000
7F000000
7E000000
7C000000
78000000
70000000
00000000
00000000
00000000
00000000
00000000
00000000
00000000
ENDCHAR

STARTCHAR CODE017
ENCODING 17
SWIDTH 451 0
DWIDTH 32 0
BBX 32 64 0 -6
BITMAP
00000000
00000000
00000000
00000000
00000000
00000007
0000000F
0000001F
0000003F
0000007F
000000FF
000003FF
000007FF
00000FFF
00001FFF
00003FFF
0000FFFF
0001FFFF
0003FFFF
0007FFFF
000FFFFF
003FFFFF
007FFFFF
00FFFFFF
01FFFFFF
03FFFFFF
0FFFFFFF
1FFFFFFF
3FFFFFFF
7FFFFFFF
FFFFFFFF
FFFFFFFF
7FFFFFFF
3FFFFFFF
1FFFFFFF
0FFFFFFF
03FFFFFF
01FFFFFF
00FFFFFF
007FFFFF
003FFFFF
000FFFFF
0007FFFF
0003FFFF
0001FFFF
0000FFFF
00003FFF
00001FFF
00000FFF
000007FF
000003FF
000000FF
0000007F
0000003F
0000001F
0000000F
00000007
00000000
00000000
00000000
00000000
00000000
00000000
00000000
ENDCHAR

STARTCHAR CODE018
ENCODING 18
SWIDTH 451 0
DWIDTH 32 0
BBX 32 64 0 -6
BITMAP
00000000
00000000
00018000
0003C000
0007E000
000FF000
001FF800
003FFC00
007FFE00
00FFFF00
01FBDF80
03E3C7C0
0383C1C0
0003C000
0003C000
0003C000
0003C000
0003C000
0003C000
0003C000
0003C000
0003C000
0003C000
0003C000
0003C000
0003C000
0003C000
0003C000
0003C000
0003C000
0003C000
0003C000
0003C000
0003C000
0003C000
0003C000
0003C000
0003C000
0003C000
0003C000
0003C000
0003C000
0003C000
0003C000
0003C000
0003C000
0003C000
0003C000
0003C000
0383C1C0
03E3C7C0
01FBDF80
00FFFF00
007FFE00
003FFC00
001FF800
000FF000
0007E000
0003C000
00018000
00000000
00000000
00000000
00000000
ENDCHAR

STARTCHAR CODE019
ENCODING 19
SWIDTH 451 0
DWIDTH 32 0
BBX 32 64 0 -6
BITMAP
00000000
00000000
00000000
00000000
00000000
00000000
00700E00
00F81F00
00F81F00
00F81F00
00F81F00
00F81F00
00F81F00
00F81F00
00F81F00
00F81F00
00F81F00
00F81F00
00F81F00
00F81F00
00F81F00
00F81F00
00F81F00
00F81F00
00F81F00
00F81F00
00F81F00
00F81F00
00F81F00
00F81F00
00F81F00
00F81F00
00700E00
00700E00
00700E00
00700E00
00700E00
00700E00
00700E00
00000000
00000000
00000000
00000000
00000000
00700E00
00F81F00
00F81F00
00F81F00
00F81F00
00700E00
00000000
00000000
00000000
00000000
00000000
00000000
00000000
00000000
00000000
00000000
00000000
00000000
00000000
00000000
ENDCHAR

STARTCHAR CODE020
ENCODING 20
SWIDTH 451 0
DWIDTH 32 0
BBX 32 64 0 -6
BITMAP
00000000
00000000
00000000
000FFFFE
007FFFFE
01FFFFFE
07FFFFFE
0FFFFFFE
1FF1F03E
3FC1F03E
3F01F03E
7E01F03E
7C01F03E
F801F03E
F801F03E
F001F03E
F001F03E
F001F03E
F801F03E
F801F03E
FC01F03E
7E01F03E
7F01F03E
3FC1F03E
1FF1F03E
0FFFF03E
07FFF03E
01FFF03E
007FF03E
000FF03E
0001F03E
0001F03E
0001F03E
0001F03E
0001F03E
0001F03E
0001F03E
0001F03E
0001F03E
0001F03E
0001F03E
0001F03E
0001F03E
0001F03E
0001F03E
0001F03E
0001F03E
0001F03E
0001F03E
0001F03E
0001F03E
0001F03E
0001F03E
0001F03E
0001F03E
0001F03E
0001F03E
0001F03E
0001F03E
00000000
00000000
00000000
00000000
00000000
ENDCHAR

STARTCHAR CODE021
ENCODING 21
SWIDTH 451 0
DWIDTH 32 0
BBX 32 64 0 -6
BITMAP
00000000
00000000
00000000
00000000
00000000
00000038
003FF038
00FFFE38
03FFFFB8
0FF01FF8
0FC007F8
1F8001F8
1F0000F8
3F00007C
3E00003C
3E00003C
3F00001C
3F00001C
3F8FE00C
1FFFF800
1FFFFC00
0FFFFE00
0FFC7E00
07FC1F00
03FF0F00
03FFCF80
03FFF780
03FFFF80
03FFFF80
03E7FF80
01F1FFC0
01F87FE0
00FE7FF0
007FFFF0
003FFBF8
000FF1F8
000000FC
600000FC
6000007C
7000007C
7000007C
7800007C
7C00007C
7E0000F8
7F0000F8
7FC001F8
7FE007F0
7FF81FE0
79FFFFC0
787FFF00
781FF800
78000000
00000000
00000000
00000000
00000000
00000000
00000000
00000000
00000000
00000000
00000000
00000000
00000000
ENDCHAR

STARTCHAR CODE022
ENCODING 22
SWIDTH 451 0
DWIDTH 32 0
BBX 32 64 0 -6
BITMAP
00000000
00000000
00000000
00000000
00000000
00000000
00000000
00000000
00000000
00000000
00000000
00000000
00000000
00000000
00000000
00000000
00000000
00000000
FFFFFFFF
FFFFFFFF
FFFFFFFF
FFFFFFFF
FFFFFFFF
FFFFFFFF
FFFFFFFF
FFFFFFFF
FFFFFFFF
FFFFFFFF
FFFFFFFF
FFFFFFFF
FFFFFFFF
FFFFFFFF
FFFFFFFF
FFFFFFFF
FFFFFFFF
FFFFFFFF
FFFFFFFF
FFFFFFFF
FFFFFFFF
FFFFFFFF
FFFFFFFF
FFFFFFFF
FFFFFFFF
00000000
00000000
00000000
00000000
00000000
00000000
00000000
00000000
00000000
00000000
00000000
00000000
00000000
00000000
00000000
00000000
00000000
00000000
00000000
00000000
00000000
ENDCHAR

STARTCHAR CODE023
ENCODING 23
SWIDTH 451 0
DWIDTH 32 0
BBX 32 64 0 -6
BITMAP
00000000
00000000
00018000
0003C000
0007E000
000FF000
001FF800
003FFC00
007FFE00
00FFFF00
01FBDF80
03E3C7C0
0383C1C0
0003C000
0003C000
0003C000
0003C000
0003C000
0003C000
0003C000
0003C000
0003C000
0003C000
0003C000
0003C000
0003C000
0003C000
0003C000
0003C000
0003C000
0003C000
0003C000
0003C000
0003C000
0003C000
0003C000
0003C000
0003C000
0003C000
0003C000
0003C000
0003C000
0003C000
0003C000
0003C000
0383C1C0
03E3C7C0
01FBDF80
00FFFF00
007FFE00
003FFC00
001FF800
000FF000
0007E000
0003C000
00018000
FFFFFFFF
FFFFFFFF
FFFFFFFF
FFFFFFFF
00000000
00000000
00000000
00000000
ENDCHAR

STARTCHAR CODE024
ENCODING 24
SWIDTH 451 0
DWIDTH 32 0
BBX 32 64 0 -6
BITMAP
00000000
00000000
00018000
0003C000
0007E000
000FF000
001FF800
003FFC00
007FFE00
00FFFF00
01FBDF80
03E3C7C0
0383C1C0
0003C000
0003C000
0003C000
0003C000
0003C000
0003C000
0003C000
0003C000
0003C000
0003C000
0003C000
0003C000
0003C000
0003C000
0003C000
0003C000
0003C000
0003C000
0003C000
0003C000
0003C000
0003C000
0003C000
0003C000
0003C000
0003C000
0003C000
0003C000
0003C000
0003C000
0003C000
0003C000
0003C000
0003C000
0003C000
0003C000
0003C000
0003C000
0003C000
0003C000
0003C000
0003C000
0003C000
0003C000
0003C000
0003C000
0003C000
00000000
00000000
00000000
00000000
ENDCHAR

STARTCHAR CODE025
ENCODING 25
SWIDTH 451 0
DWIDTH 32 0
BBX 32 64 0 -6
BITMAP
00000000
00000000
0003C000
0003C000
0003C000
0003C000
0003C000
0003C000
0003C000
0003C000
0003C000
0003C000
0003C000
0003C000
0003C000
0003C000
0003C000
0003C000
0003C000
0003C000
0003C000
0003C000
0003C000
0003C000
0003C000
0003C000
0003C000
0003C000
0003C000
0003C000
0003C000
0003C000
0003C000
0003C000
0003C000
0003C000
0003C000
0003C000
0003C000
0003C000
0003C000
0003C000
0003C000
0003C000
0003C000
0003C000
0003C000
0003C000
0003C000
0383C1C0
03E3C7C0
01FBDF80
00FFFF00
007FFE00
003FFC00
001FF800
000FF000
0007E000
0003C000
00018000
00000000
00000000
00000000
00000000
ENDCHAR

STARTCHAR CODE026
ENCODING 26
SWIDTH 451 0
DWIDTH 32 0
BBX 32 64 0 -6
BITMAP
00000000
00000000
00000000
00000000
00000000
00000000
00000000
00000000
00000000
00000000
00000000
00000000
00000000
00000000
00000000
00000000
00000000
00000000
00000000
00000000
00000000
00000600
00000700
00000780
000003C0
000003E0
000001F0
000001F8
000000FC
FFFFFFFE
FFFFFFFF
FFFFFFFF
FFFFFFFE
000000FC
000001F8
000001F0
000003E0
000003C0
00000780
00000700
00000600
00000000
00000000
00000000
00000000
00000000
00000000
00000000
00000000
00000000
00000000
00000000
00000000
00000000
00000000
00000000
00000000
00000000
00000000
00000000
00000000
00000000
00000000
00000000
ENDCHAR

STARTCHAR CODE027
ENCODING 27
SWIDTH 451 0
DWIDTH 32 0
BBX 32 64 0 -6
BITMAP
00000000
00000000
00000000
00000000
00000000
00000000
00000000
00000000
00000000
00000000
00000000
00000000
00000000
00000000
00000000
00000000
00000000
00000000
00000000
00000000
00000000
00600000
00E00000
01E00000
03C00000
07C00000
0F800000
1F800000
3F000000
7FFFFFFF
FFFFFFFF
FFFFFFFF
7FFFFFFF
3F000000
1F800000
0F800000
07C00000
03C00000
01E00000
00E00000
00600000
00000000
00000000
00000000
00000000
00000000
00000000
00000000
00000000
00000000
00000000
00000000
00000000
00000000
00000000
00000000
00000000
00000000
00000000
00000000
00000000
00000000
00000000
00000000
ENDCHAR

STARTCHAR CODE028
ENCODING 28
SWIDTH 451 0
DWIDTH 32 0
BBX 32 64 0 -6
BITMAP
00000000
00000000
00000000
00000000
00000000
00000000
00000000
00000000
00000000
00000000
00000000
00000000
00000000
00000000
00000000
F0000000
F0000000
F0000000
F0000000
F0000000
F0000000
F0000000
F0000000
F0000000
F0000000
F0000000
F0000000
F0000000
F0000000
F0000000
F0000000
F0000000
F0000000
F0000000
F0000000
F0000000
F0000000
F0000000
F0000000
F0000000
F0000000
F0000000
F0000000
F0000000
FFFFFFFF
FFFFFFFF
FFFFFFFF
FFFFFFFF
00000000
00000000
00000000
00000000
00000000
00000000
00000000
00000000
00000000
00000000
00000000
00000000
00000000
00000000
00000000
00000000
ENDCHAR

STARTCHAR CODE029
ENCODING 29
SWIDTH 451 0
DWIDTH 32 0
BBX 32 64 0 -6
BITMAP
00000000
00000000
00000000
00000000
00000000
00000000
00000000
00000000
00000000
00000000
00000000
00000000
00000000
00000000
00000000
00000000
00000000
00000000
00000000
00000000
00000000
00000000
00C00180
01C001C0
03C001E0
078000F0
0F8000F8
1F00007C
3F00007E
7FFFFFFF
FFFFFFFF
FFFFFFFF
7FFFFFFF
3F00007E
1F00007C
0F8000F8
078000F0
03C001E0
01C001C0
00C00180
00000000
00000000
00000000
00000000
00000000
00000000
00000000
00000000
00000000
00000000
00000000
00000000
00000000
00000000
00000000
00000000
00000000
00000000
00000000
00000000
00000000
00000000
00000000
00000000
ENDCHAR

STARTCHAR CODE030
ENCODING 30
SWIDTH 451 0
DWIDTH 32 0
BBX 32 64 0 -6
BITMAP
00000000
00000000
00000000
00000000
00000000
00000000
00000000
00000000
00000000
00000000
00000000
00000000
00000000
00018000
00018000
0003C000
0003C000
0007E000
0007E000
0007E000
000FF000
000FF000
001FF800
001FF800
001FF800
003FFC00
003FFC00
003FFC00
007FFE00
007FFE00
00FFFF00
00FFFF00
00FFFF00
01FFFF80
01FFFF80
01FFFF80
03FFFFC0
03FFFFC0
07FFFFE0
07FFFFE0
07FFFFE0
0FFFFFF0
0FFFFFF0
0FFFFFF0
1FFFFFF8
1FFFFFF8
3FFFFFFC
3FFFFFFC
3FFFFFFC
7FFFFFFE
7FFFFFFE
FFFFFFFF
FFFFFFFF
00000000
00000000
00000000
00000000
00000000
00000000
00000000
00000000
00000000
00000000
00000000
ENDCHAR

STARTCHAR CODE031
ENCODING 31
SWIDTH 451 0
DWIDTH 32 0
BBX 32 64 0 -6
BITMAP
00000000
00000000
00000000
00000000
00000000
00000000
00000000
00000000
00000000
00000000
00000000
FFFFFFFF
FFFFFFFF
7FFFFFFE
7FFFFFFE
3FFFFFFC
3FFFFFFC
3FFFFFFC
1FFFFFF8
1FFFFFF8
0FFFFFF0
0FFFFFF0
0FFFFFF0
07FFFFE0
07FFFFE0
07FFFFE0
03FFFFC0
03FFFFC0
01FFFF80
01FFFF80
01FFFF80
00FFFF00
00FFFF00
00FFFF00
007FFE00
007FFE00
003FFC00
003FFC00
003FFC00
001FF800
001FF800
001FF800
000FF000
000FF000
0007E000
0007E000
0007E000
0003C000
0003C000
00018000
00018000
00000000
00000000
00000000
00000000
00000000
00000000
00000000
00000000
00000000
00000000
00000000
00000000
00000000
ENDCHAR

STARTCHAR CODE032
ENCODING 32
SWIDTH 451 0
DWIDTH 32 0
BBX 32 64 0 -6
BITMAP
00000000
00000000
00000000
00000000
00000000
00000000
00000000
00000000
00000000
00000000
00000000
00000000
00000000
00000000
00000000
00000000
00000000
00000000
00000000
00000000
00000000
00000000
00000000
00000000
00000000
00000000
00000000
00000000
00000000
00000000
00000000
00000000
00000000
00000000
00000000
00000000
00000000
00000000
00000000
00000000
00000000
00000000
00000000
00000000
00000000
00000000
00000000
00000000
00000000
00000000
00000000
00000000
00000000
00000000
00000000
00000000
00000000
00000000
00000000
00000000
00000000
00000000
00000000
00000000
ENDCHAR

STARTCHAR CODE033
ENCODING 33
SWIDTH 451 0
DWIDTH 32 0
BBX 32 64 0 -6
BITMAP
00000000
00000000
00000000
00000000
00000000
00000000
0003C000
0007E000
0007E000
0007E000
0007E000
0007E000
0007E000
0007E000
0007E000
0007E000
0007E000
0007E000
0007E000
0007E000
0007E000
0007E000
0007E000
0007E000
0007E000
0007E000
0007E000
0007E000
0007E000
0007E000
0007E000
0007E000
0003C000
0003C000
0003C000
0003C000
0003C000
0003C000
00018000
00000000
00000000
00000000
00000000
00000000
0003C000
0007E000
0007E000
0007E000
0007E000
0007E000
0003C000
00000000
00000000
00000000
00000000
00000000
00000000
00000000
00000000
00000000
00000000
00000000
00000000
00000000
ENDCHAR

STARTCHAR CODE034
ENCODING 34
SWIDTH 451 0
DWIDTH 32 0
BBX 32 64 0 -6
BITMAP
00000000
00000000
00000000
00000000
00000000
00000000
00381C00
007C3E00
007C3E00
007C3E00
007C3E00
007C3E00
007C3E00
007C3E00
007C3E00
007C3E00
007C3E00
007C3E00
00381C00
00381C00
00381C00
00381C00
00381C00
00000000
00000000
00000000
00000000
00000000
00000000
00000000
00000000
00000000
00000000
00000000
00000000
00000000
00000000
00000000
00000000
00000000
00000000
00000000
00000000
00000000
00000000
00000000
00000000
00000000
00000000
00000000
00000000
00000000
00000000
00000000
00000000
00000000
00000000
00000000
00000000
00000000
00000000
00000000
00000000
00000000
ENDCHAR

STARTCHAR CODE035
ENCODING 35
SWIDTH 451 0
DWIDTH 32 0
BBX 32 64 0 -6
BITMAP
00000000
00000000
00000000
00000000
00000000
00000000
00000000
003C0F00
003C0F00
003C0F00
003C0F00
003C0F00
003C0F00
003C0F00
003C0F00
003C0F00
003C0F00
003C0F00
003C0F00
003C0F00
1FFFFFFC
1FFFFFFC
1FFFFFFC
1FFFFFFC
00781E00
00781E00
00781E00
00781E00
00781E00
00781E00
00781E00
00781E00
3FFFFFF8
3FFFFFF8
3FFFFFF8
3FFFFFF8
00F03C00
00F03C00
00F03C00
00F03C00
00F03C00
00F03C00
00F03C00
00F03C00
00F03C00
00F03C00
00F03C00
00F03C00
00F03C00
00F03C00
00000000
00000000
00000000
00000000
00000000
00000000
00000000
00000000
00000000
00000000
00000000
00000000
00000000
00000000
ENDCHAR

STARTCHAR CODE036
ENCODING 36
SWIDTH 451 0
DWIDTH 32 0
BBX 32 64 0 -6
BITMAP
00000000
00000000
00000000
0003C000
0003C000
0003C000
007FFC38
01FFFF38
07FFFFF8
0FE3DFF8
0F83C7F8
1F03C1F8
1F03C0F8
3F03C07C
3E03C03C
3E03C03C
3E03C01C
3F03C01C
3F03C00C
1F83C000
1FC3C000
0FF3C000
0FFBC000
07FFC000
03FFC000
01FFE000
00FFF800
003FFE00
000FFF00
0003FF80
0003FFC0
0003FFE0
0003DFF0
0003C7F8
0003C3F8
0003C1FC
0003C0FC
3003C0FC
3003C07C
3803C07C
3803C07C
3C03C07C
3C03C07C
3E03C0FC
3F03C0F8
3F83C1F8
3FE3C3F0
3FFBDFE0
39FFFFC0
387FFF00
381FFC00
0003C000
0003C000
0003C000
0003C000
0003C000
00000000
00000000
00000000
00000000
00000000
00000000
00000000
00000000
ENDCHAR

STARTCHAR CODE037
ENCODING 37
SWIDTH 451 0
DWIDTH 32 0
BBX 32 64 0 -6
BITMAP
00000000
00000000
00000000
00000000
00000000
00000000
000003C0
00F803C0
03FC07C0
07FE1F80
0FDFFF80
1F8FFF00
1F07FF00
3F071F00
3E071E00
3E071E00
7E073E00
7E073C00
7C0F7C00
7C0E7C00
7C0E7800
7C0EF800
7C1CF000
7C1CF000
7C1DF000
7C39E0F0
7C39E3FC
7E7BC7FC
3FF3CFFE
3FE3DF9E
1FC7BF1E
0F07BE0F
0007BE0F
000F7E07
000F7C07
001F7C07
001EFC07
001EFC07
003EFC0F
003CF80E
003CF80E
007CF80E
0078F80E
0078F81E
00F8F81C
00F0F83C
00F07CFC
01F07FF8
01E03FF0
01E01FC0
01E00F00
00000000
00000000
00000000
00000000
00000000
00000000
00000000
00000000
00000000
00000000
00000000
00000000
00000000
ENDCHAR

STARTCHAR CODE038
ENCODING 38
SWIDTH 451 0
DWIDTH 32 0
BBX 32 64 0 -6
BITMAP
00000000
00000000
00000000
00000000
00000000
001F0000
003FC000
007FE000
00FFF000
00F0F000
01F07000
01E07000
01E07000
03E07000
03E07000
03E07000
03E07000
03E0F000
01E0E000
01F1E000
01F3C000
01F3C000
00FF8FFC
00FF0FFC
00FE03F0
007C01E0
00FE01E0
01FE01C0
03FE01C0
07BF01C0
0F1F03C0
1F1F8380
3E0F8380
3E0FC380
3E0FC780
7C07E700
7C07E700
7C03FF00
7C03FE00
7C01FE00
7C01FC00
7C00FC00
7C00FC06
7C007E0E
7E00FF1E
3E01FFFE
3F8FDFFC
3FFF9FFC
1FFF0FF8
0FFE07F0
03F801E0
00000000
00000000
00000000
00000000
00000000
00000000
00000000
00000000
00000000
00000000
00000000
00000000
00000000
ENDCHAR

STARTCHAR CODE039
ENCODING 39
SWIDTH 451 0
DWIDTH 32 0
BBX 32 64 0 -6
BITMAP
00000000
00000000
00000000
00000000
00000000
00000000
0001C000
0003E000
0003E000
0003E000
0003E000
0003E000
0003E000
0003E000
0003E000
0003E000
0003E000
0001C000
0001C000
0001C000
0001C000
00000000
00000000
00000000
00000000
00000000
00000000
00000000
00000000
00000000
00000000
00000000
00000000
00000000
00000000
00000000
00000000
00000000
00000000
00000000
00000000
00000000
00000000
00000000
00000000
00000000
00000000
00000000
00000000
00000000
00000000
00000000
00000000
00000000
00000000
00000000
00000000
00000000
00000000
00000000
00000000
00000000
00000000
00000000
ENDCHAR

STARTCHAR CODE040
ENCODING 40
SWIDTH 451 0
DWIDTH 32 0
BBX 32 64 0 -6
BITMAP
00000000
00000000
00000000
00000000
00000000
00000000
00000E00
00001E00
00003C00
00007800
00007800
0000F000
0000F000
0001E000
0001E000
0001E000
0003C000
0003C000
0003C000
0007C000
0007C000
00078000
000F8000
000F8000
000F8000
000F8000
000F8000
001F0000
001F0000
001F0000
001F0000
001F0000
001F0000
001F0000
001F0000
001F0000
001F0000
001F0000
001F0000
001F0000
000F8000
000F8000
000F8000
000F8000
000F8000
00078000
00078000
0007C000
0007C000
0003C000
0003C000
0003E000
0001E000
0001E000
0000F000
0000F000
00007800
00007800
00003C00
00001E00
00000E00
00000000
00000000
00000000
ENDCHAR

STARTCHAR CODE041
ENCODING 41
SWIDTH 451 0
DWIDTH 32 0
BBX 32 64 0 -6
BITMAP
00000000
00000000
00000000
00000000
00000000
00000000
00380000
003C0000
001E0000
000F0000
000F0000
00078000
00078000
0003C000
0003C000
0003C000
0001E000
0001E000
0001E000
0001F000
0001F000
0000F000
0000F800
0000F800
0000F800
0000F800
0000F800
00007C00
00007C00
00007C00
00007C00
00007C00
00007C00
00007C00
00007C00
00007C00
00007C00
00007C00
00007C00
00007C00
0000F800
0000F800
0000F800
0000F800
0000F800
0000F000
0000F000
0001F000
0001F000
0001E000
0001E000
0003E000
0003C000
0003C000
00078000
00078000
000F0000
000F0000
001E0000
003C0000
00380000
00000000
00000000
00000000
ENDCHAR

STARTCHAR CODE042
ENCODING 42
SWIDTH 451 0
DWIDTH 32 0
BBX 32 64 0 -6
BITMAP
00000000
00000000
00000000
00000000
00000000
00000000
00000000
00000000
00000000
00000000
00000000
00000000
00000000
00000000
00000000
00000000
00000000
00000000
00000000
00000000
00000000
00000000
00000000
0003C000
0007E000
0007E000
0007E000
0787E1E0
0FC7E3F0
0FE3C7F0
0FF3CFF0
0FFBDFF0
07FDBFE0
01FFFF80
003FFC00
0007E000
000FF000
003FFC00
01FFFF80
07FDBFE0
0FFBDFF0
0FF3CFF0
0FE3C7F0
0FC7E3F0
0787E1E0
0007E000
0007E000
0007E000
0003C000
00000000
00000000
00000000
00000000
00000000
00000000
00000000
00000000
00000000
00000000
00000000
00000000
00000000
00000000
00000000
ENDCHAR

STARTCHAR CODE043
ENCODING 43
SWIDTH 451 0
DWIDTH 32 0
BBX 32 64 0 -6
BITMAP
00000000
00000000
00000000
00000000
00000000
00000000
00000000
00000000
00000000
00000000
00000000
00000000
00000000
00000000
00000000
00000000
00000000
00000000
00000000
00000000
00000000
00000000
0003C000
0003C000
0003C000
0003C000
0003C000
0003C000
0003C000
0003C000
0003C000
0003C000
0003C000
0003C000
3FFFFFFC
3FFFFFFC
3FFFFFFC
3FFFFFFC
0003C000
0003C000
0003C000
0003C000
0003C000
0003C000
0003C000
0003C000
0003C000
0003C000
0003C000
0003C000
00000000
00000000
00000000
00000000
00000000
00000000
00000000
00000000
00000000
00000000
00000000
00000000
00000000
00000000
ENDCHAR

STARTCHAR CODE044
ENCODING 44
SWIDTH 451 0
DWIDTH 32 0
BBX 32 64 0 -6
BITMAP
00000000
00000000
00000000
00000000
00000000
00000000
00000000
00000000
00000000
00000000
00000000
00000000
00000000
00000000
00000000
00000000
00000000
00000000
00000000
00000000
00000000
00000000
00000000
00000000
00000000
00000000
00000000
00000000
00000000
00000000
00000000
00000000
00000000
00000000
00000000
00000000
00000000
00000000
00000000
00000000
00000000
00000000
00000000
00000000
0003C000
0007E000
000FF000
000FF000
000FF000
000FF000
0007F000
0003F000
00007000
0000F000
0000E000
0003E000
0007C000
00070000
00000000
00000000
00000000
00000000
00000000
00000000
ENDCHAR

STARTCHAR CODE045
ENCODING 45
SWIDTH 451 0
DWIDTH 32 0
BBX 32 64 0 -6
BITMAP
00000000
00000000
00000000
00000000
00000000
00000000
00000000
00000000
00000000
00000000
00000000
00000000
00000000
00000000
00000000
00000000
00000000
00000000
00000000
00000000
00000000
00000000
00000000
00000000
00000000
00000000
00000000
00000000
00000000
00000000
00000000
00000000
00000000
00000000
3FFFFFFC
3FFFFFFC
3FFFFFFC
3FFFFFFC
00000000
00000000
00000000
00000000
00000000
00000000
00000000
00000000
00000000
00000000
00000000
00000000
00000000
00000000
00000000
00000000
00000000
00000000
00000000
00000000
00000000
00000000
00000000
00000000
00000000
00000000
ENDCHAR

STARTCHAR CODE046
ENCODING 46
SWIDTH 451 0
DWIDTH 32 0
BBX 32 64 0 -6
BITMAP
00000000
00000000
00000000
00000000
00000000
00000000
00000000
00000000
00000000
00000000
00000000
00000000
00000000
00000000
00000000
00000000
00000000
00000000
00000000
00000000
00000000
00000000
00000000
00000000
00000000
00000000
00000000
00000000
00000000
00000000
00000000
00000000
00000000
00000000
00000000
00000000
00000000
00000000
00000000
00000000
00000000
00000000
00000000
00000000
0001E000
0003F000
0007F800
0007F800
0007F800
0007F800
0003F000
0001E000
00000000
00000000
00000000
00000000
00000000
00000000
00000000
00000000
00000000
00000000
00000000
00000000
ENDCHAR

STARTCHAR CODE047
ENCODING 47
SWIDTH 451 0
DWIDTH 32 0
BBX 32 64 0 -6
BITMAP
00000000
00000000
00000000
00000000
00000000
00000000
00001E00
00001E00
00001E00
00003E00
00003C00
00003C00
00003C00
00007C00
00007800
00007800
00007800
0000F800
0000F000
0000F000
0000F000
0001F000
0001E000
0001E000
0001E000
0003E000
0003C000
0003C000
0003C000
0007C000
00078000
00078000
00078000
000F8000
000F0000
000F0000
000F0000
001F0000
001E0000
001E0000
001E0000
003E0000
003C0000
003C0000
003C0000
007C0000
00780000
00780000
00780000
00780000
00780000
00000000
00000000
00000000
00000000
00000000
00000000
00000000
00000000
00000000
00000000
00000000
00000000
00000000
ENDCHAR

STARTCHAR CODE048
ENCODING 48
SWIDTH 451 0
DWIDTH 32 0
BBX 32 64 0 -6
BITMAP
00000000
00000000
00000000
00000000
00000000
00000000
000FF000
003FFC00
00FFFF00
01FFFF80
03F81FC0
03E007C0
07E003E0
07C003E0
0FC001F0
0F8001F0
0F8001F0
1F8000F8
1F8000F8
1F0000F8
1F0000F8
3F0000FC
3F0000FC
3E00007C
3E00007C
3E00007C
3E00007C
3E00007C
3E00007C
3E00007C
3E00007C
3E00007C
3E00007C
3E00007C
3F0000FC
3F0000FC
1F0000F8
1F0000F8
1F0000F8
1F0000F8
0F8001F0
0F8001F0
0F8001F0
07C003E0
07C003E0
03E007C0
03F81FC0
01FFFF80
00FFFF00
003FFC00
000FF000
00000000
00000000
00000000
00000000
00000000
00000000
00000000
00000000
00000000
00000000
00000000
00000000
00000000
ENDCHAR

STARTCHAR CODE049
ENCODING 49
SWIDTH 451 0
DWIDTH 32 0
BBX 32 64 0 -6
BITMAP
00000000
00000000
00000000
00000000
00000000
00000000
00000000
0000F000
0001F000
0003F000
0007F000
000FF000
001FF000
001FF000
0001F000
0001F000
0001F000
0001F000
0001F000
0001F000
0001F000
0001F000
0001F000
0001F000
0001F000
0001F000
0001F000
0001F000
0001F000
0001F000
0001F000
0001F000
0001F000
0001F000
0001F000
0001F000
0001F000
0001F000
0001F000
0001F000
0001F000
0001F000
0001F000
0001F000
0001F000
0001F000
0003F800
001FFF00
001FFF00
001FFF00
00000000
00000000
00000000
00000000
00000000
00000000
00000000
00000000
00000000
00000000
00000000
00000000
00000000
00000000
ENDCHAR

STARTCHAR CODE050
ENCODING 50
SWIDTH 451 0
DWIDTH 32 0
BBX 32 64 0 -6
BITMAP
00000000
00000000
00000000
00000000
00000000
00000000
001FF800
007FFE00
01FFFF00
03FFFF80
07FFFFC0
07F81FE0
0FC00FE0
1F0007E0
1E0003F0
1C0003F0
3C0003F0
3C0003F0
380003F0
380003F0
000003F0
000003E0
000007E0
000007E0
000007C0
00000FC0
00000F80
00001F80
00001F00
00003F00
00003E00
00007C00
0000F800
0001F000
0003E000
0007C000
000F8000
001F0000
003E0000
007C0000
00F8000C
01F0000C
03E0001C
07C0003C
0F8000F8
1FFFFFF8
3FFFFFF8
3FFFFFF0
3FFFFFF0
3FFFFFF0
00000000
00000000
00000000
00000000
00000000
00000000
00000000
00000000
00000000
00000000
00000000
00000000
00000000
00000000
ENDCHAR

STARTCHAR CODE051
ENCODING 51
SWIDTH 451 0
DWIDTH 32 0
BBX 32 64 0 -6
BITMAP
00000000
00000000
00000000
00000000
00000000
00000000
001FF800
007FFF00
01FFFF80
03FFFFC0
07FFFFC0
0FF83FE0
0FC00FE0
1F0003E0
1C0003E0
180001E0
000001E0
000001E0
000001E0
000003E0
000003C0
000007C0
00000780
00000F80
00003F00
0001FE00
001FFF00
001FFFC0
001FFFE0
0000FFE0
00001FF0
000003F0
000001F8
000001F8
000000F8
000000F8
00000078
00000078
00000078
00000078
00000078
000000F8
1F0000F8
3F8001F0
3F8003F0
3FC007E0
3FE01FC0
1FFFFF80
0FFFFF00
03FFFC00
007FE000
00000000
00000000
00000000
00000000
00000000
00000000
00000000
00000000
00000000
00000000
00000000
00000000
00000000
ENDCHAR

STARTCHAR CODE052
ENCODING 52
SWIDTH 451 0
DWIDTH 32 0
BBX 32 64 0 -6
BITMAP
00000000
00000000
00000000
00000000
00000000
00000000
00000F80
00001F80
00001F80
00003F80
00003F80
00007F80
00007F80
0000FF80
0001FF80
0001EF80
0003EF80
0007CF80
00078F80
000F8F80
001F0F80
001E0F80
003E0F80
007C0F80
00780F80
00F80F80
01F00F80
01E00F80
03E00F80
07C00F80
07800F80
0F800F80
1F000F80
1F000F80
3FFFFFFC
3FFFFFFC
3FFFFFFC
3FFFFFFC
3FFFFFFC
00000F80
00000F80
00000F80
00000F80
00000F80
00000F80
00000F80
00000F80
00000F80
00000F80
00000F80
00000000
00000000
00000000
00000000
00000000
00000000
00000000
00000000
00000000
00000000
00000000
00000000
00000000
00000000
ENDCHAR

STARTCHAR CODE053
ENCODING 53
SWIDTH 451 0
DWIDTH 32 0
BBX 32 64 0 -6
BITMAP
00000000
00000000
00000000
00000000
00000018
00000018
00000038
00FFFFF8
00FFFFF8
00FFFFF8
00FFFFF8
00FFFFF0
01E00000
01E00000
01E00000
01E00000
03C00000
03C00000
03C00000
03C00000
03C00000
07F80000
07FF8000
07FFF000
07FFFC00
07FFFE00
007FFF80
0003FFC0
00007FE0
00001FE0
000007F0
000003F0
000001F8
000000F8
000000F8
00000078
00000078
00000078
00000078
00000078
00000078
0F8000F8
1FC000F0
1FE000F0
1FE001F0
1FE003E0
1FF01FC0
0FFFFF80
07FFFF00
03FFFC00
00FFE000
00000000
00000000
00000000
00000000
00000000
00000000
00000000
00000000
00000000
00000000
00000000
00000000
00000000
ENDCHAR

STARTCHAR CODE054
ENCODING 54
SWIDTH 451 0
DWIDTH 32 0
BBX 32 64 0 -6
BITMAP
00000000
00000000
00000000
00000000
00000000
000003F0
00001FF0
00007FF0
0001FE00
0007F000
000FC000
001F8000
003F0000
007E0000
00FC0000
01F80000
03F00000
03E00000
07E00000
07C00000
0FC00000
0F800000
0F8FFC00
1FBFFF00
1FFFFFC0
1FFFFFE0
1FF01FE0
3FC007F0
3F8003F0
3F0001F0
3F0001F8
3E0001F8
3E0000F8
3E0000F8
3E0000F8
3E0000F8
3E0000F8
3E0000F8
3F0000F8
1F0000F8
1F0000F8
1F0001F8
1F8001F8
0F8001F0
0FC003F0
07E007E0
07F81FE0
03FFFFC0
01FFFF80
007FFE00
001FF800
00000000
00000000
00000000
00000000
00000000
00000000
00000000
00000000
00000000
00000000
00000000
00000000
00000000
ENDCHAR

STARTCHAR CODE055
ENCODING 55
SWIDTH 451 0
DWIDTH 32 0
BBX 32 64 0 -6
BITMAP
00000000
00000000
00000000
00000000
00000000
00000000
00000000
07FFFFF8
07FFFFF8
0FFFFFF8
0FFFFFF8
0FFFFFF8
1F0001F0
1E0001F0
1C0001F0
180001F0
180001E0
000003E0
000003E0
000003E0
000003C0
000003C0
000007C0
000007C0
00000780
00000780
00000780
00000F80
00000F80
00000F00
00000F00
00000F00
00001F00
00001F00
00001E00
00001E00
00001E00
00003E00
00003E00
00003C00
00003C00
00003C00
00007C00
00007C00
00007800
00007800
0000F800
0000F800
0000F800
0000F000
0000F000
00000000
00000000
00000000
00000000
00000000
00000000
00000000
00000000
00000000
00000000
00000000
00000000
00000000
ENDCHAR

STARTCHAR CODE056
ENCODING 56
SWIDTH 451 0
DWIDTH 32 0
BBX 32 64 0 -6
BITMAP
00000000
00000000
00000000
00000000
00000000
00000000
003FFC00
00FFFF00
03FFFF80
07FFFFC0
0FF01FC0
0FC007E0
1F8003E0
1F8003F0
1F0001F0
1F0001F0
1F0001F0
1F8003F0
1F8003E0
0FC003E0
0FE007C0
07F007C0
07F80F80
03FE3F00
01FFFE00
00FFFC00
007FF800
003FFC00
007FFF00
01FFFF80
03F8FFC0
07E03FE0
0FC00FF0
0F8007F0
1F0003F8
1F0001F8
3E0000FC
3E0000FC
3E00007C
3E00007C
3E00007C
3F00007C
3F0000FC
1F0000FC
1F8001F8
0FC003F8
0FF00FF0
07FFFFE0
03FFFFC0
00FFFF00
003FFC00
00000000
00000000
00000000
00000000
00000000
00000000
00000000
00000000
00000000
00000000
00000000
00000000
00000000
ENDCHAR

STARTCHAR CODE057
ENCODING 57
SWIDTH 451 0
DWIDTH 32 0
BBX 32 64 0 -6
BITMAP
00000000
00000000
00000000
00000000
00000000
00000000
001FF800
00FFFE00
01FFFF00
03F83F80
07E00FC0
0FC007E0
0FC003E0
0F8003F0
1F8003F0
1F8001F0
1F0001F0
3F0001F8
3F0001F8
3F0001F8
3F0000F8
3F0000F8
3F0000F8
3F0000F8
1F0000F8
1F8000F8
1F8001F8
1F8001F8
0FC003F8
0FE007F8
07F83FF8
03FFFFF8
01FFFFF8
00FFF9F0
003FE3F0
000003F0
000003E0
000007E0
000007E0
00000FC0
00000FC0
00001F80
00001F80
00003F00
00007E00
0000FC00
0003F800
001FF000
00FFC000
01FF0000
01F80000
00000000
00000000
00000000
00000000
00000000
00000000
00000000
00000000
00000000
00000000
00000000
00000000
00000000
ENDCHAR

STARTCHAR CODE058
ENCODING 58
SWIDTH 451 0
DWIDTH 32 0
BBX 32 64 0 -6
BITMAP
00000000
00000000
00000000
00000000
00000000
00000000
00000000
00000000
00000000
00000000
00000000
00000000
00000000
00000000
00000000
00000000
00000000
00000000
00000000
00000000
0003C000
0007E000
000FF000
000FF000
000FF000
000FF000
0007E000
0003C000
00000000
00000000
00000000
00000000
00000000
00000000
00000000
00000000
00000000
00000000
00000000
00000000
00000000
00000000
00000000
0003C000
0007E000
000FF000
000FF000
000FF000
000FF000
0007E000
0003C000
00000000
00000000
00000000
00000000
00000000
00000000
00000000
00000000
00000000
00000000
00000000
00000000
00000000
ENDCHAR

STARTCHAR CODE059
ENCODING 59
SWIDTH 451 0
DWIDTH 32 0
BBX 32 64 0 -6
BITMAP
00000000
00000000
00000000
00000000
00000000
00000000
00000000
00000000
00000000
00000000
00000000
00000000
00000000
00000000
00000000
00000000
00000000
00000000
00000000
00000000
0003C000
0007E000
000FF000
000FF000
000FF000
000FF000
0007E000
0003C000
00000000
00000000
00000000
00000000
00000000
00000000
00000000
00000000
00000000
00000000
00000000
00000000
00000000
00000000
00000000
0003C000
0007E000
000FF000
000FF000
000FF000
000FF000
0007F000
0003F000
00007000
0000F000
0000E000
0003E000
0007C000
00070000
00000000
00000000
00000000
00000000
00000000
00000000
00000000
ENDCHAR

STARTCHAR CODE060
ENCODING 60
SWIDTH 451 0
DWIDTH 32 0
BBX 32 64 0 -6
BITMAP
00000000
00000000
00000000
00000000
00000000
00000000
00000000
00000000
00000000
00000000
00000000
00000000
00000000
00000000
00000000
00000000
00000000
00000000
00000000
00000000
00000018
00000078
000001F8
000007F8
00001FF8
00007FE0
0001FF80
0007FE00
001FF800
007FE000
01FF8000
07FE0000
1FF80000
1FE00000
1F800000
1FE00000
1FF80000
07FE0000
01FF8000
007FE000
001FF800
0007FE00
0001FF80
00007FE0
00001FF8
000007F8
000001F8
00000078
00000018
00000000
00000000
00000000
00000000
00000000
00000000
00000000
00000000
00000000
00000000
00000000
00000000
00000000
00000000
00000000
ENDCHAR

STARTCHAR CODE061
ENCODING 61
SWIDTH 451 0
DWIDTH 32 0
BBX 32 64 0 -6
BITMAP
00000000
00000000
00000000
00000000
00000000
00000000
00000000
00000000
00000000
00000000
00000000
00000000
00000000
00000000
00000000
00000000
00000000
00000000
00000000
00000000
00000000
00000000
00000000
00000000
00000000
3FFFFFFC
3FFFFFFC
3FFFFFFC
3FFFFFFC
00000000
00000000
00000000
00000000
00000000
00000000
00000000
00000000
00000000
00000000
3FFFFFFC
3FFFFFFC
3FFFFFFC
3FFFFFFC
00000000
00000000
00000000
00000000
00000000
00000000
00000000
00000000
00000000
00000000
00000000
00000000
00000000
00000000
00000000
00000000
00000000
00000000
00000000
00000000
00000000
ENDCHAR

STARTCHAR CODE062
ENCODING 62
SWIDTH 451 0
DWIDTH 32 0
BBX 32 64 0 -6
BITMAP
00000000
00000000
00000000
00000000
00000000
00000000
00000000
00000000
00000000
00000000
00000000
00000000
00000000
00000000
00000000
00000000
00000000
00000000
00000000
00000000
0C000000
0F000000
0FC00000
0FF00000
0FFC0000
03FF0000
00FFC000
003FF000
000FFC00
0003FF00
0000FFC0
00003FF0
00000FFC
000003FC
000000FC
000003FC
00000FFC
00003FF0
0000FFC0
0003FF00
000FFC00
003FF000
00FFC000
03FF0000
0FFC0000
0FF00000
0FC00000
0F000000
0C000000
00000000
00000000
00000000
00000000
00000000
00000000
00000000
00000000
00000000
00000000
00000000
00000000
00000000
00000000
00000000
ENDCHAR

STARTCHAR CODE063
ENCODING 63
SWIDTH 451 0
DWIDTH 32 0
BBX 32 64 0 -6
BITMAP
00000000
00000000
00000000
00000000
00000000
001FF800
007FFE00
01FFFF00
03FFFF80
07F01FC0
0FC007C0
0F8007E0
1F0003E0
1F0003F0
1F8001F0
1FC001F0
1FC001F0
1FC001F0
0FC003F0
078003F0
000003F0
000007E0
000007E0
00000FC0
00000FC0
00001F80
00001F00
00003E00
00007C00
00007800
0000F800
0000F000
0000F000
0001E000
0001E000
0001E000
0001E000
0001E000
0001E000
0001E000
00000000
00000000
00000000
0003E000
0007F000
0007F000
0007F000
0007F000
0007F000
0003E000
00000000
00000000
00000000
00000000
00000000
00000000
00000000
00000000
00000000
00000000
00000000
00000000
00000000
00000000
ENDCHAR

STARTCHAR CODE064
ENCODING 64
SWIDTH 451 0
DWIDTH 32 0
BBX 32 64 0 -6
BITMAP
00000000
00000000
00000000
00000000
00000000
00000000
000FFC00
003FFF00
00FFFF80
01FC0FC0
03F003E0
03E001F0
07C000F0
0FC00078
0F800078
1F80003C
1F00003C
1F01F79C
3F03FF9C
3E07FF9E
3E0FFF8E
7E0F9F8E
7E1F0F0E
7C1F0F0E
7C1E0F0E
7C3E0F0E
7C3C0F0E
7C3C0F0E
7C3C1E0E
7C3C1E0E
7C3C1E0E
7C3C1E1E
7C3C1E1C
7C3C3E1C
7C3C3C3C
7E3E7C38
7E3EFC78
3E3FFEF8
3F1FDFF0
3F1F8FE0
1F8F07C0
1F800000
0FC00000
0FC00018
07E00038
07F000F8
03FC03F0
01FF1FE0
007FFFC0
001FFF00
0007F800
00000000
00000000
00000000
00000000
00000000
00000000
00000000
00000000
00000000
00000000
00000000
00000000
00000000
ENDCHAR

STARTCHAR CODE065
ENCODING 65
SWIDTH 451 0
DWIDTH 32 0
BBX 32 64 0 -6
BITMAP
00000000
00000000
00000000
00000000
00000000
00000000
00038000
00038000
00038000
0007C000
0007C000
0007C000
0007C000
000FE000
000FE000
000FE000
000FF000
001DF000
001DF000
001DF800
001DF800
003CF800
0038F800
0038FC00
00787C00
00707C00
00707E00
00707E00
00F03E00
00E03F00
00E03F00
01E01F00
01C01F00
01FFFF80
01FFFF80
03FFFF80
03FFFFC0
03800FC0
078007C0
070007E0
070007E0
0F0007E0
0E0003E0
0E0003F0
0E0003F0
1E0003F0
1C0001F8
FFC00FFF
FFC00FFF
FFC00FFF
00000000
00000000
00000000
00000000
00000000
00000000
00000000
00000000
00000000
00000000
00000000
00000000
00000000
00000000
ENDCHAR

STARTCHAR CODE066
ENCODING 66
SWIDTH 451 0
DWIDTH 32 0
BBX 32 64 0 -6
BITMAP
00000000
00000000
00000000
00000000
00000000
00000000
00000000
7FFFFC00
7FFFFF00
7FFFFFC0
0FC01FE0
07C007F0
07C003F0
07C001F8
07C001F8
07C000F8
07C000F8
07C000F8
07C000F8
07C000F8
07C000F8
07C001F8
07C001F0
07C003F0
07C00FE0
07C03FC0
07FFFF80
07FFFF00
07FFFFC0
07C03FE0
07C00FF0
07C003F8
07C001F8
07C000FC
07C000FC
07C0007E
07C0007E
07C0007E
07C0007E
07C0007E
07C0007E
07C000FE
07C000FC
07C001FC
07C003F8
07C007F8
0FE01FF0
7FFFFFE0
7FFFFF80
7FFFFE00
00000000
00000000
00000000
00000000
00000000
00000000
00000000
00000000
00000000
00000000
00000000
00000000
00000000
00000000
ENDCHAR

STARTCHAR CODE067
ENCODING 67
SWIDTH 451 0
DWIDTH 32 0
BBX 32 64 0 -6
BITMAP
00000000
00000000
00000000
00000000
00000000
00000000
0007FE0C
001FFF9C
007FFFFC
00FE03FC
01F800FC
03F0007C
07E0003C
0FC0003C
0FC0001C
1F80001C
1F80000C
1F00000C
3F00000C
3F000000
3E000000
7E000000
7E000000
7E000000
7E000000
7E000000
7E000000
7E000000
7E000000
7E000000
7E000000
7E000000
7E000000
7E000000
7E000000
3F000000
3F000000
3F000000
3F000000
1F800000
1F800000
1FC00006
0FC0000E
0FE0001E
07F0007C
07F801F8
03FE07F0
01FFFFE0
00FFFFC0
003FFF00
000FFC00
00000000
00000000
00000000
00000000
00000000
00000000
00000000
00000000
00000000
00000000
00000000
00000000
00000000
ENDCHAR

STARTCHAR CODE068
ENCODING 68
SWIDTH 451 0
DWIDTH 32 0
BBX 32 64 0 -6
BITMAP
00000000
00000000
00000000
00000000
00000000
00000000
00000000
3FFFF000
3FFFFC00
3FFFFF00
0FC07F80
07C01FC0
07C007E0
07C003E0
07C003F0
07C001F0
07C001F8
07C001F8
07C000F8
07C000FC
07C000FC
07C000FC
07C0007C
07C0007C
07C0007C
07C0007C
07C0007C
07C0007C
07C0007C
07C0007C
07C0007C
07C0007C
07C0007C
07C0007C
07C0007C
07C000FC
07C000FC
07C000FC
07C000F8
07C001F8
07C001F8
07C001F0
07C003F0
07C003E0
07C007E0
07C01FC0
07C07F80
7FFFFF00
7FFFFC00
7FFFF000
00000000
00000000
00000000
00000000
00000000
00000000
00000000
00000000
00000000
00000000
00000000
00000000
00000000
00000000
ENDCHAR

STARTCHAR CODE069
ENCODING 69
SWIDTH 451 0
DWIDTH 32 0
BBX 32 64 0 -6
BITMAP
00000000
00000000
00000000
00000000
00000000
00000000
00000000
7FFFFFF0
7FFFFFF0
7FFFFFF0
0FC003F0
07C000F0
07C00070
07C00070
07C00030
07C00030
07C00030
07C00000
07C00000
07C00000
07C00000
07C000C0
07C000C0
07C000C0
07C000C0
07C001C0
07FFFFC0
07FFFFC0
07FFFFC0
07FFFFC0
07C001C0
07C000C0
07C000C0
07C000C0
07C000C0
07C00000
07C00000
07C00000
07C00000
07C00018
07C00018
07C00018
07C00038
07C00038
07C00078
07C000F8
0FC003F8
7FFFFFF8
7FFFFFF8
7FFFFFF8
00000000
00000000
00000000
00000000
00000000
00000000
00000000
00000000
00000000
00000000
00000000
00000000
00000000
00000000
ENDCHAR

STARTCHAR CODE070
ENCODING 70
SWIDTH 451 0
DWIDTH 32 0
BBX 32 64 0 -6
BITMAP
00000000
00000000
00000000
00000000
00000000
00000000
00000000
7FFFFFFC
7FFFFFFC
7FFFFFFC
0FC000FC
07C0003C
07C0001C
07C0001C
07C0000C
07C0000C
07C0000C
07C00000
07C00000
07C00000
07C00000
07C00060
07C00060
07C00060
07C00060
07C000E0
07FFFFE0
07FFFFE0
07FFFFE0
07FFFFE0
07C000E0
07C00060
07C00060
07C00060
07C00060
07C00000
07C00000
07C00000
07C00000
07C00000
07C00000
07C00000
07C00000
07C00000
07C00000
07C00000
0FE00000
7FFC0000
7FFC0000
7FFC0000
00000000
00000000
00000000
00000000
00000000
00000000
00000000
00000000
00000000
00000000
00000000
00000000
00000000
00000000
ENDCHAR

STARTCHAR CODE071
ENCODING 71
SWIDTH 451 0
DWIDTH 32 0
BBX 32 64 0 -6
BITMAP
00000000
00000000
00000000
00000000
00000018
000FF818
003FFE38
00FFFFB8
01FE3FF8
03F80FF8
07E003F8
0FC001F8
0F8000F8
1F8000F8
1F000078
3F000078
3F000038
3E000038
7E000018
7E000000
7E000000
FC000000
FC000000
FC000000
FC000000
FC000FFF
FC000FFF
FC000FFF
FC0000F8
FC0000F8
FC0000F8
FC0000F8
FC0000F8
7C0000F8
7E0000F8
7E0000F8
7E0000F8
7E0000F8
3F0000F8
3F0000F8
3F0000F8
1F8000F8
1F8001F8
0FC001F8
0FE003F0
07F807F0
03FE1FE0
01FFFFC0
007FFF00
000FFC00
00000000
00000000
00000000
00000000
00000000
00000000
00000000
00000000
00000000
00000000
00000000
00000000
00000000
00000000
ENDCHAR

STARTCHAR CODE072
ENCODING 72
SWIDTH 451 0
DWIDTH 32 0
BBX 32 64 0 -6
BITMAP
00000000
00000000
00000000
00000000
00000000
00000000
7FF00FFE
7FF00FFE
7FF00FFE
1FC003F8
0F8001F0
0F8001F0
0F8001F0
0F8001F0
0F8001F0
0F8001F0
0F8001F0
0F8001F0
0F8001F0
0F8001F0
0F8001F0
0F8001F0
0F8001F0
0F8001F0
0F8001F0
0F8001F0
0FFFFFF0
0FFFFFF0
0FFFFFF0
0FFFFFF0
0F8001F0
0F8001F0
0F8001F0
0F8001F0
0F8001F0
0F8001F0
0F8001F0
0F8001F0
0F8001F0
0F8001F0
0F8001F0
0F8001F0
0F8001F0
0F8001F0
0F8001F0
0F8001F0
1FC003F8
7FF00FFE
7FF00FFE
7FF00FFE
00000000
00000000
00000000
00000000
00000000
00000000
00000000
00000000
00000000
00000000
00000000
00000000
00000000
00000000
ENDCHAR

STARTCHAR CODE073
ENCODING 73
SWIDTH 451 0
DWIDTH 32 0
BBX 32 64 0 -6
BITMAP
00000000
00000000
00000000
00000000
00000000
00000000
003FFE00
003FFE00
003FFE00
0007F000
0003E000
0003E000
0003E000
0003E000
0003E000
0003E000
0003E000
0003E000
0003E000
0003E000
0003E000
0003E000
0003E000
0003E000
0003E000
0003E000
0003E000
0003E000
0003E000
0003E000
0003E000
0003E000
0003E000
0003E000
0003E000
0003E000
0003E000
0003E000
0003E000
0003E000
0003E000
0003E000
0003E000
0003E000
0003E000
0003E000
0007F000
003FFE00
003FFE00
003FFE00
00000000
00000000
00000000
00000000
00000000
00000000
00000000
00000000
00000000
00000000
00000000
00000000
00000000
00000000
ENDCHAR

STARTCHAR CODE074
ENCODING 74
SWIDTH 451 0
DWIDTH 32 0
BBX 32 64 0 -6
BITMAP
00000000
00000000
00000000
00000000
00000000
00000000
000FFF80
000FFF80
000FFF80
0001FC00
0000F800
0000F800
0000F800
0000F800
0000F800
0000F800
0000F800
0000F800
0000F800
0000F800
0000F800
0000F800
0000F800
0000F800
0000F800
0000F800
0000F800
0000F800
0000F800
0000F800
0000F800
0000F800
0000F800
0000F800
0000F800
0000F800
0000F800
0000F800
0000F800
0000F800
0000F800
0000F800
0000F800
03C0F800
07E0F800
07E1F800
07F1F000
07FFF000
03FFE000
01FFC000
007F8000
00000000
00000000
00000000
00000000
00000000
00000000
00000000
00000000
00000000
00000000
00000000
00000000
00000000
ENDCHAR

STARTCHAR CODE075
ENCODING 75
SWIDTH 451 0
DWIDTH 32 0
BBX 32 64 0 -6
BITMAP
00000000
00000000
00000000
00000000
00000000
00000000
00000000
7FF03FFC
7FF03FFC
7FF03FFC
1FC003E0
0F8007C0
0F800F80
0F801F00
0F803E00
0F807C00
0F80F800
0F80F000
0F81E000
0F83E000
0F87C000
0F8F8000
0F9F0000
0FBE0000
0FFE0000
0FFC0000
0FFE0000
0FFF0000
0FFF0000
0FFF8000
0FDFC000
0F8FC000
0F8FE000
0F87F000
0F83F000
0F83F800
0F81FC00
0F80FC00
0F80FE00
0F807F00
0F803F00
0F803F80
0F801FC0
0F800FC0
0F800FE0
0F8007F0
1FC003F8
7FF03FFE
7FF03FFE
7FF03FFE
00000000
00000000
00000000
00000000
00000000
00000000
00000000
00000000
00000000
00000000
00000000
00000000
00000000
00000000
ENDCHAR

STARTCHAR CODE076
ENCODING 76
SWIDTH 451 0
DWIDTH 32 0
BBX 32 64 0 -6
BITMAP
00000000
00000000
00000000
00000000
00000000
00000000
00000000
7FFC0000
7FFC0000
7FFC0000
0FE00000
07C00000
07C00000
07C00000
07C00000
07C00000
07C00000
07C00000
07C00000
07C00000
07C00000
07C00000
07C00000
07C00000
07C00000
07C00000
07C00000
07C00000
07C00000
07C00000
07C00000
07C00000
07C00000
07C00000
07C00000
07C00000
07C00000
07C00000
07C00000
07C00000
07C0000C
07C0000C
07C0001C
07C0001C
07C0003C
07C0007C
0FC001FC
7FFFFFFC
7FFFFFFC
7FFFFFFC
00000000
00000000
00000000
00000000
00000000
00000000
00000000
00000000
00000000
00000000
00000000
00000000
00000000
00000000
ENDCHAR

STARTCHAR CODE077
ENCODING 77
SWIDTH 451 0
DWIDTH 32 0
BBX 32 64 0 -6
BITMAP
00000000
00000000
00000000
00000000
00000000
00000000
00000000
FF8001FF
FF8001FF
FF8001FF
3F8003FC
1FC003F8
1FC003F8
1FC003F8
1FC007F8
1FE007F8
1FE007F8
1FE007F8
1FE00FF8
1FF00FF8
1FF00EF8
1FF00EF8
1FF01EF8
1FF81EF8
1EF81CF8
1EF81CF8
1EF83CF8
1EFC3CF8
1E7C38F8
1E7C38F8
1E7C78F8
1E7E78F8
1E3E70F8
1E3E70F8
1E3FF0F8
1E3FF0F8
1E1FE0F8
1E1FE0F8
1E1FE0F8
1E1FE0F8
1E0FC0F8
1E0FC0F8
1E0FC0F8
1E0FC0F8
1E0780F8
1E0780F8
3F0781FC
FFC787FF
FFC307FF
FFC307FF
00000000
00000000
00000000
00000000
00000000
00000000
00000000
00000000
00000000
00000000
00000000
00000000
00000000
00000000
ENDCHAR

STARTCHAR CODE078
ENCODING 78
SWIDTH 451 0
DWIDTH 32 0
BBX 32 64 0 -6
BITMAP
00000000
00000000
00000000
00000000
00000000
00000000
00000000
7F8003FF
7FC003FF
7FC003FF
1FE000FC
0FE00078
0FF00078
0FF00078
0FF80078
0FF80078
0FFC0078
0FFC0078
0F7E0078
0F7E0078
0F3F0078
0F3F0078
0F1F8078
0F1F8078
0F0FC078
0F0FC078
0F07E078
0F07E078
0F03F078
0F03F078
0F01F878
0F01F878
0F00FC78
0F00FC78
0F007E78
0F007E78
0F003F78
0F003F78
0F001FF8
0F001FF8
0F000FF8
0F000FF8
0F0007F8
0F0007F8
0F0003F8
0F0003F8
1F8001F8
7FE001F8
7FE000F8
7FE000F8
00000078
00000000
00000000
00000000
00000000
00000000
00000000
00000000
00000000
00000000
00000000
00000000
00000000
00000000
ENDCHAR

STARTCHAR CODE079
ENCODING 79
SWIDTH 451 0
DWIDTH 32 0
BBX 32 64 0 -6
BITMAP
00000000
00000000
00000000
00000000
00000000
00000000
001FF800
007FFE00
01FFFF80
03FC3FC0
07F00FE0
07E007E0
0FC003F0
0F8003F0
1F8001F8
1F0001F8
3F0000FC
3F0000FC
3E0000FC
7E00007E
7E00007E
7E00007E
7E00007E
7C00007E
7C00003E
7C00003E
7C00003E
7C00003E
7C00003E
7C00003E
7C00003E
7C00003E
7C00003E
7C00003E
7E00007E
7E00007E
7E00007E
3E00007C
3E00007C
3F0000FC
1F0000F8
1F8001F8
1F8001F8
0FC003F0
0FC003F0
07E007E0
03F00FC0
01FC3F80
00FFFF00
007FFE00
001FF800
00000000
00000000
00000000
00000000
00000000
00000000
00000000
00000000
00000000
00000000
00000000
00000000
00000000
ENDCHAR

STARTCHAR CODE080
ENCODING 80
SWIDTH 451 0
DWIDTH 32 0
BBX 32 64 0 -6
BITMAP
00000000
00000000
00000000
00000000
00000000
00000000
00000000
7FFFFC00
7FFFFF80
7FFFFFE0
0FC01FF0
07C007F8
07C001F8
07C000FC
07C000FC
07C0007E
07C0007E
07C0007E
07C0007E
07C0007E
07C0007E
07C0007E
07C0007E
07C000FC
07C000FC
07C001F8
07C003F8
07C00FF0
07C03FE0
07FFFFC0
07FFFF00
07FFF800
07C00000
07C00000
07C00000
07C00000
07C00000
07C00000
07C00000
07C00000
07C00000
07C00000
07C00000
07C00000
07C00000
07C00000
0FE00000
7FFC0000
7FFC0000
7FFC0000
00000000
00000000
00000000
00000000
00000000
00000000
00000000
00000000
00000000
00000000
00000000
00000000
00000000
00000000
ENDCHAR

STARTCHAR CODE081
ENCODING 81
SWIDTH 451 0
DWIDTH 32 0
BBX 32 64 0 -6
BITMAP
00000000
00000000
00000000
00000000
00000000
00000000
001FF800
007FFE00
01FFFF80
03FC3FC0
07F00FE0
07E007E0
0FC003F0
0F8003F0
1F8001F8
1F0001F8
3F0000FC
3F0000FC
3E0000FC
7E00007E
7E00007E
7E00007E
7E00007E
7C00007E
7C00003E
7C00003E
7C00003E
7C00003E
7C00003E
7C00003E
7C00003E
7C00003E
7C00003E
7C00003E
7E00007E
7E00007E
7E00007E
3E00007C
3E00007C
3F0000FC
1F0000F8
1F8001F8
1F8001F8
0FC003F0
0FE007F0
07F00FE0
03FC3FC0
01FFFF80
00FFFF00
003FFC00
000FF000
0007F800
0007F800
0003FC00
0003FC00
0001FE00
0001FF00
0000FF80
00007FC0
00003FF0
00000FFC
000001FC
00000000
00000000
ENDCHAR

STARTCHAR CODE082
ENCODING 82
SWIDTH 451 0
DWIDTH 32 0
BBX 32 64 0 -6
BITMAP
00000000
00000000
00000000
00000000
00000000
00000000
00000000
FFFFFE00
FFFFFF80
FFFFFFC0
1F803FE0
0F800FF0
0F8003F0
0F8001F8
0F8001F8
0F8000FC
0F8000FC
0F8000FC
0F8000FC
0F8000FC
0F8000FC
0F8000FC
0F8001F8
0F8001F8
0F8003F0
0F8007F0
0F801FE0
0FFFFFC0
0FFFFF80
0FFFFE00
0FFFF800
0F81F800
0F80FC00
0F80FC00
0F807E00
0F807E00
0F803F00
0F803F00
0F801F80
0F801F80
0F800FC0
0F800FC0
0F8007E0
0F8007E0
0F8003F0
0F8003F0
1FC001F8
FFF801FF
FFF800FF
FFF800FF
00000000
00000000
00000000
00000000
00000000
00000000
00000000
00000000
00000000
00000000
00000000
00000000
00000000
00000000
ENDCHAR

STARTCHAR CODE083
ENCODING 83
SWIDTH 451 0
DWIDTH 32 0
BBX 32 64 0 -6
BITMAP
00000000
00000000
00000000
00000000
00000000
00000000
001FF838
00FFFF38
03FFFFF8
0FFFFFF8
1FF00FF8
1FC003F8
3F8000F8
3F00007C
3F00003C
3E00003C
3E00001C
3F00001C
3F00000C
3F800000
1FC00000
1FE00000
0FF80000
07FE0000
03FF8000
01FFE000
00FFF800
003FFE00
001FFF00
0007FF80
0001FFC0
00007FE0
00001FF0
000007F0
000003F8
000001F8
000000FC
300000FC
3000007C
3800007C
3800007C
3C00007C
3C0000FC
3E0000FC
3F0001F8
3FC003F8
3FF00FF0
3FFFFFE0
3DFFFFC0
387FFF00
380FF800
00000000
00000000
00000000
00000000
00000000
00000000
00000000
00000000
00000000
00000000
00000000
00000000
00000000
ENDCHAR

STARTCHAR CODE084
ENCODING 84
SWIDTH 451 0
DWIDTH 32 0
BBX 32 64 0 -6
BITMAP
00000000
00000000
00000000
00000000
00000000
00000000
00000000
7FFFFFFE
7FFFFFFE
7FFFFFFE
7F03E0FE
7C03E03E
7803E01E
7803E01E
7003E00E
7003E00E
7003E00E
6003E006
6003E006
0003E000
0003E000
0003E000
0003E000
0003E000
0003E000
0003E000
0003E000
0003E000
0003E000
0003E000
0003E000
0003E000
0003E000
0003E000
0003E000
0003E000
0003E000
0003E000
0003E000
0003E000
0003E000
0003E000
0003E000
0003E000
0003E000
0003E000
0007F000
007FFF00
007FFF00
007FFF00
00000000
00000000
00000000
00000000
00000000
00000000
00000000
00000000
00000000
00000000
00000000
00000000
00000000
00000000
ENDCHAR

STARTCHAR CODE085
ENCODING 85
SWIDTH 451 0
DWIDTH 32 0
BBX 32 64 0 -6
BITMAP
00000000
00000000
00000000
00000000
00000000
00000000
00000000
FFF003FF
FFF003FF
FFF003FF
3FC000FC
1F800078
1F800078
1F800078
1F800078
1F800078
1F800078
1F800078
1F800078
1F800078
1F800078
1F800078
1F800078
1F800078
1F800078
1F800078
1F800078
1F800078
1F800078
1F800078
1F800078
1F800078
1F800078
1F800078
1F800078
1F800078
1F800078
1F800078
1F800078
1F800078
1F800078
1F800078
0FC000F8
0FC000F0
0FC001F0
07E003E0
07F80FE0
03FFFFC0
01FFFF80
00FFFF00
003FFC00
00000000
00000000
00000000
00000000
00000000
00000000
00000000
00000000
00000000
00000000
00000000
00000000
00000000
ENDCHAR

STARTCHAR CODE086
ENCODING 86
SWIDTH 451 0
DWIDTH 32 0
BBX 32 64 0 -6
BITMAP
00000000
00000000
00000000
00000000
00000000
00000000
00000000
FFF003FF
FFF003FF
FFF003FF
1F000078
1F000070
1F8000F0
0F8000F0
0F8000E0
0FC000E0
07C001E0
07C001E0
07E001C0
03E001C0
03E003C0
03F003C0
01F00380
01F00380
01F80780
00F80780
00F80700
00FC0700
007C0F00
007C0F00
007E0E00
003E0E00
003E1E00
003F1E00
001F1C00
001F1C00
001FBC00
000FBC00
000FB800
000FB800
0007F800
0007F800
0007F000
0003F000
0003F000
0003F000
0001E000
0001E000
0001E000
0000C000
0000C000
00000000
00000000
00000000
00000000
00000000
00000000
00000000
00000000
00000000
00000000
00000000
00000000
00000000
ENDCHAR

STARTCHAR CODE087
ENCODING 87
SWIDTH 451 0
DWIDTH 32 0
BBX 32 64 0 -6
BITMAP
00000000
00000000
00000000
00000000
00000000
00000000
00000000
FF9FF0FF
FF9FF0FF
FF9FF0FF
3E07C01C
3E07C01C
3E07C01C
1F03E03C
1F03E03C
1F03E038
1F03E038
1F03E038
0F81F078
0F83F078
0F83F070
0F83F070
0F83F070
07C3F8F0
07C7F8F0
07C7F8E0
07C7F8E0
07C7F8E0
03E77CE0
03EF7DE0
03EF7DE0
03EE7DC0
03EE7DC0
01FE3FC0
01FE3FC0
01FE3FC0
01FC3F80
01FC3F80
00FC1F80
00FC1F80
00FC1F80
00F81F00
00F81F00
00F81F00
00780F00
00780F00
00700E00
00700E00
00700E00
00700E00
00700E00
00000000
00000000
00000000
00000000
00000000
00000000
00000000
00000000
00000000
00000000
00000000
00000000
00000000
ENDCHAR

STARTCHAR CODE088
ENCODING 88
SWIDTH 451 0
DWIDTH 32 0
BBX 32 64 0 -6
BITMAP
00000000
00000000
00000000
00000000
00000000
00000000
00000000
7FFC0FFF
7FFC0FFF
7FFC0FFF
07E001F0
07E001E0
03F003C0
03F003C0
01F80780
01F80780
00FC0F00
00FC0F00
007E1E00
007E1E00
003F3C00
003F3C00
001FF800
001FF800
000FF000
000FF000
0007E000
0007E000
0007F000
000FF000
000FF800
001FF800
001EFC00
003CFC00
003C7E00
00787E00
00783F00
00F03F00
00F01F80
01E01F80
01E00FC0
03C00FC0
03C007E0
078007E0
078003F0
0F0003F0
0F0001F8
7FF01FFF
7FF01FFF
7FF01FFF
00000000
00000000
00000000
00000000
00000000
00000000
00000000
00000000
00000000
00000000
00000000
00000000
00000000
00000000
ENDCHAR

STARTCHAR CODE089
ENCODING 89
SWIDTH 451 0
DWIDTH 32 0
BBX 32 64 0 -6
BITMAP
00000000
00000000
00000000
00000000
00000000
00000000
00000000
FFF003FF
FFF003FF
FFF003FF
1F800078
0FC000F0
0FC000F0
07E001E0
07E001E0
03F003C0
03F003C0
01F80780
01F80780
00FC0F00
00FC0F00
007E1E00
007E1E00
003F3C00
003F3C00
001FF800
001FF800
000FF000
000FF000
0007E000
0007E000
0003E000
0003E000
0003E000
0003E000
0003E000
0003E000
0003E000
0003E000
0003E000
0003E000
0003E000
0003E000
0003E000
0003E000
0003E000
0007F000
007FFF00
007FFF00
007FFF00
00000000
00000000
00000000
00000000
00000000
00000000
00000000
00000000
00000000
00000000
00000000
00000000
00000000
00000000
ENDCHAR

STARTCHAR CODE090
ENCODING 90
SWIDTH 451 0
DWIDTH 32 0
BBX 32 64 0 -6
BITMAP
00000000
00000000
00000000
00000000
00000000
00000000
00000000
0FFFFFF8
0FFFFFF8
0FFFFFF8
0FC003F0
0F0003F0
0F0007E0
0E0007E0
0E000FC0
0E000FC0
0E001F80
00001F80
00003F00
00003F00
00007E00
00007E00
0000FC00
0000FC00
0001F800
0001F800
0003F000
0003F000
0007E000
0007E000
000FC000
000FC000
001F8000
001F8000
003F0000
003F0000
007E0000
007E0000
00FC0000
01FC0000
01F80070
03F80070
03F00070
07F00070
0FE000F0
0FC000F0
1FC003F0
1FFFFFF0
1FFFFFF0
1FFFFFF0
00000000
00000000
00000000
00000000
00000000
00000000
00000000
00000000
00000000
00000000
00000000
00000000
00000000
00000000
ENDCHAR

STARTCHAR CODE091
ENCODING 91
SWIDTH 451 0
DWIDTH 32 0
BBX 32 64 0 -6
BITMAP
00000000
00000000
00000000
00000000
00000000
00000000
003FFC00
003FFC00
003FFC00
003FFC00
003E0000
003E0000
003E0000
003E0000
003E0000
003E0000
003E0000
003E0000
003E0000
003E0000
003E0000
003E0000
003E0000
003E0000
003E0000
003E0000
003E0000
003E0000
003E0000
003E0000
003E0000
003E0000
003E0000
003E0000
003E0000
003E0000
003E0000
003E0000
003E0000
003E0000
003E0000
003E0000
003E0000
003E0000
003E0000
003E0000
003E0000
003E0000
003E0000
003E0000
003E0000
003E0000
003E0000
003E0000
003E0000
003FFC00
003FFC00
003FFC00
003FFC00
00000000
00000000
00000000
00000000
00000000
ENDCHAR

STARTCHAR CODE092
ENCODING 92
SWIDTH 451 0
DWIDTH 32 0
BBX 32 64 0 -6
BITMAP
00000000
00000000
00000000
00000000
00000000
00000000
00000000
FF9FF0FF
FF9FF0FF
FF9FF0FF
3E07C01C
3E07C01C
3E07C01C
1F03E03C
1F03E03C
1F03E038
1F03E038
1F03E038
FFFFFFFF
FFFFFFFF
FFFFFFFF
0F83F070
0F83F070
07C3F8F0
07C7F8F0
07C7F8E0
07C7F8E0
07C7F8E0
03E77CE0
03EF7DE0
03EF7DE0
FFFFFFFF
FFFFFFFF
FFFFFFFF
01FE3FC0
01FE3FC0
01FC3F80
01FC3F80
00FC1F80
00FC1F80
00FC1F80
00F81F00
00F81F00
00F81F00
00780F00
00780F00
00700E00
00700E00
00700E00
00700E00
00700E00
00000000
00000000
00000000
00000000
00000000
00000000
00000000
00000000
00000000
00000000
00000000
00000000
00000000
ENDCHAR

STARTCHAR CODE093
ENCODING 93
SWIDTH 451 0
DWIDTH 32 0
BBX 32 64 0 -6
BITMAP
00000000
00000000
00000000
00000000
00000000
00000000
003FFE00
003FFE00
003FFE00
003FFE00
00003E00
00003E00
00003E00
00003E00
00003E00
00003E00
00003E00
00003E00
00003E00
00003E00
00003E00
00003E00
00003E00
00003E00
00003E00
00003E00
00003E00
00003E00
00003E00
00003E00
00003E00
00003E00
00003E00
00003E00
00003E00
00003E00
00003E00
00003E00
00003E00
00003E00
00003E00
00003E00
00003E00
00003E00
00003E00
00003E00
00003E00
00003E00
00003E00
00003E00
00003E00
00003E00
00003E00
00003E00
00003E00
003FFE00
003FFE00
003FFE00
003FFE00
00000000
00000000
00000000
00000000
00000000
ENDCHAR

STARTCHAR CODE094
ENCODING 94
SWIDTH 451 0
DWIDTH 32 0
BBX 32 64 0 -6
BITMAP
00000000
00000000
00000000
00000000
00000000
00000000
0003C000
0003C000
0007E000
000FF000
000FF000
001FF800
003FFC00
003FFC00
007E7E00
00FC3F00
01F81F80
01F00F80
03E007C0
07C003E0
0F8001F0
0F0000F0
1E000078
3C00003C
3800001C
00000000
00000000
00000000
00000000
00000000
00000000
00000000
00000000
00000000
00000000
00000000
00000000
00000000
00000000
00000000
00000000
00000000
00000000
00000000
00000000
00000000
00000000
00000000
00000000
00000000
00000000
00000000
00000000
00000000
00000000
00000000
00000000
00000000
00000000
00000000
00000000
00000000
00000000
00000000
ENDCHAR

STARTCHAR CODE095
ENCODING 95
SWIDTH 451 0
DWIDTH 32 0
BBX 32 64 0 -6
BITMAP
00000000
00000000
00000000
00000000
00000000
00000000
00000000
00000000
00000000
00000000
00000000
00000000
00000000
00000000
00000000
00000000
00000000
00000000
00000000
00000000
00000000
00000000
00000000
00000000
00000000
00000000
00000000
00000000
00000000
00000000
00000000
00000000
00000000
00000000
00000000
00000000
00000000
00000000
00000000
00000000
00000000
00000000
00000000
00000000
00000000
00000000
00000000
00000000
00000000
00000000
00000000
00000000
00000000
7FFFFFFE
7FFFFFFE
7FFFFFFE
7FFFFFFE
7FFFFFFE
00000000
00000000
00000000
00000000
00000000
00000000
ENDCHAR

STARTCHAR CODE096
ENCODING 96
SWIDTH 451 0
DWIDTH 32 0
BBX 32 64 0 -6
BITMAP
00000000
00000000
00000000
00000000
00000000
003C0000
007E0000
007F0000
007F0000
007F8000
003F8000
001FC000
000FC000
0007E000
0003E000
0001F000
0000F000
00007800
00003800
00001800
00000000
00000000
00000000
00000000
00000000
00000000
00000000
00000000
00000000
00000000
00000000
00000000
00000000
00000000
00000000
00000000
00000000
00000000
00000000
00000000
00000000
00000000
00000000
00000000
00000000
00000000
00000000
00000000
00000000
00000000
00000000
00000000
00000000
00000000
00000000
00000000
00000000
00000000
00000000
00000000
00000000
00000000
00000000
00000000
ENDCHAR

STARTCHAR CODE097
ENCODING 97
SWIDTH 451 0
DWIDTH 32 0
BBX 32 64 0 -6
BITMAP
00000000
00000000
00000000
00000000
00000000
00000000
00000000
00000000
00000000
00000000
00000000
00000000
00000000
00000000
00000000
00000000
00000000
00000000
00000000
00000000
007FF800
01FFFE00
03FFFF00
07F07F80
0FC01F80
0FC00FC0
0FE00FC0
0FE007C0
0FE007C0
07C007C0
000007C0
00001FC0
0000FFC0
0007FFC0
003FF7C0
00FF87C0
01FE07C0
03F807C0
07E007C0
0FC007C0
0F8007C0
1F8007C0
1F0007C0
1F000FC0
1F801FC0
1FC07FEC
0FF1FFFC
0FFFFBFC
07FFF1F8
03FFC1F0
00FE00E0
00000000
00000000
00000000
00000000
00000000
00000000
00000000
00000000
00000000
00000000
00000000
00000000
00000000
ENDCHAR

STARTCHAR CODE098
ENCODING 98
SWIDTH 451 0
DWIDTH 32 0
BBX 32 64 0 -6
BITMAP
00000000
00000000
00000000
00000000
00000000
01C00000
07C00000
1FC00000
7FC00000
7FC00000
7FC00000
0FC00000
07C00000
07C00000
07C00000
07C00000
07C00000
07C00000
07C00000
07C00000
07C3FC00
07CFFF00
07DFFF80
07FFFFC0
07FC1FE0
07F007E0
07E003F0
07E001F0
07C001F0
07C000F8
07C000F8
07C000F8
07C000F8
07C000F8
07C000F8
07C000F8
07C000F8
07C000F8
07C000F8
07C000F8
07C000F8
07C000F0
07C001F0
07C001F0
07C003E0
07E007E0
03F81FC0
03FFFF80
01FFFF00
007FFC00
001FF000
00000000
00000000
00000000
00000000
00000000
00000000
00000000
00000000
00000000
00000000
00000000
00000000
00000000
ENDCHAR

STARTCHAR CODE099
ENCODING 99
SWIDTH 451 0
DWIDTH 32 0
BBX 32 64 0 -6
BITMAP
00000000
00000000
00000000
00000000
00000000
00000000
00000000
00000000
00000000
00000000
00000000
00000000
00000000
00000000
00000000
00000000
00000000
00000000
00000000
00000000
0007FC00
003FFF00
00FFFFC0
01FFFFE0
03F80FF0
07E007F0
07C007F0
0F8007F0
0F8007F0
0F0003E0
1F000000
1F000000
1E000000
1E000000
1E000000
1E000000
1F000000
1F000000
1F000000
1F800000
0F800018
0FC00038
0FE00078
07F001F8
07FC07F0
03FFFFF0
03FFFFE0
01FFFFC0
00FFFF80
003FFE00
0007F000
00000000
00000000
00000000
00000000
00000000
00000000
00000000
00000000
00000000
00000000
00000000
00000000
00000000
ENDCHAR

STARTCHAR CODE100
ENCODING 100
SWIDTH 451 0
DWIDTH 32 0
BBX 32 64 0 -6
BITMAP
00000000
00000000
00000000
00000000
00000000
000001C0
000007C0
00001FC0
00007FC0
00007FC0
00007FC0
00000FC0
000007C0
000007C0
000007C0
000007C0
000007C0
000007C0
000007C0
000007C0
007F87C0
01FFE7C0
03FFF7C0
07FFFFC0
0FF07FC0
0FC01FC0
1F800FC0
1F000FC0
1F0007C0
3E0007C0
3E0007C0
3E0007C0
3E0007C0
3E0007C0
3E0007C0
3E0007C0
3E0007C0
3E0007C0
3E0007C0
3E0007C0
3E0007C0
1E0007C0
1F0007C0
1F000FC0
0F800FE0
0FC01FFC
07F07FFC
03FFFFFC
01FFFBF0
007FF3C0
001FC300
00000000
00000000
00000000
00000000
00000000
00000000
00000000
00000000
00000000
00000000
00000000
00000000
00000000
ENDCHAR

STARTCHAR CODE101
ENCODING 101
SWIDTH 451 0
DWIDTH 32 0
BBX 32 64 0 -6
BITMAP
00000000
00000000
00000000
00000000
00000000
00000000
00000000
00000000
00000000
00000000
00000000
00000000
00000000
00000000
00000000
00000000
00000000
00000000
00000000
00000000
0007F800
003FFE00
00FFFF80
01FFFFC0
03F81FE0
07E007E0
07C003F0
0F8001F0
0F0001F8
0F0000F8
1F0000F8
1FFFFFF8
1FFFFFF8
1FFFFFF8
1FFFFFF8
1E000000
1F000000
1F000000
1F000000
1F80000C
0F80001C
0FC0003C
0FE00078
07F001F8
07FC07F0
03FFFFF0
03FFFFE0
01FFFFC0
00FFFF80
003FFE00
0007F000
00000000
00000000
00000000
00000000
00000000
00000000
00000000
00000000
00000000
00000000
00000000
00000000
00000000
ENDCHAR

STARTCHAR CODE102
ENCODING 102
SWIDTH 451 0
DWIDTH 32 0
BBX 32 64 0 -6
BITMAP
00000000
00000000
00000000
00000000
00000000
00007E00
0001FF80
0003FFC0
0007CFC0
000F8FC0
000F8FC0
000F0FC0
001F0780
001F0000
001F0000
001F0000
001F0000
001F0000
001F0000
001F0000
001F0000
07FFFF80
07FFFF80
07FFFF80
07FFFF80
001F0000
001F0000
001F0000
001F0000
001F0000
001F0000
001F0000
001F0000
001F0000
001F0000
001F0000
001F0000
001F0000
001F0000
001F0000
001F0000
001F0000
001F0000
001F0000
001F0000
001F0000
003F8000
01FFF000
01FFF000
01FFF000
00000000
00000000
00000000
00000000
00000000
00000000
00000000
00000000
00000000
00000000
00000000
00000000
00000000
00000000
ENDCHAR

STARTCHAR CODE103
ENCODING 103
SWIDTH 451 0
DWIDTH 32 0
BBX 32 64 0 -6
BITMAP
00000000
00000000
00000000
00000000
00000000
00000000
00000000
00000000
00000000
00000000
00000000
00000000
00000000
00000000
00000000
00000000
00000000
00000000
00000000
001FF07C
007FFCFC
01FFFFFC
03FFFFFC
07F87FE0
07E01FC0
0FC00FE0
0FC007E0
0F8007E0
0F8003E0
0F8003E0
0F8003E0
0F8007E0
0FC007E0
0FC00FC0
07E01FC0
07F87F80
03FFFF80
01FFFF00
01FFFC00
03FFF000
07C00000
07800000
0F800000
0FC00000
0FFFE000
0FFFFE00
0FFFFFC0
07FFFFE0
07FFFFF0
0F81FFF0
1F000FF8
1E0001F8
3E0000F8
3C000078
3C000078
3E0000F8
3F8001F0
3FF007F0
1FFFFFE0
1FFFFFE0
0FFFFFC0
03FFFF00
007FF800
00000000
ENDCHAR

STARTCHAR CODE104
ENCODING 104
SWIDTH 451 0
DWIDTH 32 0
BBX 32 64 0 -6
BITMAP
00000000
00000000
00000000
00000000
00000000
01C00000
07C00000
1FC00000
7FC00000
7FC00000
7FC00000
0FC00000
07C00000
07C00000
07C00000
07C00000
07C00000
07C00000
07C00000
07C00000
07C7F800
07DFFE00
07FFFF00
07FFFF80
07FC3FC0
07F00FC0
07E007E0
07C007E0
07C003E0
07C003E0
07C003E0
07C003E0
07C003E0
07C003E0
07C003E0
07C003E0
07C003E0
07C003E0
07C003E0
07C003E0
07C003E0
07C003E0
07C003E0
07C003E0
07C003E0
07C003E0
0FC003F0
3FF00FFC
3FF00FFC
3FF00FFC
00000000
00000000
00000000
00000000
00000000
00000000
00000000
00000000
00000000
00000000
00000000
00000000
00000000
00000000
ENDCHAR

STARTCHAR CODE105
ENCODING 105
SWIDTH 451 0
DWIDTH 32 0
BBX 32 64 0 -6
BITMAP
00000000
00000000
00000000
00000000
00000000
0003E000
0007F000
0007F000
0007F000
0007F000
0007F000
0003E000
00000000
00000000
00000000
00000000
00000000
00000000
00000000
00007000
0001F000
0007F000
001FF000
001FF000
001FF000
0001F000
0001F000
0001F000
0001F000
0001F000
0001F000
0001F000
0001F000
0001F000
0001F000
0001F000
0001F000
0001F000
0001F000
0001F000
0001F000
0001F000
0001F000
0001F000
0001F000
0001F000
0003F800
001FFF00
001FFF00
001FFF00
00000000
00000000
00000000
00000000
00000000
00000000
00000000
00000000
00000000
00000000
00000000
00000000
00000000
00000000
ENDCHAR

STARTCHAR CODE106
ENCODING 106
SWIDTH 451 0
DWIDTH 32 0
BBX 32 64 0 -6
BITMAP
00000000
00000000
00000000
00000000
00000000
0003E000
0007F000
0007F000
0007F000
0007F000
0007F000
0003E000
00000000
00000000
00000000
00000000
00000000
00000000
00000000
00007000
0001F000
0007F000
001FF000
001FF000
001FF000
0001F000
0001F000
0001F000
0001F000
0001F000
0001F000
0001F000
0001F000
0001F000
0001F000
0001F000
0001F000
0001F000
0001F000
0001F000
0001F000
0001F000
0001F000
0001F000
0001F000
0001F000
0001F000
0001F000
0001F000
0001F000
0001F000
0001F000
0001F000
0001F000
0001F000
03C1F000
07E1F000
07E1F000
07E3E000
07FFE000
03FFC000
01FF8000
007E0000
00000000
ENDCHAR

STARTCHAR CODE107
ENCODING 107
SWIDTH 451 0
DWIDTH 32 0
BBX 32 64 0 -6
BITMAP
00000000
00000000
00000000
00000000
00000000
01C00000
07C00000
1FC00000
7FC00000
7FC00000
7FC00000
0FC00000
07C00000
07C00000
07C00000
07C00000
07C00000
07C00000
07C00000
07C00000
07C03FF0
07C03FF0
07C03FF0
07C03F80
07C07E00
07C1FC00
07C3F000
07CFE000
07DF8000
07FF0000
07FF0000
07FF8000
07EFC000
07C7C000
07C7E000
07C3F000
07C1F000
07C1F800
07C0FC00
07C07C00
07C07E00
07C03F00
07C01F00
07C01F80
07C00FC0
07C007C0
0FE007E0
3FF83FFC
3FF83FFC
3FF83FFC
00000000
00000000
00000000
00000000
00000000
00000000
00000000
00000000
00000000
00000000
00000000
00000000
00000000
00000000
ENDCHAR

STARTCHAR CODE108
ENCODING 108
SWIDTH 451 0
DWIDTH 32 0
BBX 32 64 0 -6
BITMAP
00000000
00000000
00000000
00000000
00000000
00007000
0001F000
0007F000
001FF000
001FF000
001FF000
0003F000
0001F000
0001F000
0001F000
0001F000
0001F000
0001F000
0001F000
0001F000
0001F000
0001F000
0001F000
0001F000
0001F000
0001F000
0001F000
0001F000
0001F000
0001F000
0001F000
0001F000
0001F000
0001F000
0001F000
0001F000
0001F000
0001F000
0001F000
0001F000
0001F000
0001F000
0001F000
0001F000
0001F000
0001F000
0003F800
001FFE00
001FFE00
001FFE00
00000000
00000000
00000000
00000000
00000000
00000000
00000000
00000000
00000000
00000000
00000000
00000000
00000000
00000000
ENDCHAR

STARTCHAR CODE109
ENCODING 109
SWIDTH 451 0
DWIDTH 32 0
BBX 32 64 0 -6
BITMAP
00000000
00000000
00000000
00000000
00000000
00000000
00000000
00000000
00000000
00000000
00000000
00000000
00000000
00000000
00000000
00000000
00000000
00000000
00000000
00000000
0E7C0F80
3FFF3FE0
FFFFFFF0
FFFFFFF0
FF8FF1F8
7F07E0F8
3E07E0F8
3E07C0F8
3E07C0F8
3E07C0F8
3E07C0F8
3E07C0F8
3E07C0F8
3E07C0F8
3E07C0F8
3E07C0F8
3E07C0F8
3E07C0F8
3E07C0F8
3E07C0F8
3E07C0F8
3E07C0F8
3E07C0F8
3E07C0F8
3E07C0F8
3E07C0F8
3E07C0F8
FF9FF3FE
FF9FF3FE
FF9FF3FE
00000000
00000000
00000000
00000000
00000000
00000000
00000000
00000000
00000000
00000000
00000000
00000000
00000000
00000000
ENDCHAR

STARTCHAR CODE110
ENCODING 110
SWIDTH 451 0
DWIDTH 32 0
BBX 32 64 0 -6
BITMAP
00000000
00000000
00000000
00000000
00000000
00000000
00000000
00000000
00000000
00000000
00000000
00000000
00000000
00000000
00000000
00000000
00000000
00000000
00000000
00000000
01C7FC00
07DFFF00
1FFFFF80
7FFFFFC0
7FFC1FC0
7FF007E0
0FE007E0
07E003E0
07C003E0
07C003E0
07C003E0
07C003E0
07C003E0
07C003E0
07C003E0
07C003E0
07C003E0
07C003E0
07C003E0
07C003E0
07C003E0
07C003E0
07C003E0
07C003E0
07C003E0
07C003E0
0FE007F0
3FF81FFC
3FF81FFC
3FF81FFC
00000000
00000000
00000000
00000000
00000000
00000000
00000000
00000000
00000000
00000000
00000000
00000000
00000000
00000000
ENDCHAR

STARTCHAR CODE111
ENCODING 111
SWIDTH 451 0
DWIDTH 32 0
BBX 32 64 0 -6
BITMAP
00000000
00000000
00000000
00000000
00000000
00000000
00000000
00000000
00000000
00000000
00000000
00000000
00000000
00000000
00000000
00000000
00000000
00000000
00000000
00000000
001FF800
007FFE00
01FFFF80
03FFFFC0
07F81FE0
0FE007F0
0FC003F0
1F8001F8
1F8001F8
3F0000FC
3F0000FC
3F0000FC
3E00007C
3E00007C
3E00007C
3E00007C
3E00007C
3E00007C
3F0000FC
3F0000FC
3F0000FC
1F8001F8
1F8001F8
0FC003F0
0FE007F0
07F81FE0
03FFFFC0
01FFFF80
007FFE00
001FF800
00000000
00000000
00000000
00000000
00000000
00000000
00000000
00000000
00000000
00000000
00000000
00000000
00000000
00000000
ENDCHAR

STARTCHAR CODE112
ENCODING 112
SWIDTH 451 0
DWIDTH 32 0
BBX 32 64 0 -6
BITMAP
00000000
00000000
00000000
00000000
00000000
00000000
00000000
00000000
00000000
00000000
00000000
00000000
00000000
00000000
00000000
00000000
00000000
00000000
00000000
00000000
0187F000
079FFC00
1FBFFF00
7FFFFF80
7FFC1FC0
7FF007E0
0FE003E0
07E001F0
07C001F0
07C000F0
07C000F8
07C000F8
07C000F8
07C000F8
07C000F8
07C000F8
07C000F8
07C000F8
07C000F8
07C000F8
07C000F8
07C001F8
07E001F0
07E003F0
07F007E0
07FC1FE0
07FFFFC0
07DFFF80
07CFFF00
07C3FC00
07C00000
07C00000
07C00000
07C00000
07C00000
07C00000
07C00000
07C00000
0FE00000
3FF80000
3FF80000
3FF80000
00000000
00000000
ENDCHAR

STARTCHAR CODE113
ENCODING 113
SWIDTH 451 0
DWIDTH 32 0
BBX 32 64 0 -6
BITMAP
00000000
00000000
00000000
00000000
00000000
00000000
00000000
00000000
00000000
00000000
00000000
00000000
00000000
00000000
00000000
00000000
00000000
00000000
00000000
00000000
000FE060
003FF8E0
00FFFDE0
01FFFFE0
03F83FE0
07E00FE0
07C007E0
0F8007E0
0F8003E0
0F0003E0
1F0003E0
1F0003E0
1F0003E0
1F0003E0
1F0003E0
1F0003E0
1F0003E0
1F0003E0
1F0003E0
1F0003E0
1F0003E0
1F8003E0
0F8007E0
0FC007E0
07E00FE0
07F83FE0
03FFFFE0
01FFFBE0
00FFF3E0
003FC3E0
000003E0
000003E0
000003E0
000003E0
000003E0
000003E0
000003E0
000003E0
000007F0
00001FFC
00001FFC
00001FFC
00000000
00000000
ENDCHAR

STARTCHAR CODE114
ENCODING 114
SWIDTH 451 0
DWIDTH 32 0
BBX 32 64 0 -6
BITMAP
00000000
00000000
00000000
00000000
00000000
00000000
00000000
00000000
00000000
00000000
00000000
00000000
00000000
00000000
00000000
00000000
00000000
00000000
00000000
00000000
00701F80
01F0FFC0
07F3FFC0
1FF7FFC0
1FFFFFC0
1FFF1FC0
03FC0F80
01F80000
01F00000
01F00000
01F00000
01F00000
01F00000
01F00000
01F00000
01F00000
01F00000
01F00000
01F00000
01F00000
01F00000
01F00000
01F00000
01F00000
01F00000
01F00000
03F80000
0FFE0000
0FFE0000
0FFE0000
00000000
00000000
00000000
00000000
00000000
00000000
00000000
00000000
00000000
00000000
00000000
00000000
00000000
00000000
ENDCHAR

STARTCHAR CODE115
ENCODING 115
SWIDTH 451 0
DWIDTH 32 0
BBX 32 64 0 -6
BITMAP
00000000
00000000
00000000
00000000
00000000
00000000
00000000
00000000
00000000
00000000
00000000
00000000
00000000
00000000
00000000
00000000
00000000
00000000
00000000
00000000
003FF000
00FFFCE0
03FFFEE0
07FFFFE0
07F83FE0
0FE00FE0
0FC003E0
0F8001E0
0F8000E0
0FC000E0
0FE000E0
07FC0000
07FF8000
03FFF000
00FFFE00
003FFF80
000FFFC0
0000FFE0
00001FE0
070007F0
070003F0
070001F0
078001F0
07C003F0
07F007F0
07FC1FE0
07FFFFE0
077FFFC0
073FFF00
000FFC00
00000000
00000000
00000000
00000000
00000000
00000000
00000000
00000000
00000000
00000000
00000000
00000000
00000000
00000000
ENDCHAR

STARTCHAR CODE116
ENCODING 116
SWIDTH 451 0
DWIDTH 32 0
BBX 32 64 0 -6
BITMAP
00000000
00000000
00000000
00000000
00000000
00000000
00000000
00000000
00000000
00000000
00000000
00000000
00060000
00060000
000E0000
000E0000
001E0000
003E0000
007E0000
01FE0000
07FFFC00
07FFFC00
07FFFC00
003E0000
003E0000
003E0000
003E0000
003E0000
003E0000
003E0000
003E0000
003E0000
003E0000
003E0000
003E0000
003E0000
003E0000
003E0000
003E0000
003E0000
003E0000
003E0000
003E0000
003E0180
003E0380
003F0F80
003FFF00
001FFE00
001FFC00
000FF800
0003E000
00000000
00000000
00000000
00000000
00000000
00000000
00000000
00000000
00000000
00000000
00000000
00000000
00000000
ENDCHAR

STARTCHAR CODE117
ENCODING 117
SWIDTH 451 0
DWIDTH 32 0
BBX 32 64 0 -6
BITMAP
00000000
00000000
00000000
00000000
00000000
00000000
00000000
00000000
00000000
00000000
00000000
00000000
00000000
00000000
00000000
00000000
00000000
00000000
00000000
00000000
3F800FE0
3F800FE0
1F8007E0
0F8003E0
0F8003E0
0F8003E0
0F8003E0
0F8003E0
0F8003E0
0F8003E0
0F8003E0
0F8003E0
0F8003E0
0F8003E0
0F8003E0
0F8003E0
0F8003E0
0F8003E0
0F8003E0
0F8003E0
0F8003E0
0F8003E0
0F8003E0
0FC007E0
0FC00FF0
07F03FFC
07FFFFFC
03FFFFFC
01FFFBF0
00FFE3C0
003F8300
00000000
00000000
00000000
00000000
00000000
00000000
00000000
00000000
00000000
00000000
00000000
00000000
00000000
ENDCHAR

STARTCHAR CODE118
ENCODING 118
SWIDTH 451 0
DWIDTH 32 0
BBX 32 64 0 -6
BITMAP
00000000
00000000
00000000
00000000
00000000
00000000
00000000
00000000
00000000
00000000
00000000
00000000
00000000
00000000
00000000
00000000
00000000
00000000
00000000
00000000
7FF003FE
7FF003FE
7FF003FE
1F800078
0F800070
0FC000F0
07C000F0
07E000E0
03E001E0
03F001E0
01F001C0
01F803C0
00F803C0
00FC0380
007C0780
007E0780
003E0700
003F0F00
001F0F00
001F8E00
000F9E00
000FDE00
0007FC00
0007FC00
0003FC00
0003F800
0001F800
0001F800
0000F000
0000F000
00006000
00000000
00000000
00000000
00000000
00000000
00000000
00000000
00000000
00000000
00000000
00000000
00000000
00000000
ENDCHAR

STARTCHAR CODE119
ENCODING 119
SWIDTH 451 0
DWIDTH 32 0
BBX 32 64 0 -6
BITMAP
00000000
00000000
00000000
00000000
00000000
00000000
00000000
00000000
00000000
00000000
00000000
00000000
00000000
00000000
00000000
00000000
00000000
00000000
00000000
00000000
FF9FF8FF
FF9FF8FF
FF9FF8FF
3E03E01C
3E03E01C
3E03E03C
3F03F03C
1F03F038
1F03F038
1F07F078
1F87F878
0F87F870
0F87F870
0F8FF8F0
0FCFFCF0
07CE7CE0
07CE7CE0
07DE7DE0
07FE7FE0
03FC3FC0
03FC3FC0
03FC3FC0
03FC3FC0
01F81F80
01F81F80
01F81F80
01F81F80
00F00F00
00F00F00
00F00F00
00F00F00
00000000
00000000
00000000
00000000
00000000
00000000
00000000
00000000
00000000
00000000
00000000
00000000
00000000
ENDCHAR

STARTCHAR CODE120
ENCODING 120
SWIDTH 451 0
DWIDTH 32 0
BBX 32 64 0 -6
BITMAP
00000000
00000000
00000000
00000000
00000000
00000000
00000000
00000000
00000000
00000000
00000000
00000000
00000000
00000000
00000000
00000000
00000000
00000000
00000000
00000000
1FF807FC
1FF807FC
1FF807FC
07F001F0
03F001E0
01F803C0
01FC07C0
00FC0780
007E0F00
007F1F00
003F1E00
001FBC00
001FFC00
000FF800
0007F000
0007F000
0007F800
000FF800
000FFC00
001EFE00
003E7E00
003C3F00
00783F80
00F81F80
00F00FC0
01E00FE0
03E007F0
1FF00FFC
1FF00FFC
1FF00FFC
00000000
00000000
00000000
00000000
00000000
00000000
00000000
00000000
00000000
00000000
00000000
00000000
00000000
00000000
ENDCHAR

STARTCHAR CODE121
ENCODING 121
SWIDTH 451 0
DWIDTH 32 0
BBX 32 64 0 -6
BITMAP
00000000
00000000
00000000
00000000
00000000
00000000
00000000
00000000
00000000
00000000
00000000
00000000
00000000
00000000
00000000
00000000
00000000
00000000
00000000
00000000
7FE003FF
7FE003FF
7FE003FF
0F800078
0FC00070
07C000F0
07E000F0
03E000E0
03F001E0
01F001E0
01F801C0
00F803C0
00FC03C0
007C0380
007E0780
003E0780
003F0700
001F0F00
001F8F00
000F8E00
000FDE00
0007DE00
0007FC00
0003FC00
0003FC00
0001F800
0001F800
0000F000
0000F000
0000F000
0000E000
0001E000
0001E000
0003C000
0003C000
00078000
03C78000
07EF0000
07FF0000
07FE0000
07FC0000
07F80000
03E00000
00000000
ENDCHAR

STARTCHAR CODE122
ENCODING 122
SWIDTH 451 0
DWIDTH 32 0
BBX 32 64 0 -6
BITMAP
00000000
00000000
00000000
00000000
00000000
00000000
00000000
00000000
00000000
00000000
00000000
00000000
00000000
00000000
00000000
00000000
00000000
00000000
00000000
00000000
07FFFFF0
07FFFFF0
07FFFFF0
07FFFFE0
07800FC0
07001FC0
06003F80
06003F00
00007E00
0000FE00
0000FC00
0001F800
0003F800
0003F000
0007E000
000FC000
001FC000
001F8000
003F0000
007E0000
007E0000
00FC0000
01F80060
03F80060
03F000E0
07E001E0
0FFFFFE0
1FFFFFE0
1FFFFFE0
1FFFFFE0
00000000
00000000
00000000
00000000
00000000
00000000
00000000
00000000
00000000
00000000
00000000
00000000
00000000
00000000
ENDCHAR

STARTCHAR CODE123
ENCODING 123
SWIDTH 451 0
DWIDTH 32 0
BBX 32 64 0 -6
BITMAP
00000000
00000000
00000000
00000000
00000000
00000000
00003800
0000F800
0001F000
0003E000
0003C000
0007C000
00078000
00078000
00078000
00078000
00078000
00078000
00078000
00078000
00078000
00078000
00078000
00078000
00078000
00078000
00078000
00078000
00078000
00078000
000F8000
000F0000
001F0000
003E0000
003E0000
001F0000
000F0000
000F8000
00078000
00078000
00078000
00078000
00078000
00078000
00078000
00078000
00078000
00078000
00078000
00078000
00078000
00078000
00078000
00078000
00078000
0007C000
0007C000
0003C000
0003E000
0001F000
0000F800
00003800
00000000
00000000
ENDCHAR

STARTCHAR CODE124
ENCODING 124
SWIDTH 451 0
DWIDTH 32 0
BBX 32 64 0 -6
BITMAP
00000000
00000000
00000000
00000000
00000000
00000000
0003E000
0003E000
0003E000
0003E000
0003E000
0003E000
0003E000
0003E000
0003E000
0003E000
0003E000
0003E000
0003E000
0003E000
0003E000
0003E000
0003E000
0003E000
0003E000
0003E000
0003E000
0003E000
0003E000
0003E000
0003E000
0003E000
0003E000
0003E000
0003E000
0003E000
0003E000
0003E000
0003E000
0003E000
0003E000
0003E000
0003E000
0003E000
0003E000
0003E000
0003E000
0003E000
0003E000
0003E000
0003E000
00000000
00000000
00000000
00000000
00000000
00000000
00000000
00000000
00000000
00000000
00000000
00000000
00000000
ENDCHAR

STARTCHAR CODE125
ENCODING 125
SWIDTH 451 0
DWIDTH 32 0
BBX 32 64 0 -6
BITMAP
00000000
00000000
00000000
00000000
00000000
00000000
001C0000
001F0000
000F8000
0007C000
0003C000
0003E000
0001E000
0001E000
0001E000
0001E000
0001E000
0001E000
0001E000
0001E000
0001E000
0001E000
0001E000
0001E000
0001E000
0001E000
0001E000
0001E000
0001E000
0001E000
0001F000
0000F000
0000F800
00007C00
00007C00
0000F800
0000F000
0001F000
0001E000
0001E000
0001E000
0001E000
0001E000
0001E000
0001E000
0001E000
0001E000
0001E000
0001E000
0001E000
0001E000
0001E000
0001E000
0001E000
0001E000
0003E000
0003E000
0003C000
0007C000
000F8000
001F0000
001C0000
00000000
00000000
ENDCHAR

STARTCHAR CODE126
ENCODING 126
SWIDTH 451 0
DWIDTH 32 0
BBX 32 64 0 -6
BITMAP
00000000
00000000
00000000
00000000
00000000
00000000
00000000
00000000
00000000
00000000
00000000
00000000
00000000
00000000
00000000
00000000
00000000
00000000
00000000
00000000
00000000
00000000
00000000
00000000
00000000
00000000
00000000
00FC0000
03FF001C
07FFC03C
0FFFF0FC
1FFFFFF8
3F1FFFF0
3C07FFE0
3801FFC0
00007F00
00000000
00000000
00000000
00000000
00000000
00000000
00000000
00000000
00000000
00000000
00000000
00000000
00000000
00000000
00000000
00000000
00000000
00000000
00000000
00000000
00000000
00000000
00000000
00000000
00000000
00000000
00000000
00000000
ENDCHAR

STARTCHAR CODE127
ENCODING 127
SWIDTH 451 0
DWIDTH 32 0
BBX 32 64 0 -6
BITMAP
00000000
00000000
00000000
00000000
00000000
00000000
00000000
00000000
00000000
00000000
00000000
00000000
00000000
00000000
00000000
00000000
00000000
00000000
00000000
00000000
00000000
00000000
00000000
00000000
00000000
00000000
00000000
00000000
00000000
00000000
00000000
00000000
00000000
00000000
00000000
00000000
00000000
00000000
00000000
00000000
00000000
00000000
00000000
00000000
00000000
00000000
00000000
00000000
00000000
00000000
00000000
00000000
00000000
00000000
00000000
00000000
00000000
00000000
00000000
00000000
00000000
00000000
00000000
00000000
ENDCHAR

STARTCHAR CODE128
ENCODING 128
SWIDTH 451 0
DWIDTH 32 0
BBX 32 64 0 -6
BITMAP
00000000
00000000
00000000
00000000
00000000
00000000
0003FC0C
000FFF0C
003FFFDC
007FFFFC
00FF87FC
01FE01FC
03FC007C
03F8003C
07F0001C
07F0001C
07E0000C
0FE0000C
0FE0000C
0FC00000
0FC00000
1FC00000
1FC00000
1F800000
1F800000
1F800000
1F800000
1F800000
1F800000
1F800000
1F800000
1F800000
1F800000
1F800000
1F800000
1FC00000
1FC00000
0FC00000
0FC00000
0FE00000
0FE00000
07E0000C
07F0001C
03F0003C
03F80078
01FC01F0
01FF07E0
00FFFFC0
007FFF80
003FFF00
000FFC00
0003E000
0007C000
000FE000
001FF000
003FF800
003CF800
00007800
0000F800
0001F800
0007F000
003FE000
003F8000
00000000
ENDCHAR

STARTCHAR CODE129
ENCODING 129
SWIDTH 451 0
DWIDTH 32 0
BBX 32 64 0 -6
BITMAP
00000000
00000000
00000000
00000000
00000000
00000000
00000000
00000000
00000000
00000000
00783C00
00FC7E00
00FC7E00
00FC7E00
00FC7E00
00783C00
00000000
00000000
00000000
00000000
3F800FE0
3F800FE0
1F8007E0
0F8003E0
0F8003E0
0F8003E0
0F8003E0
0F8003E0
0F8003E0
0F8003E0
0F8003E0
0F8003E0
0F8003E0
0F8003E0
0F8003E0
0F8003E0
0F8003E0
0F8003E0
0F8003E0
0F8003E0
0F8003E0
0F8003E0
0F8003E0
0FC007E0
0FC00FF0
07F03FFC
07FFFFFC
03FFFFFC
01FFFBF0
00FFE3C0
003F8300
00000000
00000000
00000000
00000000
00000000
00000000
00000000
00000000
00000000
00000000
00000000
00000000
00000000
ENDCHAR

STARTCHAR CODE130
ENCODING 130
SWIDTH 451 0
DWIDTH 32 0
BBX 32 64 0 -6
BITMAP
00000000
00000000
00000000
00000000
00000000
00000000
00003800
00007C00
00007C00
0000FC00
0000FC00
0001F800
0001F000
0003E000
0003C000
00078000
00070000
00060000
00000000
00000000
0007F800
003FFE00
00FFFF80
01FFFFC0
03F81FE0
07E007E0
07C003F0
0F8001F0
0F0001F8
0F0000F8
1F0000F8
1FFFFFF8
1FFFFFF8
1FFFFFF8
1FFFFFF8
1E000000
1F000000
1F000000
1F000000
1F80000C
0F80001C
0FC0003C
0FE00078
07F001F8
07FC07F0
03FFFFF0
03FFFFE0
01FFFFC0
00FFFF80
003FFE00
0007F000
00000000
00000000
00000000
00000000
00000000
00000000
00000000
00000000
00000000
00000000
00000000
00000000
00000000
ENDCHAR

STARTCHAR CODE131
ENCODING 131
SWIDTH 451 0
DWIDTH 32 0
BBX 32 64 0 -6
BITMAP
00000000
00000000
00000000
00000000
00000000
00000000
00078000
00078000
000FC000
000FC000
001FE000
001FE000
003FF000
003CF000
00787800
00703800
00601800
00000000
00000000
00000000
007FF800
01FFFE00
03FFFF00
07F07F80
0FC01F80
0FC00FC0
0FE00FC0
0FE007C0
0FE007C0
07C007C0
000007C0
00001FC0
0000FFC0
0007FFC0
003FF7C0
00FF87C0
01FE07C0
03F807C0
07E007C0
0FC007C0
0F8007C0
1F8007C0
1F0007C0
1F000FC0
1F801FC0
1FC07FEC
0FF1FFFC
0FFFFBFC
07FFF1F8
03FFC1F0
00FE00E0
00000000
00000000
00000000
00000000
00000000
00000000
00000000
00000000
00000000
00000000
00000000
00000000
00000000
ENDCHAR

STARTCHAR CODE132
ENCODING 132
SWIDTH 451 0
DWIDTH 32 0
BBX 32 64 0 -6
BITMAP
00000000
00000000
00000000
00000000
00000000
00000000
00000000
00000000
00000000
00000000
00783C00
00FC7E00
00FC7E00
00FC7E00
00FC7E00
00783C00
00000000
00000000
00000000
00000000
007FF800
01FFFE00
03FFFF00
07F07F80
0FC01F80
0FC00FC0
0FE00FC0
0FE007C0
0FE007C0
07C007C0
000007C0
00001FC0
0000FFC0
0007FFC0
003FF7C0
00FF87C0
01FE07C0
03F807C0
07E007C0
0FC007C0
0F8007C0
1F8007C0
1F0007C0
1F000FC0
1F801FC0
1FC07FEC
0FF1FFFC
0FFFFBFC
07FFF1F8
03FFC1F0
00FE00E0
00000000
00000000
00000000
00000000
00000000
00000000
00000000
00000000
00000000
00000000
00000000
00000000
00000000
ENDCHAR

STARTCHAR CODE133
ENCODING 133
SWIDTH 451 0
DWIDTH 32 0
BBX 32 64 0 -6
BITMAP
00000000
00000000
00000000
00000000
00000000
00000000
00380000
007C0000
007C0000
007E0000
007E0000
003F0000
001F0000
000F8000
00078000
0003C000
0001C000
0000C000
00000000
00000000
007FF800
01FFFE00
03FFFF00
07F07F80
0FC01F80
0FC00FC0
0FE00FC0
0FE007C0
0FE007C0
07C007C0
000007C0
00001FC0
0000FFC0
0007FFC0
003FF7C0
00FF87C0
01FE07C0
03F807C0
07E007C0
0FC007C0
0F8007C0
1F8007C0
1F0007C0
1F000FC0
1F801FC0
1FC07FEC
0FF1FFFC
0FFFFBFC
07FFF1F8
03FFC1F0
00FE00E0
00000000
00000000
00000000
00000000
00000000
00000000
00000000
00000000
00000000
00000000
00000000
00000000
00000000
ENDCHAR

STARTCHAR CODE134
ENCODING 134
SWIDTH 451 0
DWIDTH 32 0
BBX 32 64 0 -6
BITMAP
00000000
00000000
00000000
00000000
0007C000
001FF000
003FF800
003FF800
007C7C00
00783C00
00783C00
007C7C00
003FFC00
003FF800
001FF000
0007C000
00000000
00000000
00000000
00000000
007FF800
01FFFE00
03FFFF00
07F07F80
0FC01F80
0FC00FC0
0FE00FC0
0FE007C0
0FE007C0
07C007C0
000007C0
00001FC0
0000FFC0
0007FFC0
003FF7C0
00FF87C0
01FE07C0
03F807C0
07E007C0
0FC007C0
0F8007C0
1F8007C0
1F0007C0
1F000FC0
1F801FC0
1FC07FEC
0FF1FFFC
0FFFFBFC
07FFF1F8
03FFC1F0
00FE00E0
00000000
00000000
00000000
00000000
00000000
00000000
00000000
00000000
00000000
00000000
00000000
00000000
00000000
ENDCHAR

STARTCHAR CODE135
ENCODING 135
SWIDTH 451 0
DWIDTH 32 0
BBX 32 64 0 -6
BITMAP
00000000
00000000
00000000
00000000
00000000
00000000
00000000
00000000
00000000
00000000
00000000
00000000
00000000
00000000
00000000
00000000
00000000
00000000
00000000
00000000
0007FF00
001FFFC0
007FFFE0
00FE0FF0
01F807F0
03F003F8
03E003F8
07C003F8
07C001F8
0FC000F0
0F800000
1F800000
1F800000
1F800000
1F000000
1F000000
1F000000
1F800000
1F800000
1F800018
0FC00018
0FC00038
0FC00078
07E000F8
07F003F0
03FC1FF0
03FFFFE0
01FFFFC0
00FFFF80
003FFE00
000FF000
00070000
0007C000
000FF000
001FF800
001FF800
0000FC00
00007C00
00003C00
00007C00
0003F800
001FF000
001FC000
00000000
ENDCHAR

STARTCHAR CODE136
ENCODING 136
SWIDTH 451 0
DWIDTH 32 0
BBX 32 64 0 -6
BITMAP
00000000
00000000
00000000
00000000
00000000
00000000
0003C000
0003C000
0007E000
0007E000
000FF000
000FF000
001FF800
001E7800
003C3C00
00381C00
00300C00
00000000
00000000
00000000
0007F800
003FFE00
00FFFF80
01FFFFC0
03F81FE0
07E007E0
07C003F0
0F8001F0
0F0001F8
0F0000F8
1F0000F8
1FFFFFF8
1FFFFFF8
1FFFFFF8
1FFFFFF8
1E000000
1F000000
1F000000
1F000000
1F80000C
0F80001C
0FC0003C
0FE00078
07F001F8
07FC07F0
03FFFFF0
03FFFFE0
01FFFFC0
00FFFF80
003FFE00
0007F000
00000000
00000000
00000000
00000000
00000000
00000000
00000000
00000000
00000000
00000000
00000000
00000000
00000000
ENDCHAR

STARTCHAR CODE137
ENCODING 137
SWIDTH 451 0
DWIDTH 32 0
BBX 32 64 0 -6
BITMAP
00000000
00000000
00000000
00000000
00000000
00000000
00000000
00000000
00000000
00000000
00781E00
00FC3F00
00FC3F00
00FC3F00
00FC3F00
00781E00
00000000
00000000
00000000
00000000
0007F800
003FFE00
00FFFF80
01FFFFC0
03F81FE0
07E007E0
07C003F0
0F8001F0
0F0001F8
0F0000F8
1F0000F8
1FFFFFF8
1FFFFFF8
1FFFFFF8
1FFFFFF8
1E000000
1F000000
1F000000
1F000000
1F80000C
0F80001C
0FC0003C
0FE00078
07F001F8
07FC07F0
03FFFFF0
03FFFFE0
01FFFFC0
00FFFF80
003FFE00
0007F000
00000000
00000000
00000000
00000000
00000000
00000000
00000000
00000000
00000000
00000000
00000000
00000000
00000000
ENDCHAR

STARTCHAR CODE138
ENCODING 138
SWIDTH 451 0
DWIDTH 32 0
BBX 32 64 0 -6
BITMAP
00000000
00000000
00000000
00000000
00000000
00000000
00380000
007C0000
007C0000
007E0000
007E0000
003F0000
001F0000
000F8000
00078000
0003C000
0001C000
0000C000
00000000
00000000
0007F800
003FFE00
00FFFF80
01FFFFC0
03F81FE0
07E007E0
07C003F0
0F8001F0
0F0001F8
0F0000F8
1F0000F8
1FFFFFF8
1FFFFFF8
1FFFFFF8
1FFFFFF8
1E000000
1F000000
1F000000
1F000000
1F80000C
0F80001C
0FC0003C
0FE00078
07F001F8
07FC07F0
03FFFFF0
03FFFFE0
01FFFFC0
00FFFF80
003FFE00
0007F000
00000000
00000000
00000000
00000000
00000000
00000000
00000000
00000000
00000000
00000000
00000000
00000000
00000000
ENDCHAR

STARTCHAR CODE139
ENCODING 139
SWIDTH 451 0
DWIDTH 32 0
BBX 32 64 0 -6
BITMAP
00000000
00000000
00000000
00000000
00000000
00000000
00000000
00000000
00000000
00000000
00781E00
00FC3F00
00FC3F00
00FC3F00
00FC3F00
00781E00
00000000
00000000
00000000
00007000
0001F000
0007F000
001FF000
001FF000
001FF000
0001F000
0001F000
0001F000
0001F000
0001F000
0001F000
0001F000
0001F000
0001F000
0001F000
0001F000
0001F000
0001F000
0001F000
0001F000
0001F000
0001F000
0001F000
0001F000
0001F000
0001F000
0003F800
001FFF00
001FFF00
001FFF00
00000000
00000000
00000000
00000000
00000000
00000000
00000000
00000000
00000000
00000000
00000000
00000000
00000000
00000000
ENDCHAR

STARTCHAR CODE140
ENCODING 140
SWIDTH 451 0
DWIDTH 32 0
BBX 32 64 0 -6
BITMAP
00000000
00000000
00000000
00000000
00000000
00000000
0003C000
0003C000
0007E000
0007E000
000FF000
000FF000
001FF800
001E7800
003C3C00
00381C00
00300C00
00000000
00000000
00007000
0001F000
0007F000
001FF000
001FF000
001FF000
0001F000
0001F000
0001F000
0001F000
0001F000
0001F000
0001F000
0001F000
0001F000
0001F000
0001F000
0001F000
0001F000
0001F000
0001F000
0001F000
0001F000
0001F000
0001F000
0001F000
0001F000
0003F800
001FFF00
001FFF00
001FFF00
00000000
00000000
00000000
00000000
00000000
00000000
00000000
00000000
00000000
00000000
00000000
00000000
00000000
00000000
ENDCHAR

STARTCHAR CODE141
ENCODING 141
SWIDTH 451 0
DWIDTH 32 0
BBX 32 64 0 -6
BITMAP
00000000
00000000
00000000
00000000
00000000
00000000
001C0000
003E0000
003E0000
003F0000
003F0000
001F8000
000F8000
0007C000
0003C000
0001E000
0000E000
00006000
00000000
00007000
0001F000
0007F000
001FF000
001FF000
001FF000
0001F000
0001F000
0001F000
0001F000
0001F000
0001F000
0001F000
0001F000
0001F000
0001F000
0001F000
0001F000
0001F000
0001F000
0001F000
0001F000
0001F000
0001F000
0001F000
0001F000
0001F000
0003F800
001FFF00
001FFF00
001FFF00
00000000
00000000
00000000
00000000
00000000
00000000
00000000
00000000
00000000
00000000
00000000
00000000
00000000
00000000
ENDCHAR

STARTCHAR CODE142
ENCODING 142
SWIDTH 451 0
DWIDTH 32 0
BBX 32 64 0 -6
BITMAP
00FC7E00
00FC7E00
00FC7E00
00FC7E00
00783C00
00000000
00000000
00000000
00000000
00038000
00038000
0007C000
0007C000
0007C000
000FE000
000FE000
000FE000
001FF000
001DF000
001DF800
001DF800
003CF800
0038F800
0038FC00
00787C00
00707C00
00707E00
00707E00
00F03E00
00E03F00
00E03F00
01E01F00
01C01F00
01C01F80
01FFFF80
03FFFF80
03FFFFC0
03FFFFC0
078007C0
070007E0
070007E0
0F0007E0
0E0003E0
0E0003F0
0E0003F0
1E0003F0
1C0001F8
FFC00FFF
FFC00FFF
FFC00FFF
00000000
00000000
00000000
00000000
00000000
00000000
00000000
00000000
00000000
00000000
00000000
00000000
00000000
00000000
ENDCHAR

STARTCHAR CODE143
ENCODING 143
SWIDTH 451 0
DWIDTH 32 0
BBX 32 64 0 -6
BITMAP
001FF000
003FF800
003C7800
00383800
00383800
003C7800
003FF800
001FF000
0007C000
00038000
00038000
0007C000
0007C000
0007C000
000FE000
000FE000
000FE000
001FF000
001DF000
001DF800
001DF800
003CF800
0038F800
0038FC00
00787C00
00707C00
00707E00
00707E00
00F03E00
00E03F00
00E03F00
01E01F00
01C01F00
01C01F80
01FFFF80
03FFFF80
03FFFFC0
03FFFFC0
078007C0
070007E0
070007E0
0F0007E0
0E0003E0
0E0003F0
0E0003F0
1E0003F0
1C0001F8
FFC00FFF
FFC00FFF
FFC00FFF
00000000
00000000
00000000
00000000
00000000
00000000
00000000
00000000
00000000
00000000
00000000
00000000
00000000
00000000
ENDCHAR

STARTCHAR CODE144
ENCODING 144
SWIDTH 451 0
DWIDTH 32 0
BBX 32 64 0 -6
BITMAP
00007C00
00007C00
0000FC00
0000FC00
0001F800
0001F000
0003E000
0003C000
00078000
00070000
00000000
00000000
7FFFFFFC
7FFFFFFC
7FFFFFFC
0FC000FC
07C0003C
07C0001C
07C0001C
07C0001C
07C0000C
07C0000C
07C00000
07C00000
07C000C0
07C000C0
07C001C0
07C001C0
07FFFFC0
07FFFFC0
07FFFFC0
07FFFFC0
07C001C0
07C001C0
07C000C0
07C000C0
07C00000
07C00000
07C00000
07C00000
07C0000C
07C0000C
07C0000C
07C0001C
07C0001C
07C0003C
0FC000FC
7FFFFFFC
7FFFFFFC
7FFFFFFC
00000000
00000000
00000000
00000000
00000000
00000000
00000000
00000000
00000000
00000000
00000000
00000000
00000000
00000000
ENDCHAR

STARTCHAR CODE145
ENCODING 145
SWIDTH 451 0
DWIDTH 32 0
BBX 32 64 0 -6
BITMAP
00000000
00000000
00000000
00000000
00000000
00000000
00000000
00000000
00000000
00000000
00000000
00000000
00000000
00000000
00000000
00000000
00000000
00000000
00000000
00000000
01F01F80
07FC7FE0
1FFEFFF0
3FFFFFF8
7F1FF9F8
7E0FE07C
7E0FE07C
7E07C03C
3C07C03C
0007C03C
0007C03C
0007C03C
007FFFFC
01FFFFFC
07FFFFFC
0FE7C000
1F87C000
3F07C000
3E07C000
7E07C000
7C07C000
7C07C006
7C07E00E
7C0FE01E
7E0FF03C
7E1FFCFC
7F7FFFF8
7FFCFFF0
3FF87FE0
1FF03FC0
0FC00F00
00000000
00000000
00000000
00000000
00000000
00000000
00000000
00000000
00000000
00000000
00000000
00000000
00000000
ENDCHAR

STARTCHAR CODE146
ENCODING 146
SWIDTH 451 0
DWIDTH 32 0
BBX 32 64 0 -6
BITMAP
00000000
00000000
00000000
00000000
00000000
00000000
00000000
007FFFFC
007FFFFC
001FFFFC
000FE03C
001FE01C
001FE00C
001FE00C
001FE00C
003FE00C
003FE000
003BE000
003BE000
007BE000
007BE000
0073E030
0073E030
00F3E030
00F3E070
00E3E070
00E3FFF0
01E3FFF0
01E3FFF0
01C3FFF0
01FFE070
03FFE070
03FFE030
0383E030
0383E030
0783E000
0783E000
0703E000
0703E000
0F03E000
0F03E006
0E03E006
0E03E006
1E03E00E
1E03E00E
1C03E01E
1C03E03E
FF1FFFFE
FF1FFFFE
FF1FFFFE
00000000
00000000
00000000
00000000
00000000
00000000
00000000
00000000
00000000
00000000
00000000
00000000
00000000
00000000
ENDCHAR

STARTCHAR CODE147
ENCODING 147
SWIDTH 451 0
DWIDTH 32 0
BBX 32 64 0 -6
BITMAP
00000000
00000000
00000000
00000000
00000000
00000000
00078000
00078000
000FC000
000FC000
001FE000
001FE000
003FF000
003CF000
00787800
00703800
00601800
00000000
00000000
00000000
001FF800
007FFE00
01FFFF80
03FFFFC0
07F81FE0
0FE007F0
0FC003F0
1F8001F8
1F8001F8
3F0000FC
3F0000FC
3F0000FC
3E00007C
3E00007C
3E00007C
3E00007C
3E00007C
3E00007C
3F0000FC
3F0000FC
3F0000FC
1F8001F8
1F8001F8
0FC003F0
0FE007F0
07F81FE0
03FFFFC0
01FFFF80
007FFE00
001FF800
00000000
00000000
00000000
00000000
00000000
00000000
00000000
00000000
00000000
00000000
00000000
00000000
00000000
00000000
ENDCHAR

STARTCHAR CODE148
ENCODING 148
SWIDTH 451 0
DWIDTH 32 0
BBX 32 64 0 -6
BITMAP
00000000
00000000
00000000
00000000
00000000
00000000
00000000
00000000
00000000
00000000
00783C00
00FC7E00
00FC7E00
00FC7E00
00FC7E00
00783C00
00000000
00000000
00000000
00000000
001FF800
007FFE00
01FFFF80
03FFFFC0
07F81FE0
0FE007F0
0FC003F0
1F8001F8
1F8001F8
3F0000FC
3F0000FC
3F0000FC
3E00007C
3E00007C
3E00007C
3E00007C
3E00007C
3E00007C
3F0000FC
3F0000FC
3F0000FC
1F8001F8
1F8001F8
0FC003F0
0FE007F0
07F81FE0
03FFFFC0
01FFFF80
007FFE00
001FF800
00000000
00000000
00000000
00000000
00000000
00000000
00000000
00000000
00000000
00000000
00000000
00000000
00000000
00000000
ENDCHAR

STARTCHAR CODE149
ENCODING 149
SWIDTH 451 0
DWIDTH 32 0
BBX 32 64 0 -6
BITMAP
00000000
00000000
00000000
00000000
00000000
00000000
00380000
007C0000
007C0000
007E0000
007E0000
003F0000
001F0000
000F8000
00078000
0003C000
0001C000
0000C000
00000000
00000000
001FF800
007FFE00
01FFFF80
03FFFFC0
07F81FE0
0FE007F0
0FC003F0
1F8001F8
1F8001F8
3F0000FC
3F0000FC
3F0000FC
3E00007C
3E00007C
3E00007C
3E00007C
3E00007C
3E00007C
3F0000FC
3F0000FC
3F0000FC
1F8001F8
1F8001F8
0FC003F0
0FE007F0
07F81FE0
03FFFFC0
01FFFF80
007FFE00
001FF800
00000000
00000000
00000000
00000000
00000000
00000000
00000000
00000000
00000000
00000000
00000000
00000000
00000000
00000000
ENDCHAR

STARTCHAR CODE150
ENCODING 150
SWIDTH 451 0
DWIDTH 32 0
BBX 32 64 0 -6
BITMAP
00000000
00000000
00000000
00000000
00000000
00000000
0003C000
0003C000
0007E000
0007E000
000FF000
000FF000
001FF800
001E7800
003C3C00
00381C00
00300C00
00000000
00000000
00000000
3F800FE0
3F800FE0
1F8007E0
0F8003E0
0F8003E0
0F8003E0
0F8003E0
0F8003E0
0F8003E0
0F8003E0
0F8003E0
0F8003E0
0F8003E0
0F8003E0
0F8003E0
0F8003E0
0F8003E0
0F8003E0
0F8003E0
0F8003E0
0F8003E0
0F8003E0
0F8003E0
0FC007E0
0FC00FF0
07F03FFC
07FFFFFC
03FFFFFC
01FFFBF0
00FFE3C0
003F8300
00000000
00000000
00000000
00000000
00000000
00000000
00000000
00000000
00000000
00000000
00000000
00000000
00000000
ENDCHAR

STARTCHAR CODE151
ENCODING 151
SWIDTH 451 0
DWIDTH 32 0
BBX 32 64 0 -6
BITMAP
00000000
00000000
00000000
00000000
00000000
00000000
00380000
007C0000
007C0000
007E0000
007E0000
003F0000
001F0000
000F8000
00078000
0003C000
0001C000
0000C000
00000000
00000000
3F800FE0
3F800FE0
1F8007E0
0F8003E0
0F8003E0
0F8003E0
0F8003E0
0F8003E0
0F8003E0
0F8003E0
0F8003E0
0F8003E0
0F8003E0
0F8003E0
0F8003E0
0F8003E0
0F8003E0
0F8003E0
0F8003E0
0F8003E0
0F8003E0
0F8003E0
0F8003E0
0FC007E0
0FC00FF0
07F03FFC
07FFFFFC
03FFFFFC
01FFFBF0
00FFE3C0
003F8300
00000000
00000000
00000000
00000000
00000000
00000000
00000000
00000000
00000000
00000000
00000000
00000000
00000000
ENDCHAR

STARTCHAR CODE152
ENCODING 152
SWIDTH 451 0
DWIDTH 32 0
BBX 32 64 0 -6
BITMAP
00000000
00000000
00000000
00000000
00000000
00000000
00000000
00000000
00000000
00000000
00781E00
00FC3F00
00FC3F00
00FC3F00
00FC3F00
00781E00
00000000
00000000
00000000
00000000
7FE003FF
7FE003FF
7FE003FF
0F800078
0FC00070
07C000F0
07E000F0
03E000E0
03F001E0
01F001E0
01F801C0
00F803C0
00FC03C0
007C0380
007E0780
003E0780
003F0700
001F0F00
001F8F00
000F8E00
000FDE00
0007DE00
0007FC00
0003FC00
0003FC00
0001F800
0001F800
0000F000
0000F000
0000F000
0000E000
0001E000
0001E000
0003C000
0003C000
00078000
03C78000
07EF0000
07FF0000
07FE0000
07FC0000
07F80000
03E00000
00000000
ENDCHAR

STARTCHAR CODE153
ENCODING 153
SWIDTH 451 0
DWIDTH 32 0
BBX 32 64 0 -6
BITMAP
00FC3F00
00FC3F00
00FC3F00
00FC3F00
00781E00
00000000
00000000
00000000
00000000
001FF800
007FFE00
01FFFF80
03FC3FC0
07F00FE0
0FE007F0
0FC003F0
1F8001F8
1F8001F8
3F0000FC
3F0000FC
3F0000FC
7E00007E
7E00007E
7E00007E
7E00007E
7C00003E
7C00003E
7C00003E
7C00003E
7C00003E
7C00003E
7C00003E
7C00003E
7C00003E
7C00003E
7E00007E
7E00007E
7E00007E
3E00007C
3F0000FC
3F0000FC
1F0000F8
1F8001F8
1F8001F8
0FC003F0
0FE007F0
07F00FE0
03FC3FC0
01FFFF80
007FFE00
001FF800
00000000
00000000
00000000
00000000
00000000
00000000
00000000
00000000
00000000
00000000
00000000
00000000
00000000
ENDCHAR

STARTCHAR CODE154
ENCODING 154
SWIDTH 451 0
DWIDTH 32 0
BBX 32 64 0 -6
BITMAP
00FC3F00
00FC3F00
00FC3F00
00FC3F00
00781E00
00000000
00000000
00000000
00000000
FFF003FF
FFF003FF
FFF003FF
3FC000FC
1F800078
1F800078
1F800078
1F800078
1F800078
1F800078
1F800078
1F800078
1F800078
1F800078
1F800078
1F800078
1F800078
1F800078
1F800078
1F800078
1F800078
1F800078
1F800078
1F800078
1F800078
1F800078
1F800078
1F800078
1F800078
1F800078
1F800078
1F800078
1F800078
0FC000F8
0FC000F0
0FC001F0
07E003E0
07F80FE0
03FFFFC0
01FFFF80
00FFFF00
003FFC00
00000000
00000000
00000000
00000000
00000000
00000000
00000000
00000000
00000000
00000000
00000000
00000000
00000000
ENDCHAR

STARTCHAR CODE155
ENCODING 155
SWIDTH 451 0
DWIDTH 32 0
BBX 32 64 0 -6
BITMAP
00000000
00000000
00000000
00000000
00000000
00000000
00000000
00000000
00000000
00000000
00000000
00000000
00001C00
00001C00
00001C00
00003C00
00003C00
00003C00
00003800
00003800
0007FC00
003FFF00
00FFFFC0
01FFFFE0
03F8FFF0
07E0F7F0
07C0E7F0
0F80E7F0
0F80E7F0
0F01E3E0
1F01E000
1F01E000
1E01C000
1E01C000
1E03C000
1E03C000
1F03C000
1F038000
1F038000
1F878000
0F878018
0FC78038
0FE70078
07F701F8
07FF07F0
03FFFFF0
03FFFFE0
01FFFFC0
00FFFF80
003FFE00
001FF000
001C0000
003C0000
003C0000
003C0000
00380000
00380000
00380000
00380000
00000000
00000000
00000000
00000000
00000000
ENDCHAR

STARTCHAR CODE156
ENCODING 156
SWIDTH 451 0
DWIDTH 32 0
BBX 32 64 0 -6
BITMAP
00000000
00000000
00000000
00000000
00000000
00000000
0003FF80
000FFFE0
001FFFF0
001F87F8
003E03F8
003C03F8
007C03F8
007C01F0
007800E0
00F80000
00F80000
00F80000
00F80000
00F80000
00F80000
00F80000
00F80000
00F80000
00F80000
1FFFFC00
1FFFFC00
1FFFFC00
1FFFFC00
00F80000
00F80000
00F80000
00F80000
00F80000
00F80000
00F80000
00F80000
00F80000
00F80000
00F80000
00F8000C
1FF8001C
3FF8001C
3FFE0038
79FFC0F8
70FFFFF8
70FFFFF0
7BFFFFF0
3FE3FFE0
3FC0FF80
1F003E00
00000000
00000000
00000000
00000000
00000000
00000000
00000000
00000000
00000000
00000000
00000000
00000000
00000000
ENDCHAR

STARTCHAR CODE157
ENCODING 157
SWIDTH 451 0
DWIDTH 32 0
BBX 32 64 0 -6
BITMAP
00000000
00000000
00000000
00000000
00000000
00000000
00000000
FFF003FF
FFF003FF
FFF003FF
1F800078
0FC000F0
0FC000F0
07E001E0
07E001E0
03F003C0
03F003C0
01F80780
01F80780
00FC0F00
00FC0F00
007E1E00
007E1E00
003F3C00
003F3C00
001FF800
001FF800
07FFFFF0
07FFFFF0
07FFFFF0
07FFFFF0
0003E000
0003E000
0003E000
0003E000
07FFFFF0
07FFFFF0
07FFFFF0
07FFFFF0
0003E000
0003E000
0003E000
0003E000
0003E000
0003E000
0003E000
0007F000
007FFF00
007FFF00
007FFF00
00000000
00000000
00000000
00000000
00000000
00000000
00000000
00000000
00000000
00000000
00000000
00000000
00000000
00000000
ENDCHAR

STARTCHAR CODE158
ENCODING 158
SWIDTH 451 0
DWIDTH 32 0
BBX 32 64 0 -6
BITMAP
00000000
00000000
00000000
00000000
00000000
00000000
00000000
07780000
1FFE0000
7FFE0000
FFFF0000
FF9F0000
1F0F8000
1F0F8000
1F078000
1F07C000
1F07C180
1F07C180
1F07C380
1F07C380
1F07C780
1F07C780
1F07CF80
1F07DF80
1F07FFFC
1F07FFFC
1F07FFFC
1F078F80
1F0F8F80
1F0F8F80
1F0F0F80
1F9F0F80
1FFE0F80
1FFE0F80
1FFC0F80
1FF80F80
1F000F80
1F000F80
1F000F80
1F000F80
1F000F80
1F000F80
1F000F80
1F000F83
1F000F87
1F000FCF
3F8007FE
FFE007FE
FFE003FC
FFE001F8
00000000
00000000
00000000
00000000
00000000
00000000
00000000
00000000
00000000
00000000
00000000
00000000
00000000
00000000
ENDCHAR

STARTCHAR CODE159
ENCODING 159
SWIDTH 451 0
DWIDTH 32 0
BBX 32 64 0 -6
BITMAP
00000000
00000000
00000000
00000000
00000000
00000000
00000FE0
00001FF0
00003FF8
00003DF8
000079F8
000079F8
0000F9F8
0000F0F0
0000F000
0001F000
0001F000
0001F000
0001F000
0001E000
0001E000
0001E000
0001E000
00FFFFC0
00FFFFC0
00FFFFC0
00FFFFC0
0003E000
0003E000
0003E000
0003E000
0007E000
0007C000
0007C000
0007C000
0007C000
0007C000
0007C000
0007C000
0007C000
0007C000
0007C000
000FC000
000F8000
000F8000
000F8000
000F8000
000F8000
000F8000
000F8000
000F0000
001F0000
001F0000
001F0000
1E1E0000
3F1E0000
3F3E0000
3F3C0000
3F7C0000
3FF80000
1FF80000
07E00000
00000000
00000000
ENDCHAR

STARTCHAR CODE160
ENCODING 160
SWIDTH 451 0
DWIDTH 32 0
BBX 32 64 0 -6
BITMAP
00000000
00000000
00000000
00000000
00000000
00000000
00003800
00007C00
00007C00
0000FC00
0000FC00
0001F800
0001F000
0003E000
0003C000
00078000
00070000
00060000
00000000
00000000
007FF800
01FFFE00
03FFFF00
07F07F80
0FC01F80
0FC00FC0
0FE00FC0
0FE007C0
0FE007C0
07C007C0
000007C0
00001FC0
0000FFC0
0007FFC0
003FF7C0
00FF87C0
01FE07C0
03F807C0
07E007C0
0FC007C0
0F8007C0
1F8007C0
1F0007C0
1F000FC0
1F801FC0
1FC07FEC
0FF1FFFC
0FFFFBFC
07FFF1F8
03FFC1F0
00FE00E0
00000000
00000000
00000000
00000000
00000000
00000000
00000000
00000000
00000000
00000000
00000000
00000000
00000000
ENDCHAR

STARTCHAR CODE161
ENCODING 161
SWIDTH 451 0
DWIDTH 32 0
BBX 32 64 0 -6
BITMAP
00000000
00000000
00000000
00000000
00000000
00000000
00003800
00007C00
00007C00
0000FC00
0000FC00
0001F800
0001F000
0003E000
0003C000
00078000
00070000
00060000
00000000
00007000
0001F000
0007F000
001FF000
001FF000
001FF000
0001F000
0001F000
0001F000
0001F000
0001F000
0001F000
0001F000
0001F000
0001F000
0001F000
0001F000
0001F000
0001F000
0001F000
0001F000
0001F000
0001F000
0001F000
0001F000
0001F000
0001F000
0003F800
001FFF00
001FFF00
001FFF00
00000000
00000000
00000000
00000000
00000000
00000000
00000000
00000000
00000000
00000000
00000000
00000000
00000000
00000000
ENDCHAR

STARTCHAR CODE162
ENCODING 162
SWIDTH 451 0
DWIDTH 32 0
BBX 32 64 0 -6
BITMAP
00000000
00000000
00000000
00000000
00000000
00000000
00003800
00007C00
00007C00
0000FC00
0000FC00
0001F800
0001F000
0003E000
0003C000
00078000
00070000
00060000
00000000
00000000
001FF800
007FFE00
01FFFF80
03FFFFC0
07F81FE0
0FE007F0
0FC003F0
1F8001F8
1F8001F8
3F0000FC
3F0000FC
3F0000FC
3E00007C
3E00007C
3E00007C
3E00007C
3E00007C
3E00007C
3F0000FC
3F0000FC
3F0000FC
1F8001F8
1F8001F8
0FC003F0
0FE007F0
07F81FE0
03FFFFC0
01FFFF80
007FFE00
001FF800
00000000
00000000
00000000
00000000
00000000
00000000
00000000
00000000
00000000
00000000
00000000
00000000
00000000
00000000
ENDCHAR

STARTCHAR CODE163
ENCODING 163
SWIDTH 451 0
DWIDTH 32 0
BBX 32 64 0 -6
BITMAP
00000000
00000000
00000000
00000000
00000000
00000000
00003800
00007C00
00007C00
0000FC00
0000FC00
0001F800
0001F000
0003E000
0003C000
00078000
00070000
00060000
00000000
00000000
3F800FE0
3F800FE0
1F8007E0
0F8003E0
0F8003E0
0F8003E0
0F8003E0
0F8003E0
0F8003E0
0F8003E0
0F8003E0
0F8003E0
0F8003E0
0F8003E0
0F8003E0
0F8003E0
0F8003E0
0F8003E0
0F8003E0
0F8003E0
0F8003E0
0F8003E0
0F8003E0
0FC007E0
0FC00FF0
07F03FFC
07FFFFFC
03FFFFFC
01FFFBF0
00FFE3C0
003F8300
00000000
00000000
00000000
00000000
00000000
00000000
00000000
00000000
00000000
00000000
00000000
00000000
00000000
ENDCHAR

STARTCHAR CODE164
ENCODING 164
SWIDTH 451 0
DWIDTH 32 0
BBX 32 64 0 -6
BITMAP
00000000
00000000
00000000
00000000
00000000
00000000
00000000
00000000
00078000
001FC300
003FE700
007FFF00
0073FE00
0061FC00
0000F000
00000000
00000000
00000000
00000000
00000000
01C7FC00
07DFFF00
1FFFFF80
7FFFFFC0
7FFC1FC0
7FF007E0
0FE007E0
07E003E0
07C003E0
07C003E0
07C003E0
07C003E0
07C003E0
07C003E0
07C003E0
07C003E0
07C003E0
07C003E0
07C003E0
07C003E0
07C003E0
07C003E0
07C003E0
07C003E0
07C003E0
07C003E0
0FE007F0
3FF81FFC
3FF81FFC
3FF81FFC
00000000
00000000
00000000
00000000
00000000
00000000
00000000
00000000
00000000
00000000
00000000
00000000
00000000
00000000
ENDCHAR

STARTCHAR CODE165
ENCODING 165
SWIDTH 451 0
DWIDTH 32 0
BBX 32 64 0 -6
BITMAP
003F8600
007FCE00
00FFFE00
00E7FC00
00C3F800
0001E000
00000000
00000000
00000000
7FC003FF
7FE003FF
7FE003FF
1FF000FC
0FF00078
0FF80078
0FF80078
0FFC0078
0FFC0078
0F7E0078
0F7E0078
0F3F0078
0F3F0078
0F1F8078
0F1F8078
0F0FC078
0F0FC078
0F07E078
0F07E078
0F03F078
0F03F078
0F01F878
0F01F878
0F00FC78
0F00FC78
0F007E78
0F007E78
0F003F78
0F003F78
0F001FF8
0F001FF8
0F000FF8
0F000FF8
0F0007F8
0F0007F8
0F0003F8
0F0003F8
1F8001F8
7FE001F8
7FE000F8
7FE000F8
00000078
00000000
00000000
00000000
00000000
00000000
00000000
00000000
00000000
00000000
00000000
00000000
00000000
00000000
ENDCHAR

STARTCHAR CODE166
ENCODING 166
SWIDTH 451 0
DWIDTH 32 0
BBX 32 64 0 -6
BITMAP
00000000
00000000
00000000
00000000
00000000
00000000
001FF000
007FFC00
00FFFE00
01FC7E00
01F81F00
01F81F00
00F00F00
0001FF00
000FFF00
003FFF00
00FF8F00
01FC0F00
01F00F00
01E01F00
01F07F00
01FFFF60
01FFFFE0
00FFEFE0
003F87C0
00000000
00000000
007FFE00
007FFE00
007FFE00
007FFE00
00000000
00000000
00000000
00000000
00000000
00000000
00000000
00000000
00000000
00000000
00000000
00000000
00000000
00000000
00000000
00000000
00000000
00000000
00000000
00000000
00000000
00000000
00000000
00000000
00000000
00000000
00000000
00000000
00000000
00000000
00000000
00000000
00000000
ENDCHAR

STARTCHAR CODE167
ENCODING 167
SWIDTH 451 0
DWIDTH 32 0
BBX 32 64 0 -6
BITMAP
00000000
00000000
00000000
00000000
00000000
00000000
001FF800
007FFE00
00FFFF00
01FE7F80
01F81F80
03F00FC0
03F00FC0
03E007C0
03E007C0
03E007C0
03E007C0
03E007C0
03F00FC0
03F00FC0
01F81F80
01FE7F80
00FFFF00
007FFE00
001FF800
00000000
00000000
007FFE00
007FFE00
007FFE00
007FFE00
00000000
00000000
00000000
00000000
00000000
00000000
00000000
00000000
00000000
00000000
00000000
00000000
00000000
00000000
00000000
00000000
00000000
00000000
00000000
00000000
00000000
00000000
00000000
00000000
00000000
00000000
00000000
00000000
00000000
00000000
00000000
00000000
00000000
ENDCHAR

STARTCHAR CODE168
ENCODING 168
SWIDTH 451 0
DWIDTH 32 0
BBX 32 64 0 -6
BITMAP
00000000
00000000
00000000
00000000
00000000
00000000
00000000
00000000
00000000
00000000
00000000
00000000
00000000
00000000
00000000
00000000
00000000
00000000
0003E000
0007F000
0007F000
0007F000
0007F000
0007F000
0003E000
00000000
00000000
00000000
0003C000
0003C000
0003C000
0003C000
0003C000
0003C000
0003C000
00078000
00078000
000F8000
000F0000
001F0000
003E0000
007C0000
00FC0000
01F80000
01F80000
03F00000
03F00000
07E00000
07E000F0
07E001F8
07C001FC
07C001FC
07C001FC
07C000FC
07E0007C
03E0007C
03F000F8
01F001F8
01FC07F0
00FFFFE0
007FFFC0
003FFF00
000FFC00
00000000
ENDCHAR

STARTCHAR CODE169
ENCODING 169
SWIDTH 451 0
DWIDTH 32 0
BBX 32 64 0 -6
BITMAP
00000000
00000000
00000000
00000000
00000000
00000000
00000000
00000000
00000000
00000000
00000000
00000000
00000000
00000000
00000000
00000000
00000000
00000000
00000000
00000000
00000000
00000000
00000000
00000000
1FFFFFF8
1FFFFFF8
1FFFFFF8
1FFFFFF8
1FFFFFF8
1E000000
1E000000
1E000000
1E000000
1E000000
1E000000
1E000000
1E000000
1E000000
1E000000
00000000
00000000
00000000
00000000
00000000
00000000
00000000
00000000
00000000
00000000
00000000
00000000
00000000
00000000
00000000
00000000
00000000
00000000
00000000
00000000
00000000
00000000
00000000
00000000
00000000
ENDCHAR

STARTCHAR CODE170
ENCODING 170
SWIDTH 451 0
DWIDTH 32 0
BBX 32 64 0 -6
BITMAP
00000000
00000000
00000000
00000000
00000000
00000000
00000000
00000000
00000000
00000000
00000000
00000000
00000000
00000000
00000000
00000000
00000000
00000000
00000000
00000000
00000000
00000000
00000000
00000000
1FFFFFF8
1FFFFFF8
1FFFFFF8
1FFFFFF8
1FFFFFF8
00000078
00000078
00000078
00000078
00000078
00000078
00000078
00000078
00000078
00000078
00000000
00000000
00000000
00000000
00000000
00000000
00000000
00000000
00000000
00000000
00000000
00000000
00000000
00000000
00000000
00000000
00000000
00000000
00000000
00000000
00000000
00000000
00000000
00000000
00000000
ENDCHAR

STARTCHAR CODE171
ENCODING 171
SWIDTH 451 0
DWIDTH 32 0
BBX 32 64 0 -6
BITMAP
00000000
00000000
0001C000
0007C000
001FC000
007FC000
007FC000
007FC000
0007C000
0007C000
0007C000
0007C000
0007C000
0007C000
0007C000
0007C000
0007C000
0007C000
0007C000
0007C000
0007C000
0007C000
000FE000
007FFC00
007FFC00
007FFC00
00000000
00000000
00000000
7FFFFFFE
7FFFFFFE
7FFFFFFE
7FFFFFFE
00000000
00000000
00000000
001FE000
007FF800
00FFFE00
01FFFF00
03F0FF00
07C03F80
07001F80
06001F80
00001F80
00003F00
00007F00
0000FE00
0003FC00
000FF800
001FF000
003FC000
00FF01C0
01FC01C0
03F003C0
07FFFFC0
07FFFFC0
07FFFFC0
07FFFFC0
00000000
00000000
00000000
00000000
00000000
ENDCHAR

STARTCHAR CODE172
ENCODING 172
SWIDTH 451 0
DWIDTH 32 0
BBX 32 64 0 -6
BITMAP
00000000
00000000
0001C000
0007C000
001FC000
007FC000
007FC000
007FC000
0007C000
0007C000
0007C000
0007C000
0007C000
0007C000
0007C000
0007C000
0007C000
0007C000
0007C000
0007C000
0007C000
0007C000
000FE000
007FFC00
007FFC00
007FFC00
00000000
00000000
00000000
7FFFFFFE
7FFFFFFE
7FFFFFFE
7FFFFFFE
00000000
00000000
00000000
00007800
0000F800
0001F800
0003F800
0007F800
000FF800
001FF800
003EF800
007CF800
00F8F800
01F0F800
03E0F800
07C0F800
0F80F800
0FFFFFC0
0FFFFFC0
0FFFFFC0
0FFFFFC0
0000F800
0000F800
0000F800
0000F800
0000F800
0000F800
00000000
00000000
00000000
00000000
ENDCHAR

STARTCHAR CODE173
ENCODING 173
SWIDTH 451 0
DWIDTH 32 0
BBX 32 64 0 -6
BITMAP
00000000
00000000
00000000
00000000
00000000
00000000
00000000
00000000
00000000
00000000
00000000
00000000
00000000
00000000
00000000
00000000
00000000
00000000
0003C000
0007E000
0007E000
0007E000
0007E000
0007E000
0003C000
00000000
00000000
00000000
00000000
00000000
00018000
0003C000
0003C000
0003C000
0003C000
0003C000
0003C000
0003C000
0007E000
0007E000
0007E000
0007E000
0007E000
0007E000
0007E000
0007E000
0007E000
0007E000
0007E000
0007E000
0007E000
0007E000
0007E000
0007E000
0007E000
0007E000
0007E000
0007E000
0007E000
0007E000
0007E000
0007E000
0003C000
00000000
ENDCHAR

STARTCHAR CODE174
ENCODING 174
SWIDTH 451 0
DWIDTH 32 0
BBX 32 64 0 -6
BITMAP
00000000
00000000
00000000
00000000
00000000
00000000
00000000
00000000
00000000
00000000
00000000
00000000
00000000
00000000
00000000
00000000
00000000
00000000
00000000
00000000
00000000
00000000
00000000
0000C060
0001C0E0
0003C1E0
000783C0
000F0780
001E0F00
003E1F00
007C3E00
00F87C00
01F8FC00
03F1F800
03E1F000
03C1E000
03E1F000
03F1F800
01F8FC00
00F87C00
007C3E00
003E1F00
001E0F00
000F0780
000783C0
0003C1E0
0001C0E0
0000C060
00000000
00000000
00000000
00000000
00000000
00000000
00000000
00000000
00000000
00000000
00000000
00000000
00000000
00000000
00000000
00000000
ENDCHAR

STARTCHAR CODE175
ENCODING 175
SWIDTH 451 0
DWIDTH 32 0
BBX 32 64 0 -6
BITMAP
00000000
00000000
00000000
00000000
00000000
00000000
00000000
00000000
00000000
00000000
00000000
00000000
00000000
00000000
00000000
00000000
00000000
00000000
00000000
00000000
00000000
00000000
00000000
03018000
0381C000
03C1E000
01E0F000
00F07800
00783C00
007C3E00
003E1F00
001F0F80
001F8FC0
000FC7E0
0007C3E0
0003C1E0
0007C3E0
000FC7E0
001F8FC0
001F0F80
003E1F00
007C3E00
00783C00
00F07800
01E0F000
03C1E000
0381C000
03018000
00000000
00000000
00000000
00000000
00000000
00000000
00000000
00000000
00000000
00000000
00000000
00000000
00000000
00000000
00000000
00000000
ENDCHAR

STARTCHAR CODE176
ENCODING 176
SWIDTH 451 0
DWIDTH 32 0
BBX 32 64 0 -6
BITMAP
66666666
66666666
00000000
00000000
66666666
66666666
00000000
00000000
66666666
66666666
00000000
00000000
66666666
66666666
00000000
00000000
66666666
66666666
00000000
00000000
66666666
66666666
00000000
00000000
66666666
66666666
00000000
00000000
66666666
66666666
00000000
00000000
66666666
66666666
00000000
00000000
66666666
66666666
00000000
00000000
66666666
66666666
00000000
00000000
66666666
66666666
00000000
00000000
66666666
66666666
00000000
00000000
66666666
66666666
00000000
00000000
66666666
66666666
00000000
00000000
66666666
66666666
00000000
00000000
ENDCHAR

STARTCHAR CODE177
ENCODING 177
SWIDTH 451 0
DWIDTH 32 0
BBX 32 64 0 -6
BITMAP
FFFFFFFF
FFFFFFFF
66666666
66666666
FFFFFFFF
FFFFFFFF
66666666
66666666
FFFFFFFF
FFFFFFFF
66666666
66666666
FFFFFFFF
FFFFFFFF
66666666
66666666
FFFFFFFF
FFFFFFFF
66666666
66666666
FFFFFFFF
FFFFFFFF
66666666
66666666
FFFFFFFF
FFFFFFFF
66666666
66666666
FFFFFFFF
FFFFFFFF
66666666
66666666
FFFFFFFF
FFFFFFFF
66666666
66666666
FFFFFFFF
FFFFFFFF
66666666
66666666
FFFFFFFF
FFFFFFFF
66666666
66666666
FFFFFFFF
FFFFFFFF
66666666
66666666
FFFFFFFF
FFFFFFFF
66666666
66666666
FFFFFFFF
FFFFFFFF
66666666
66666666
FFFFFFFF
FFFFFFFF
66666666
66666666
FFFFFFFF
FFFFFFFF
66666666
00000000
ENDCHAR

STARTCHAR CODE178
ENCODING 178
SWIDTH 451 0
DWIDTH 32 0
BBX 32 64 0 -6
BITMAP
00000000
1C1C1C1C
3E3E3E3E
3E3E3E3E
3E3E3E3E
1C1C1C1C
00000000
00000000
00000000
1C1C1C1C
3E3E3E3E
3E3E3E3E
3E3E3E3E
1C1C1C1C
00000000
00000000
00000000
1C1C1C1C
3E3E3E3E
3E3E3E3E
3E3E3E3E
1C1C1C1C
00000000
00000000
00000000
1C1C1C1C
3E3E3E3E
3E3E3E3E
3E3E3E3E
1C1C1C1C
00000000
00000000
00000000
1C1C1C1C
3E3E3E3E
3E3E3E3E
3E3E3E3E
1C1C1C1C
00000000
00000000
00000000
1C1C1C1C
3E3E3E3E
3E3E3E3E
3E3E3E3E
1C1C1C1C
00000000
00000000
00000000
1C1C1C1C
3E3E3E3E
3E3E3E3E
3E3E3E3E
1C1C1C1C
00000000
00000000
00000000
1C1C1C1C
3E3E3E3E
3E3E3E3E
3E3E3E3E
1C1C1C1C
00000000
00000000
ENDCHAR

STARTCHAR CODE179
ENCODING 179
SWIDTH 451 0
DWIDTH 32 0
BBX 32 64 0 -6
BITMAP
0001C000
0001C000
0001C000
0001C000
0001C000
0001C000
0001C000
0001C000
0001C000
0001C000
0001C000
0001C000
0001C000
0001C000
0001C000
0001C000
0001C000
0001C000
0001C000
0001C000
0001C000
0001C000
0001C000
0001C000
0001C000
0001C000
0001C000
0001C000
0001C000
0001C000
0001C000
0001C000
0001C000
0001C000
0001C000
0001C000
0001C000
0001C000
0001C000
0001C000
0001C000
0001C000
0001C000
0001C000
0001C000
0001C000
0001C000
0001C000
0001C000
0001C000
0001C000
0001C000
0001C000
0001C000
0001C000
0001C000
0001C000
0001C000
0001C000
0001C000
0001C000
0001C000
0001C000
0001C000
ENDCHAR

STARTCHAR CODE180
ENCODING 180
SWIDTH 451 0
DWIDTH 32 0
BBX 32 64 0 -6
BITMAP
0001C000
0001C000
0001C000
0001C000
0001C000
0001C000
0001C000
0001C000
0001C000
0001C000
0001C000
0001C000
0001C000
0001C000
0001C000
0001C000
0001C000
0001C000
0001C000
0001C000
0001C000
0001C000
0001C000
0001C000
0001C000
0001C000
0001C000
0001C000
0001C000
0001C000
FFFFC000
FFFFC000
FFFFC000
0001C000
0001C000
0001C000
0001C000
0001C000
0001C000
0001C000
0001C000
0001C000
0001C000
0001C000
0001C000
0001C000
0001C000
0001C000
0001C000
0001C000
0001C000
0001C000
0001C000
0001C000
0001C000
0001C000
0001C000
0001C000
0001C000
0001C000
0001C000
0001C000
0001C000
0001C000
ENDCHAR

STARTCHAR CODE181
ENCODING 181
SWIDTH 451 0
DWIDTH 32 0
BBX 32 64 0 -6
BITMAP
0001C000
0001C000
0001C000
0001C000
0001C000
0001C000
0001C000
0001C000
0001C000
0001C000
0001C000
0001C000
0001C000
0001C000
0001C000
0001C000
0001C000
0001C000
0001C000
0001C000
0001C000
0001C000
0001C000
0001C000
0001C000
0001C000
0001C000
FFFFC000
FFFFC000
FFFFC000
0001C000
0001C000
0001C000
FFFFC000
FFFFC000
FFFFC000
0001C000
0001C000
0001C000
0001C000
0001C000
0001C000
0001C000
0001C000
0001C000
0001C000
0001C000
0001C000
0001C000
0001C000
0001C000
0001C000
0001C000
0001C000
0001C000
0001C000
0001C000
0001C000
0001C000
0001C000
0001C000
0001C000
0001C000
0001C000
ENDCHAR

STARTCHAR CODE182
ENCODING 182
SWIDTH 451 0
DWIDTH 32 0
BBX 32 64 0 -6
BITMAP
000E3800
000E3800
000E3800
000E3800
000E3800
000E3800
000E3800
000E3800
000E3800
000E3800
000E3800
000E3800
000E3800
000E3800
000E3800
000E3800
000E3800
000E3800
000E3800
000E3800
000E3800
000E3800
000E3800
000E3800
000E3800
000E3800
000E3800
000E3800
000E3800
000E3800
FFFE3800
FFFE3800
FFFE3800
000E3800
000E3800
000E3800
000E3800
000E3800
000E3800
000E3800
000E3800
000E3800
000E3800
000E3800
000E3800
000E3800
000E3800
000E3800
000E3800
000E3800
000E3800
000E3800
000E3800
000E3800
000E3800
000E3800
000E3800
000E3800
000E3800
000E3800
000E3800
000E3800
000E3800
000E3800
ENDCHAR

STARTCHAR CODE183
ENCODING 183
SWIDTH 451 0
DWIDTH 32 0
BBX 32 64 0 -6
BITMAP
00000000
00000000
00000000
00000000
00000000
00000000
00000000
00000000
00000000
00000000
00000000
00000000
00000000
00000000
00000000
00000000
00000000
00000000
00000000
00000000
00000000
00000000
00000000
00000000
00000000
00000000
00000000
00000000
00000000
00000000
FFFFF800
FFFFF800
FFFFF800
000E3800
000E3800
000E3800
000E3800
000E3800
000E3800
000E3800
000E3800
000E3800
000E3800
000E3800
000E3800
000E3800
000E3800
000E3800
000E3800
000E3800
000E3800
000E3800
000E3800
000E3800
000E3800
000E3800
000E3800
000E3800
000E3800
000E3800
000E3800
000E3800
000E3800
000E3800
ENDCHAR

STARTCHAR CODE184
ENCODING 184
SWIDTH 451 0
DWIDTH 32 0
BBX 32 64 0 -6
BITMAP
00000000
00000000
00000000
00000000
00000000
00000000
00000000
00000000
00000000
00000000
00000000
00000000
00000000
00000000
00000000
00000000
00000000
00000000
00000000
00000000
00000000
00000000
00000000
00000000
00000000
00000000
00000000
FFFFC000
FFFFC000
FFFFC000
0001C000
0001C000
0001C000
FFFFC000
FFFFC000
FFFFC000
0001C000
0001C000
0001C000
0001C000
0001C000
0001C000
0001C000
0001C000
0001C000
0001C000
0001C000
0001C000
0001C000
0001C000
0001C000
0001C000
0001C000
0001C000
0001C000
0001C000
0001C000
0001C000
0001C000
0001C000
0001C000
0001C000
0001C000
0001C000
ENDCHAR

STARTCHAR CODE185
ENCODING 185
SWIDTH 451 0
DWIDTH 32 0
BBX 32 64 0 -6
BITMAP
000E3800
000E3800
000E3800
000E3800
000E3800
000E3800
000E3800
000E3800
000E3800
000E3800
000E3800
000E3800
000E3800
000E3800
000E3800
000E3800
000E3800
000E3800
000E3800
000E3800
000E3800
000E3800
000E3800
000E3800
000E3800
000E3800
000E3800
FFFE3800
FFFE3800
FFFE3800
00003800
00003800
00003800
FFFE3800
FFFE3800
FFFE3800
000E3800
000E3800
000E3800
000E3800
000E3800
000E3800
000E3800
000E3800
000E3800
000E3800
000E3800
000E3800
000E3800
000E3800
000E3800
000E3800
000E3800
000E3800
000E3800
000E3800
000E3800
000E3800
000E3800
000E3800
000E3800
000E3800
000E3800
000E3800
ENDCHAR

STARTCHAR CODE186
ENCODING 186
SWIDTH 451 0
DWIDTH 32 0
BBX 32 64 0 -6
BITMAP
000E3800
000E3800
000E3800
000E3800
000E3800
000E3800
000E3800
000E3800
000E3800
000E3800
000E3800
000E3800
000E3800
000E3800
000E3800
000E3800
000E3800
000E3800
000E3800
000E3800
000E3800
000E3800
000E3800
000E3800
000E3800
000E3800
000E3800
000E3800
000E3800
000E3800
000E3800
000E3800
000E3800
000E3800
000E3800
000E3800
000E3800
000E3800
000E3800
000E3800
000E3800
000E3800
000E3800
000E3800
000E3800
000E3800
000E3800
000E3800
000E3800
000E3800
000E3800
000E3800
000E3800
000E3800
000E3800
000E3800
000E3800
000E3800
000E3800
000E3800
000E3800
000E3800
000E3800
000E3800
ENDCHAR

STARTCHAR CODE187
ENCODING 187
SWIDTH 451 0
DWIDTH 32 0
BBX 32 64 0 -6
BITMAP
00000000
00000000
00000000
00000000
00000000
00000000
00000000
00000000
00000000
00000000
00000000
00000000
00000000
00000000
00000000
00000000
00000000
00000000
00000000
00000000
00000000
00000000
00000000
00000000
00000000
00000000
00000000
FFFFF800
FFFFF800
FFFFF800
00003800
00003800
00003800
FFFE3800
FFFE3800
FFFE3800
000E3800
000E3800
000E3800
000E3800
000E3800
000E3800
000E3800
000E3800
000E3800
000E3800
000E3800
000E3800
000E3800
000E3800
000E3800
000E3800
000E3800
000E3800
000E3800
000E3800
000E3800
000E3800
000E3800
000E3800
000E3800
000E3800
000E3800
000E3800
ENDCHAR

STARTCHAR CODE188
ENCODING 188
SWIDTH 451 0
DWIDTH 32 0
BBX 32 64 0 -6
BITMAP
000E3800
000E3800
000E3800
000E3800
000E3800
000E3800
000E3800
000E3800
000E3800
000E3800
000E3800
000E3800
000E3800
000E3800
000E3800
000E3800
000E3800
000E3800
000E3800
000E3800
000E3800
000E3800
000E3800
000E3800
000E3800
000E3800
000E3800
FFFE3800
FFFE3800
FFFE3800
00003800
00003800
00003800
FFFFF800
FFFFF800
FFFFF800
00000000
00000000
00000000
00000000
00000000
00000000
00000000
00000000
00000000
00000000
00000000
00000000
00000000
00000000
00000000
00000000
00000000
00000000
00000000
00000000
00000000
00000000
00000000
00000000
00000000
00000000
00000000
00000000
ENDCHAR

STARTCHAR CODE189
ENCODING 189
SWIDTH 451 0
DWIDTH 32 0
BBX 32 64 0 -6
BITMAP
000E3800
000E3800
000E3800
000E3800
000E3800
000E3800
000E3800
000E3800
000E3800
000E3800
000E3800
000E3800
000E3800
000E3800
000E3800
000E3800
000E3800
000E3800
000E3800
000E3800
000E3800
000E3800
000E3800
000E3800
000E3800
000E3800
000E3800
000E3800
000E3800
000E3800
FFFFF800
FFFFF800
FFFFF800
00000000
00000000
00000000
00000000
00000000
00000000
00000000
00000000
00000000
00000000
00000000
00000000
00000000
00000000
00000000
00000000
00000000
00000000
00000000
00000000
00000000
00000000
00000000
00000000
00000000
00000000
00000000
00000000
00000000
00000000
00000000
ENDCHAR

STARTCHAR CODE190
ENCODING 190
SWIDTH 451 0
DWIDTH 32 0
BBX 32 64 0 -6
BITMAP
0001C000
0001C000
0001C000
0001C000
0001C000
0001C000
0001C000
0001C000
0001C000
0001C000
0001C000
0001C000
0001C000
0001C000
0001C000
0001C000
0001C000
0001C000
0001C000
0001C000
0001C000
0001C000
0001C000
0001C000
0001C000
0001C000
0001C000
FFFFC000
FFFFC000
FFFFC000
0001C000
0001C000
0001C000
FFFFC000
FFFFC000
FFFFC000
00000000
00000000
00000000
00000000
00000000
00000000
00000000
00000000
00000000
00000000
00000000
00000000
00000000
00000000
00000000
00000000
00000000
00000000
00000000
00000000
00000000
00000000
00000000
00000000
00000000
00000000
00000000
00000000
ENDCHAR

STARTCHAR CODE191
ENCODING 191
SWIDTH 451 0
DWIDTH 32 0
BBX 32 64 0 -6
BITMAP
00000000
00000000
00000000
00000000
00000000
00000000
00000000
00000000
00000000
00000000
00000000
00000000
00000000
00000000
00000000
00000000
00000000
00000000
00000000
00000000
00000000
00000000
00000000
00000000
00000000
00000000
00000000
00000000
00000000
00000000
FFFFC000
FFFFC000
FFFFC000
0001C000
0001C000
0001C000
0001C000
0001C000
0001C000
0001C000
0001C000
0001C000
0001C000
0001C000
0001C000
0001C000
0001C000
0001C000
0001C000
0001C000
0001C000
0001C000
0001C000
0001C000
0001C000
0001C000
0001C000
0001C000
0001C000
0001C000
0001C000
0001C000
0001C000
0001C000
ENDCHAR

STARTCHAR CODE192
ENCODING 192
SWIDTH 451 0
DWIDTH 32 0
BBX 32 64 0 -6
BITMAP
0001C000
0001C000
0001C000
0001C000
0001C000
0001C000
0001C000
0001C000
0001C000
0001C000
0001C000
0001C000
0001C000
0001C000
0001C000
0001C000
0001C000
0001C000
0001C000
0001C000
0001C000
0001C000
0001C000
0001C000
0001C000
0001C000
0001C000
0001C000
0001C000
0001C000
0001FFFF
0001FFFF
0001FFFF
00000000
00000000
00000000
00000000
00000000
00000000
00000000
00000000
00000000
00000000
00000000
00000000
00000000
00000000
00000000
00000000
00000000
00000000
00000000
00000000
00000000
00000000
00000000
00000000
00000000
00000000
00000000
00000000
00000000
00000000
00000000
ENDCHAR

STARTCHAR CODE193
ENCODING 193
SWIDTH 451 0
DWIDTH 32 0
BBX 32 64 0 -6
BITMAP
0001C000
0001C000
0001C000
0001C000
0001C000
0001C000
0001C000
0001C000
0001C000
0001C000
0001C000
0001C000
0001C000
0001C000
0001C000
0001C000
0001C000
0001C000
0001C000
0001C000
0001C000
0001C000
0001C000
0001C000
0001C000
0001C000
0001C000
0001C000
0001C000
0001C000
FFFFFFFF
FFFFFFFF
FFFFFFFF
00000000
00000000
00000000
00000000
00000000
00000000
00000000
00000000
00000000
00000000
00000000
00000000
00000000
00000000
00000000
00000000
00000000
00000000
00000000
00000000
00000000
00000000
00000000
00000000
00000000
00000000
00000000
00000000
00000000
00000000
00000000
ENDCHAR

STARTCHAR CODE194
ENCODING 194
SWIDTH 451 0
DWIDTH 32 0
BBX 32 64 0 -6
BITMAP
00000000
00000000
00000000
00000000
00000000
00000000
00000000
00000000
00000000
00000000
00000000
00000000
00000000
00000000
00000000
00000000
00000000
00000000
00000000
00000000
00000000
00000000
00000000
00000000
00000000
00000000
00000000
00000000
00000000
00000000
FFFFFFFF
FFFFFFFF
FFFFFFFF
0001C000
0001C000
0001C000
0001C000
0001C000
0001C000
0001C000
0001C000
0001C000
0001C000
0001C000
0001C000
0001C000
0001C000
0001C000
0001C000
0001C000
0001C000
0001C000
0001C000
0001C000
0001C000
0001C000
0001C000
0001C000
0001C000
0001C000
0001C000
0001C000
0001C000
0001C000
ENDCHAR

STARTCHAR CODE195
ENCODING 195
SWIDTH 451 0
DWIDTH 32 0
BBX 32 64 0 -6
BITMAP
0001C000
0001C000
0001C000
0001C000
0001C000
0001C000
0001C000
0001C000
0001C000
0001C000
0001C000
0001C000
0001C000
0001C000
0001C000
0001C000
0001C000
0001C000
0001C000
0001C000
0001C000
0001C000
0001C000
0001C000
0001C000
0001C000
0001C000
0001C000
0001C000
0001C000
0001FFFF
0001FFFF
0001FFFF
0001C000
0001C000
0001C000
0001C000
0001C000
0001C000
0001C000
0001C000
0001C000
0001C000
0001C000
0001C000
0001C000
0001C000
0001C000
0001C000
0001C000
0001C000
0001C000
0001C000
0001C000
0001C000
0001C000
0001C000
0001C000
0001C000
0001C000
0001C000
0001C000
0001C000
0001C000
ENDCHAR

STARTCHAR CODE196
ENCODING 196
SWIDTH 451 0
DWIDTH 32 0
BBX 32 64 0 -6
BITMAP
00000000
00000000
00000000
00000000
00000000
00000000
00000000
00000000
00000000
00000000
00000000
00000000
00000000
00000000
00000000
00000000
00000000
00000000
00000000
00000000
00000000
00000000
00000000
00000000
00000000
00000000
00000000
00000000
00000000
00000000
FFFFFFFF
FFFFFFFF
FFFFFFFF
00000000
00000000
00000000
00000000
00000000
00000000
00000000
00000000
00000000
00000000
00000000
00000000
00000000
00000000
00000000
00000000
00000000
00000000
00000000
00000000
00000000
00000000
00000000
00000000
00000000
00000000
00000000
00000000
00000000
00000000
00000000
ENDCHAR

STARTCHAR CODE197
ENCODING 197
SWIDTH 451 0
DWIDTH 32 0
BBX 32 64 0 -6
BITMAP
0001C000
0001C000
0001C000
0001C000
0001C000
0001C000
0001C000
0001C000
0001C000
0001C000
0001C000
0001C000
0001C000
0001C000
0001C000
0001C000
0001C000
0001C000
0001C000
0001C000
0001C000
0001C000
0001C000
0001C000
0001C000
0001C000
0001C000
0001C000
0001C000
0001C000
FFFFFFFF
FFFFFFFF
FFFFFFFF
0001C000
0001C000
0001C000
0001C000
0001C000
0001C000
0001C000
0001C000
0001C000
0001C000
0001C000
0001C000
0001C000
0001C000
0001C000
0001C000
0001C000
0001C000
0001C000
0001C000
0001C000
0001C000
0001C000
0001C000
0001C000
0001C000
0001C000
0001C000
0001C000
0001C000
0001C000
ENDCHAR

STARTCHAR CODE198
ENCODING 198
SWIDTH 451 0
DWIDTH 32 0
BBX 32 64 0 -6
BITMAP
0001C000
0001C000
0001C000
0001C000
0001C000
0001C000
0001C000
0001C000
0001C000
0001C000
0001C000
0001C000
0001C000
0001C000
0001C000
0001C000
0001C000
0001C000
0001C000
0001C000
0001C000
0001C000
0001C000
0001C000
0001C000
0001C000
0001C000
0001FFFF
0001FFFF
0001FFFF
0001C000
0001C000
0001C000
0001FFFF
0001FFFF
0001FFFF
0001C000
0001C000
0001C000
0001C000
0001C000
0001C000
0001C000
0001C000
0001C000
0001C000
0001C000
0001C000
0001C000
0001C000
0001C000
0001C000
0001C000
0001C000
0001C000
0001C000
0001C000
0001C000
0001C000
0001C000
0001C000
0001C000
0001C000
0001C000
ENDCHAR

STARTCHAR CODE199
ENCODING 199
SWIDTH 451 0
DWIDTH 32 0
BBX 32 64 0 -6
BITMAP
000E3800
000E3800
000E3800
000E3800
000E3800
000E3800
000E3800
000E3800
000E3800
000E3800
000E3800
000E3800
000E3800
000E3800
000E3800
000E3800
000E3800
000E3800
000E3800
000E3800
000E3800
000E3800
000E3800
000E3800
000E3800
000E3800
000E3800
000E3800
000E3800
000E3800
000E3FFF
000E3FFF
000E3FFF
000E3800
000E3800
000E3800
000E3800
000E3800
000E3800
000E3800
000E3800
000E3800
000E3800
000E3800
000E3800
000E3800
000E3800
000E3800
000E3800
000E3800
000E3800
000E3800
000E3800
000E3800
000E3800
000E3800
000E3800
000E3800
000E3800
000E3800
000E3800
000E3800
000E3800
000E3800
ENDCHAR

STARTCHAR CODE200
ENCODING 200
SWIDTH 451 0
DWIDTH 32 0
BBX 32 64 0 -6
BITMAP
000E3800
000E3800
000E3800
000E3800
000E3800
000E3800
000E3800
000E3800
000E3800
000E3800
000E3800
000E3800
000E3800
000E3800
000E3800
000E3800
000E3800
000E3800
000E3800
000E3800
000E3800
000E3800
000E3800
000E3800
000E3800
000E3800
000E3800
000E3FFF
000E3FFF
000E3FFF
000E0000
000E0000
000E0000
000FFFFF
000FFFFF
000FFFFF
00000000
00000000
00000000
00000000
00000000
00000000
00000000
00000000
00000000
00000000
00000000
00000000
00000000
00000000
00000000
00000000
00000000
00000000
00000000
00000000
00000000
00000000
00000000
00000000
00000000
00000000
00000000
00000000
ENDCHAR

STARTCHAR CODE201
ENCODING 201
SWIDTH 451 0
DWIDTH 32 0
BBX 32 64 0 -6
BITMAP
00000000
00000000
00000000
00000000
00000000
00000000
00000000
00000000
00000000
00000000
00000000
00000000
00000000
00000000
00000000
00000000
00000000
00000000
00000000
00000000
00000000
00000000
00000000
00000000
00000000
00000000
00000000
000FFFFF
000FFFFF
000FFFFF
000E0000
000E0000
000E0000
000E3FFF
000E3FFF
000E3FFF
000E3800
000E3800
000E3800
000E3800
000E3800
000E3800
000E3800
000E3800
000E3800
000E3800
000E3800
000E3800
000E3800
000E3800
000E3800
000E3800
000E3800
000E3800
000E3800
000E3800
000E3800
000E3800
000E3800
000E3800
000E3800
000E3800
000E3800
000E3800
ENDCHAR

STARTCHAR CODE202
ENCODING 202
SWIDTH 451 0
DWIDTH 32 0
BBX 32 64 0 -6
BITMAP
000E3800
000E3800
000E3800
000E3800
000E3800
000E3800
000E3800
000E3800
000E3800
000E3800
000E3800
000E3800
000E3800
000E3800
000E3800
000E3800
000E3800
000E3800
000E3800
000E3800
000E3800
000E3800
000E3800
000E3800
000E3800
000E3800
000E3800
FFFE3FFF
FFFE3FFF
FFFE3FFF
00000000
00000000
00000000
FFFFFFFF
FFFFFFFF
FFFFFFFF
00000000
00000000
00000000
00000000
00000000
00000000
00000000
00000000
00000000
00000000
00000000
00000000
00000000
00000000
00000000
00000000
00000000
00000000
00000000
00000000
00000000
00000000
00000000
00000000
00000000
00000000
00000000
00000000
ENDCHAR

STARTCHAR CODE203
ENCODING 203
SWIDTH 451 0
DWIDTH 32 0
BBX 32 64 0 -6
BITMAP
00000000
00000000
00000000
00000000
00000000
00000000
00000000
00000000
00000000
00000000
00000000
00000000
00000000
00000000
00000000
00000000
00000000
00000000
00000000
00000000
00000000
00000000
00000000
00000000
00000000
00000000
00000000
FFFFFFFF
FFFFFFFF
FFFFFFFF
00000000
00000000
00000000
FFFE3FFF
FFFE3FFF
FFFE3FFF
000E3800
000E3800
000E3800
000E3800
000E3800
000E3800
000E3800
000E3800
000E3800
000E3800
000E3800
000E3800
000E3800
000E3800
000E3800
000E3800
000E3800
000E3800
000E3800
000E3800
000E3800
000E3800
000E3800
000E3800
000E3800
000E3800
000E3800
000E3800
ENDCHAR

STARTCHAR CODE204
ENCODING 204
SWIDTH 451 0
DWIDTH 32 0
BBX 32 64 0 -6
BITMAP
000E3800
000E3800
000E3800
000E3800
000E3800
000E3800
000E3800
000E3800
000E3800
000E3800
000E3800
000E3800
000E3800
000E3800
000E3800
000E3800
000E3800
000E3800
000E3800
000E3800
000E3800
000E3800
000E3800
000E3800
000E3800
000E3800
000E3800
000E3FFF
000E3FFF
000E3FFF
000E0000
000E0000
000E0000
000E3FFF
000E3FFF
000E3FFF
000E3800
000E3800
000E3800
000E3800
000E3800
000E3800
000E3800
000E3800
000E3800
000E3800
000E3800
000E3800
000E3800
000E3800
000E3800
000E3800
000E3800
000E3800
000E3800
000E3800
000E3800
000E3800
000E3800
000E3800
000E3800
000E3800
000E3800
000E3800
ENDCHAR

STARTCHAR CODE205
ENCODING 205
SWIDTH 451 0
DWIDTH 32 0
BBX 32 64 0 -6
BITMAP
00000000
00000000
00000000
00000000
00000000
00000000
00000000
00000000
00000000
00000000
00000000
00000000
00000000
00000000
00000000
00000000
00000000
00000000
00000000
00000000
00000000
00000000
00000000
00000000
00000000
00000000
00000000
FFFFFFFF
FFFFFFFF
FFFFFFFF
00000000
00000000
00000000
FFFFFFFF
FFFFFFFF
FFFFFFFF
00000000
00000000
00000000
00000000
00000000
00000000
00000000
00000000
00000000
00000000
00000000
00000000
00000000
00000000
00000000
00000000
00000000
00000000
00000000
00000000
00000000
00000000
00000000
00000000
00000000
00000000
00000000
00000000
ENDCHAR

STARTCHAR CODE206
ENCODING 206
SWIDTH 451 0
DWIDTH 32 0
BBX 32 64 0 -6
BITMAP
000E3800
000E3800
000E3800
000E3800
000E3800
000E3800
000E3800
000E3800
000E3800
000E3800
000E3800
000E3800
000E3800
000E3800
000E3800
000E3800
000E3800
000E3800
000E3800
000E3800
000E3800
000E3800
000E3800
000E3800
000E3800
000E3800
000E3800
FFFE3FFF
FFFE3FFF
FFFE3FFF
00000000
00000000
00000000
FFFE3FFF
FFFE3FFF
FFFE3FFF
000E3800
000E3800
000E3800
000E3800
000E3800
000E3800
000E3800
000E3800
000E3800
000E3800
000E3800
000E3800
000E3800
000E3800
000E3800
000E3800
000E3800
000E3800
000E3800
000E3800
000E3800
000E3800
000E3800
000E3800
000E3800
000E3800
000E3800
000E3800
ENDCHAR

STARTCHAR CODE207
ENCODING 207
SWIDTH 451 0
DWIDTH 32 0
BBX 32 64 0 -6
BITMAP
0001C000
0001C000
0001C000
0001C000
0001C000
0001C000
0001C000
0001C000
0001C000
0001C000
0001C000
0001C000
0001C000
0001C000
0001C000
0001C000
0001C000
0001C000
0001C000
0001C000
0001C000
0001C000
0001C000
0001C000
0001C000
0001C000
0001C000
FFFFFFFF
FFFFFFFF
FFFFFFFF
00000000
00000000
00000000
FFFFFFFF
FFFFFFFF
FFFFFFFF
00000000
00000000
00000000
00000000
00000000
00000000
00000000
00000000
00000000
00000000
00000000
00000000
00000000
00000000
00000000
00000000
00000000
00000000
00000000
00000000
00000000
00000000
00000000
00000000
00000000
00000000
00000000
00000000
ENDCHAR

STARTCHAR CODE208
ENCODING 208
SWIDTH 451 0
DWIDTH 32 0
BBX 32 64 0 -6
BITMAP
000E3800
000E3800
000E3800
000E3800
000E3800
000E3800
000E3800
000E3800
000E3800
000E3800
000E3800
000E3800
000E3800
000E3800
000E3800
000E3800
000E3800
000E3800
000E3800
000E3800
000E3800
000E3800
000E3800
000E3800
000E3800
000E3800
000E3800
000E3800
000E3800
000E3800
FFFFFFFF
FFFFFFFF
FFFFFFFF
00000000
00000000
00000000
00000000
00000000
00000000
00000000
00000000
00000000
00000000
00000000
00000000
00000000
00000000
00000000
00000000
00000000
00000000
00000000
00000000
00000000
00000000
00000000
00000000
00000000
00000000
00000000
00000000
00000000
00000000
00000000
ENDCHAR

STARTCHAR CODE209
ENCODING 209
SWIDTH 451 0
DWIDTH 32 0
BBX 32 64 0 -6
BITMAP
00000000
00000000
00000000
00000000
00000000
00000000
00000000
00000000
00000000
00000000
00000000
00000000
00000000
00000000
00000000
00000000
00000000
00000000
00000000
00000000
00000000
00000000
00000000
00000000
00000000
00000000
00000000
FFFFFFFF
FFFFFFFF
FFFFFFFF
00000000
00000000
00000000
FFFFFFFF
FFFFFFFF
FFFFFFFF
0001C000
0001C000
0001C000
0001C000
0001C000
0001C000
0001C000
0001C000
0001C000
0001C000
0001C000
0001C000
0001C000
0001C000
0001C000
0001C000
0001C000
0001C000
0001C000
0001C000
0001C000
0001C000
0001C000
0001C000
0001C000
0001C000
0001C000
0001C000
ENDCHAR

STARTCHAR CODE210
ENCODING 210
SWIDTH 451 0
DWIDTH 32 0
BBX 32 64 0 -6
BITMAP
00000000
00000000
00000000
00000000
00000000
00000000
00000000
00000000
00000000
00000000
00000000
00000000
00000000
00000000
00000000
00000000
00000000
00000000
00000000
00000000
00000000
00000000
00000000
00000000
00000000
00000000
00000000
00000000
00000000
00000000
FFFFFFFF
FFFFFFFF
FFFFFFFF
000E3800
000E3800
000E3800
000E3800
000E3800
000E3800
000E3800
000E3800
000E3800
000E3800
000E3800
000E3800
000E3800
000E3800
000E3800
000E3800
000E3800
000E3800
000E3800
000E3800
000E3800
000E3800
000E3800
000E3800
000E3800
000E3800
000E3800
000E3800
000E3800
000E3800
000E3800
ENDCHAR

STARTCHAR CODE211
ENCODING 211
SWIDTH 451 0
DWIDTH 32 0
BBX 32 64 0 -6
BITMAP
000E3800
000E3800
000E3800
000E3800
000E3800
000E3800
000E3800
000E3800
000E3800
000E3800
000E3800
000E3800
000E3800
000E3800
000E3800
000E3800
000E3800
000E3800
000E3800
000E3800
000E3800
000E3800
000E3800
000E3800
000E3800
000E3800
000E3800
000E3800
000E3800
000E3800
000FFFFF
000FFFFF
000FFFFF
00000000
00000000
00000000
00000000
00000000
00000000
00000000
00000000
00000000
00000000
00000000
00000000
00000000
00000000
00000000
00000000
00000000
00000000
00000000
00000000
00000000
00000000
00000000
00000000
00000000
00000000
00000000
00000000
00000000
00000000
00000000
ENDCHAR

STARTCHAR CODE212
ENCODING 212
SWIDTH 451 0
DWIDTH 32 0
BBX 32 64 0 -6
BITMAP
0001C000
0001C000
0001C000
0001C000
0001C000
0001C000
0001C000
0001C000
0001C000
0001C000
0001C000
0001C000
0001C000
0001C000
0001C000
0001C000
0001C000
0001C000
0001C000
0001C000
0001C000
0001C000
0001C000
0001C000
0001C000
0001C000
0001C000
0001FFFF
0001FFFF
0001FFFF
0001C000
0001C000
0001C000
0001FFFF
0001FFFF
0001FFFF
00000000
00000000
00000000
00000000
00000000
00000000
00000000
00000000
00000000
00000000
00000000
00000000
00000000
00000000
00000000
00000000
00000000
00000000
00000000
00000000
00000000
00000000
00000000
00000000
00000000
00000000
00000000
00000000
ENDCHAR

STARTCHAR CODE213
ENCODING 213
SWIDTH 451 0
DWIDTH 32 0
BBX 32 64 0 -6
BITMAP
00000000
00000000
00000000
00000000
00000000
00000000
00000000
00000000
00000000
00000000
00000000
00000000
00000000
00000000
00000000
00000000
00000000
00000000
00000000
00000000
00000000
00000000
00000000
00000000
00000000
00000000
00000000
0001FFFF
0001FFFF
0001FFFF
0001C000
0001C000
0001C000
0001FFFF
0001FFFF
0001FFFF
0001C000
0001C000
0001C000
0001C000
0001C000
0001C000
0001C000
0001C000
0001C000
0001C000
0001C000
0001C000
0001C000
0001C000
0001C000
0001C000
0001C000
0001C000
0001C000
0001C000
0001C000
0001C000
0001C000
0001C000
0001C000
0001C000
0001C000
0001C000
ENDCHAR

STARTCHAR CODE214
ENCODING 214
SWIDTH 451 0
DWIDTH 32 0
BBX 32 64 0 -6
BITMAP
00000000
00000000
00000000
00000000
00000000
00000000
00000000
00000000
00000000
00000000
00000000
00000000
00000000
00000000
00000000
00000000
00000000
00000000
00000000
00000000
00000000
00000000
00000000
00000000
00000000
00000000
00000000
00000000
00000000
00000000
000FFFFF
000FFFFF
000FFFFF
000E3800
000E3800
000E3800
000E3800
000E3800
000E3800
000E3800
000E3800
000E3800
000E3800
000E3800
000E3800
000E3800
000E3800
000E3800
000E3800
000E3800
000E3800
000E3800
000E3800
000E3800
000E3800
000E3800
000E3800
000E3800
000E3800
000E3800
000E3800
000E3800
000E3800
000E3800
ENDCHAR

STARTCHAR CODE215
ENCODING 215
SWIDTH 451 0
DWIDTH 32 0
BBX 32 64 0 -6
BITMAP
000E3800
000E3800
000E3800
000E3800
000E3800
000E3800
000E3800
000E3800
000E3800
000E3800
000E3800
000E3800
000E3800
000E3800
000E3800
000E3800
000E3800
000E3800
000E3800
000E3800
000E3800
000E3800
000E3800
000E3800
000E3800
000E3800
000E3800
000E3800
000E3800
000E3800
FFFFFFFF
FFFFFFFF
FFFFFFFF
000E3800
000E3800
000E3800
000E3800
000E3800
000E3800
000E3800
000E3800
000E3800
000E3800
000E3800
000E3800
000E3800
000E3800
000E3800
000E3800
000E3800
000E3800
000E3800
000E3800
000E3800
000E3800
000E3800
000E3800
000E3800
000E3800
000E3800
000E3800
000E3800
000E3800
000E3800
ENDCHAR

STARTCHAR CODE216
ENCODING 216
SWIDTH 451 0
DWIDTH 32 0
BBX 32 64 0 -6
BITMAP
0001C000
0001C000
0001C000
0001C000
0001C000
0001C000
0001C000
0001C000
0001C000
0001C000
0001C000
0001C000
0001C000
0001C000
0001C000
0001C000
0001C000
0001C000
0001C000
0001C000
0001C000
0001C000
0001C000
0001C000
0001C000
0001C000
0001C000
FFFFFFFF
FFFFFFFF
FFFFFFFF
0001C000
0001C000
0001C000
FFFFFFFF
FFFFFFFF
FFFFFFFF
0001C000
0001C000
0001C000
0001C000
0001C000
0001C000
0001C000
0001C000
0001C000
0001C000
0001C000
0001C000
0001C000
0001C000
0001C000
0001C000
0001C000
0001C000
0001C000
0001C000
0001C000
0001C000
0001C000
0001C000
0001C000
0001C000
0001C000
0001C000
ENDCHAR

STARTCHAR CODE217
ENCODING 217
SWIDTH 451 0
DWIDTH 32 0
BBX 32 64 0 -6
BITMAP
0001C000
0001C000
0001C000
0001C000
0001C000
0001C000
0001C000
0001C000
0001C000
0001C000
0001C000
0001C000
0001C000
0001C000
0001C000
0001C000
0001C000
0001C000
0001C000
0001C000
0001C000
0001C000
0001C000
0001C000
0001C000
0001C000
0001C000
0001C000
0001C000
0001C000
FFFFC000
FFFFC000
FFFFC000
00000000
00000000
00000000
00000000
00000000
00000000
00000000
00000000
00000000
00000000
00000000
00000000
00000000
00000000
00000000
00000000
00000000
00000000
00000000
00000000
00000000
00000000
00000000
00000000
00000000
00000000
00000000
00000000
00000000
00000000
00000000
ENDCHAR

STARTCHAR CODE218
ENCODING 218
SWIDTH 451 0
DWIDTH 32 0
BBX 32 64 0 -6
BITMAP
00000000
00000000
00000000
00000000
00000000
00000000
00000000
00000000
00000000
00000000
00000000
00000000
00000000
00000000
00000000
00000000
00000000
00000000
00000000
00000000
00000000
00000000
00000000
00000000
00000000
00000000
00000000
00000000
00000000
00000000
0001FFFF
0001FFFF
0001FFFF
0001C000
0001C000
0001C000
0001C000
0001C000
0001C000
0001C000
0001C000
0001C000
0001C000
0001C000
0001C000
0001C000
0001C000
0001C000
0001C000
0001C000
0001C000
0001C000
0001C000
0001C000
0001C000
0001C000
0001C000
0001C000
0001C000
0001C000
0001C000
0001C000
0001C000
0001C000
ENDCHAR

STARTCHAR CODE219
ENCODING 219
SWIDTH 451 0
DWIDTH 32 0
BBX 32 64 0 -6
BITMAP
FFFFFFFF
FFFFFFFF
FFFFFFFF
FFFFFFFF
FFFFFFFF
FFFFFFFF
FFFFFFFF
FFFFFFFF
FFFFFFFF
FFFFFFFF
FFFFFFFF
FFFFFFFF
FFFFFFFF
FFFFFFFF
FFFFFFFF
FFFFFFFF
FFFFFFFF
FFFFFFFF
FFFFFFFF
FFFFFFFF
FFFFFFFF
FFFFFFFF
FFFFFFFF
FFFFFFFF
FFFFFFFF
FFFFFFFF
FFFFFFFF
FFFFFFFF
FFFFFFFF
FFFFFFFF
FFFFFFFF
FFFFFFFF
FFFFFFFF
FFFFFFFF
FFFFFFFF
FFFFFFFF
FFFFFFFF
FFFFFFFF
FFFFFFFF
FFFFFFFF
FFFFFFFF
FFFFFFFF
FFFFFFFF
FFFFFFFF
FFFFFFFF
FFFFFFFF
FFFFFFFF
FFFFFFFF
FFFFFFFF
FFFFFFFF
FFFFFFFF
FFFFFFFF
FFFFFFFF
FFFFFFFF
FFFFFFFF
FFFFFFFF
FFFFFFFF
FFFFFFFF
FFFFFFFF
FFFFFFFF
FFFFFFFF
FFFFFFFF
FFFFFFFF
FFFFFFFF
ENDCHAR

STARTCHAR CODE220
ENCODING 220
SWIDTH 451 0
DWIDTH 32 0
BBX 32 64 0 -6
BITMAP
00000000
00000000
00000000
00000000
00000000
00000000
00000000
00000000
00000000
00000000
00000000
00000000
00000000
00000000
00000000
00000000
00000000
00000000
00000000
00000000
00000000
00000000
00000000
00000000
00000000
00000000
00000000
00000000
00000000
00000000
00000000
FFFFFFFF
FFFFFFFF
FFFFFFFF
FFFFFFFF
FFFFFFFF
FFFFFFFF
FFFFFFFF
FFFFFFFF
FFFFFFFF
FFFFFFFF
FFFFFFFF
FFFFFFFF
FFFFFFFF
FFFFFFFF
FFFFFFFF
FFFFFFFF
FFFFFFFF
FFFFFFFF
FFFFFFFF
FFFFFFFF
FFFFFFFF
FFFFFFFF
FFFFFFFF
FFFFFFFF
FFFFFFFF
FFFFFFFF
FFFFFFFF
FFFFFFFF
FFFFFFFF
FFFFFFFF
FFFFFFFF
FFFFFFFF
FFFFFFFF
ENDCHAR

STARTCHAR CODE221
ENCODING 221
SWIDTH 451 0
DWIDTH 32 0
BBX 32 64 0 -6
BITMAP
FFFF8000
FFFF8000
FFFF8000
FFFF8000
FFFF8000
FFFF8000
FFFF8000
FFFF8000
FFFF8000
FFFF8000
FFFF8000
FFFF8000
FFFF8000
FFFF8000
FFFF8000
FFFF8000
FFFF8000
FFFF8000
FFFF8000
FFFF8000
FFFF8000
FFFF8000
FFFF8000
FFFF8000
FFFF8000
FFFF8000
FFFF8000
FFFF8000
FFFF8000
FFFF8000
FFFF8000
FFFF8000
FFFF8000
FFFF8000
FFFF8000
FFFF8000
FFFF8000
FFFF8000
FFFF8000
FFFF8000
FFFF8000
FFFF8000
FFFF8000
FFFF8000
FFFF8000
FFFF8000
FFFF8000
FFFF8000
FFFF8000
FFFF8000
FFFF8000
FFFF8000
FFFF8000
FFFF8000
FFFF8000
FFFF8000
FFFF8000
FFFF8000
FFFF8000
FFFF8000
FFFF8000
FFFF8000
FFFF8000
FFFF8000
ENDCHAR

STARTCHAR CODE222
ENCODING 222
SWIDTH 451 0
DWIDTH 32 0
BBX 32 64 0 -6
BITMAP
0000FFFF
0000FFFF
0000FFFF
0000FFFF
0000FFFF
0000FFFF
0000FFFF
0000FFFF
0000FFFF
0000FFFF
0000FFFF
0000FFFF
0000FFFF
0000FFFF
0000FFFF
0000FFFF
0000FFFF
0000FFFF
0000FFFF
0000FFFF
0000FFFF
0000FFFF
0000FFFF
0000FFFF
0000FFFF
0000FFFF
0000FFFF
0000FFFF
0000FFFF
0000FFFF
0000FFFF
0000FFFF
0000FFFF
0000FFFF
0000FFFF
0000FFFF
0000FFFF
0000FFFF
0000FFFF
0000FFFF
0000FFFF
0000FFFF
0000FFFF
0000FFFF
0000FFFF
0000FFFF
0000FFFF
0000FFFF
0000FFFF
0000FFFF
0000FFFF
0000FFFF
0000FFFF
0000FFFF
0000FFFF
0000FFFF
0000FFFF
0000FFFF
0000FFFF
0000FFFF
0000FFFF
0000FFFF
0000FFFF
0000FFFF
ENDCHAR

STARTCHAR CODE223
ENCODING 223
SWIDTH 451 0
DWIDTH 32 0
BBX 32 64 0 -6
BITMAP
FFFFFFFF
FFFFFFFF
FFFFFFFF
FFFFFFFF
FFFFFFFF
FFFFFFFF
FFFFFFFF
FFFFFFFF
FFFFFFFF
FFFFFFFF
FFFFFFFF
FFFFFFFF
FFFFFFFF
FFFFFFFF
FFFFFFFF
FFFFFFFF
FFFFFFFF
FFFFFFFF
FFFFFFFF
FFFFFFFF
FFFFFFFF
FFFFFFFF
FFFFFFFF
FFFFFFFF
FFFFFFFF
FFFFFFFF
FFFFFFFF
FFFFFFFF
FFFFFFFF
FFFFFFFF
FFFFFFFF
FFFFFFFF
00000000
00000000
00000000
00000000
00000000
00000000
00000000
00000000
00000000
00000000
00000000
00000000
00000000
00000000
00000000
00000000
00000000
00000000
00000000
00000000
00000000
00000000
00000000
00000000
00000000
00000000
00000000
00000000
00000000
00000000
00000000
00000000
ENDCHAR

STARTCHAR CODE224
ENCODING 224
SWIDTH 451 0
DWIDTH 32 0
BBX 32 64 0 -6
BITMAP
00000000
00000000
00000000
00000000
00000000
00000000
00000000
00000000
00000000
00000000
00000000
00000000
00000000
00000000
00000000
00000000
00000000
00000000
00000000
00000000
001FC0C0
003FE1E0
007FF1E0
007DF1E0
00F8F3E0
00F8FBE0
00F87BE0
01F07BC0
01F07BC0
01F07FC0
03F07F80
03E07F80
03E07F80
03E07F00
03E07F00
03E07F00
03E07E00
03E07E00
03E07E00
03E07C00
03E0FC00
03E0FC00
01E0F860
01F0F8E0
01F1FDE0
01F9FFE0
00FFFFC0
00FFDFC0
007F9F80
001E0F00
00000000
00000000
00000000
00000000
00000000
00000000
00000000
00000000
00000000
00000000
00000000
00000000
00000000
00000000
ENDCHAR

STARTCHAR CODE225
ENCODING 225
SWIDTH 451 0
DWIDTH 32 0
BBX 32 64 0 -6
BITMAP
00000000
00000000
00000000
00000000
0000F000
0003FC00
0007FE00
000FFE00
000FFF00
001E3F00
001C0F80
003C0F80
003C0780
00380780
00780780
00780780
00780780
00F80780
00F00780
00F00780
00F00F00
00F00F00
01F00F00
01F01E00
01F3FE00
01F7FC00
01F7FC00
01F7FC00
01F7FE00
01F3FF00
01F00F00
01F00780
01F00780
01F00380
01F003C0
01F003C0
01F003C0
01F003C0
01F003C0
01F003C0
01F007C0
01F807C0
01F807C0
01FC0F80
01FE3F80
01FFFF80
01FFFF00
01F7FF00
01F3FE00
01F0F800
01F00000
01F00000
01F00000
01F00000
01F00000
01F00000
00E00000
00000000
00000000
00000000
00000000
00000000
00000000
00000000
ENDCHAR

STARTCHAR CODE226
ENCODING 226
SWIDTH 451 0
DWIDTH 32 0
BBX 32 64 0 -6
BITMAP
00000000
00000000
00000000
00000000
00000000
00000000
1FFFFFFC
1FFFFFFC
1FFFFFFC
01F800FC
00F8007C
00F8003C
00F8003C
00F8001C
00F8001C
00F8001C
00F8000C
00F8000C
00F80000
00F80000
00F80000
00F80000
00F80000
00F80000
00F80000
00F80000
00F80000
00F80000
00F80000
00F80000
00F80000
00F80000
00F80000
00F80000
00F80000
00F80000
00F80000
00F80000
00F80000
00F80000
00F80000
00F80000
00F80000
00F80000
00F80000
00F80000
00F80000
01FC0000
3FFFE000
3FFFE000
3FFFE000
00000000
00000000
00000000
00000000
00000000
00000000
00000000
00000000
00000000
00000000
00000000
00000000
00000000
ENDCHAR

STARTCHAR CODE227
ENCODING 227
SWIDTH 451 0
DWIDTH 32 0
BBX 32 64 0 -6
BITMAP
00000000
00000000
00000000
00000000
00000000
00000000
00000000
00000000
00000000
00000000
00000000
00000000
00000000
00000000
00000000
00000000
00000000
00000000
00000000
00000000
00000070
003FE0F0
00FFF9F0
01FFFFE0
01FFFFE0
03FFFFC0
03CEFF00
038E7000
038E7000
030E7000
000E7000
000E7000
000E7000
000E7000
001E7000
001E7000
001E7000
001E7800
001C7800
003C7800
003C7800
003C7800
007C7C00
007C3C00
00FC3C00
00F83E60
01F83FE0
01F83FE0
01F01FC0
01F01F80
00E00F00
00000000
00000000
00000000
00000000
00000000
00000000
00000000
00000000
00000000
00000000
00000000
00000000
00000000
ENDCHAR

STARTCHAR CODE228
ENCODING 228
SWIDTH 451 0
DWIDTH 32 0
BBX 32 64 0 -6
BITMAP
00000000
00000000
00000000
00000000
00000000
00000000
0FFFFFC0
0FFFFFC0
0FFFFFC0
0FC00FC0
07C007C0
07E003C0
03E003C0
03F001C0
01F001C0
01F801C0
00F800C0
00FC00C0
007C0000
007E0000
003E0000
003F0000
001F0000
001F8000
000F8000
000FC000
0007C000
0007C000
0003C000
0003C000
00078000
00078000
000F0000
000F0000
001E0000
001E0000
003C0000
003C0000
00780060
00780060
00F00060
00F000E0
01E000E0
01E001E0
03C003E0
03C007E0
07FFFFE0
07FFFFE0
07FFFFE0
07FFFFE0
07FFFFE0
00000000
00000000
00000000
00000000
00000000
00000000
00000000
00000000
00000000
00000000
00000000
00000000
00000000
ENDCHAR

STARTCHAR CODE229
ENCODING 229
SWIDTH 451 0
DWIDTH 32 0
BBX 32 64 0 -6
BITMAP
00000000
00000000
00000000
00000000
00000000
00000000
00000000
00000000
00000000
00000000
00000000
00000000
00000000
00000000
00000000
00000000
00000000
00000000
00000380
00001FC0
0000FFC0
0003FFC0
000FFFC0
001F8FC0
003FC380
003FF000
007FF800
007CFC00
00F83C00
00F01E00
01F01E00
01F01F00
01E01F00
03E00F00
03E00F00
03E00F00
03C00F00
03C00F00
03C00F00
03C00F00
03C01F00
03E01F00
03E01E00
03E01E00
01E03E00
01E03E00
01F03C00
00F07C00
00F9F800
007FF000
003FE000
000F8000
00000000
00000000
00000000
00000000
00000000
00000000
00000000
00000000
00000000
00000000
00000000
00000000
ENDCHAR

STARTCHAR CODE230
ENCODING 230
SWIDTH 451 0
DWIDTH 32 0
BBX 32 64 0 -6
BITMAP
00000000
00000000
00000000
00000000
00000000
00000000
00000000
00000000
00000000
00000000
00000000
00000000
00000000
00000000
00000000
00000000
00000000
00000000
00000000
00000000
00380700
003C0780
007C0F80
007C0F80
007C0F80
007C0F80
00FC0F80
00F80F80
00F81F00
00F81F00
00F81F00
00F01F00
00F01E00
00F01E00
00F01E00
00F01E00
01E01E00
01E03E00
01E03C00
01F03C00
01F03C00
01F87C30
01F87E70
01FCFFF0
01FFFFE0
01DFEFE0
01DFEFC0
03CFC780
03C78000
03C00000
03C00000
03C00000
03C00000
03C00000
03C00000
03C00000
03C00000
03C00000
03C00000
01800000
00000000
00000000
00000000
00000000
ENDCHAR

STARTCHAR CODE231
ENCODING 231
SWIDTH 451 0
DWIDTH 32 0
BBX 32 64 0 -6
BITMAP
00000000
00000000
00000000
00000000
00000000
00000000
00000000
00000000
00000000
00000000
00000000
00000000
00000000
00000000
00000000
00000000
00000000
00000000
00000000
00000000
00000300
000F8700
003FFF00
007FFF00
007FFF00
00FFFE00
00F3FC00
01E38000
01C38000
01838000
00078000
00070000
00070000
00070000
000F0000
000F0000
000F0000
000F0000
000F0000
001E0000
001E0000
001E0000
001E0000
001F0000
001F0000
001F1800
001FB800
001FF800
001FF000
000FF000
000FE000
0007C000
00000000
00000000
00000000
00000000
00000000
00000000
00000000
00000000
00000000
00000000
00000000
00000000
ENDCHAR

STARTCHAR CODE232
ENCODING 232
SWIDTH 451 0
DWIDTH 32 0
BBX 32 64 0 -6
BITMAP
00000000
00000000
00000000
00000000
00000000
00000000
003FFC00
003FFC00
003FFC00
0007E000
001FF800
007FFE00
00FFFF00
01FFFF80
03FBDFC0
03E3C7C0
07C3C3E0
07C3C3E0
0F83C1F0
0F83C1F0
0F83C1F0
1F83C1F8
1F03C0F8
1F03C0F8
1F03C0F8
1F03C0F8
1F03C0F8
1F03C0F8
1F03C0F8
1F03C0F8
1F03C0F8
1F03C0F8
1F03C0F8
1F03C0F8
1F03C0F8
1F83C1F8
0F83C1F0
0F83C1F0
0F83C3F0
07C3C3E0
07C3C3E0
03E3C7C0
03FBDFC0
01FFFF80
00FFFF00
007FFE00
001FF800
0007E000
003FFC00
003FFC00
003FFC00
00000000
00000000
00000000
00000000
00000000
00000000
00000000
00000000
00000000
00000000
00000000
00000000
00000000
ENDCHAR

STARTCHAR CODE233
ENCODING 233
SWIDTH 451 0
DWIDTH 32 0
BBX 32 64 0 -6
BITMAP
00000000
00000000
00000000
00000000
000FF800
003FFE00
007FFF00
00FC1F80
00F80F80
01F007C0
01F007C0
03E003E0
03E003E0
07C001F0
07C001F0
07C001F0
0F8000F8
0F8000F8
0F8000F8
0F8000F8
0FB006F8
1F30067C
1F380E7C
1F380E7C
1F3C1E7C
1F3FFE7C
1F3FFE7C
1F3FFE7C
1F3FFE7C
1F3FFE7C
1F3C1E7C
1F380E7C
1F380E7C
1F30067C
0FB006F8
0F8000F8
0F8000F8
0F8000F8
0F8000F8
07C001F0
07C001F0
07C001F0
03E003E0
03E003E0
01F007C0
01F007C0
00F80F80
00FC1F80
007FFF00
003FFE00
000FF800
00000000
00000000
00000000
00000000
00000000
00000000
00000000
00000000
00000000
00000000
00000000
00000000
00000000
ENDCHAR

STARTCHAR CODE234
ENCODING 234
SWIDTH 451 0
DWIDTH 32 0
BBX 32 64 0 -6
BITMAP
00000000
00000000
00000000
00000000
000FF800
003FFE00
00FFFF80
01FFFFC0
03F80FE0
07E003F0
0FC001F8
0F8000F8
1F8000FC
1F00007C
1F00007C
3F00007E
3E00003E
3E00003E
3E00003E
3E00003E
3E00003E
3E00003E
3E00003E
3E00003E
3E00003E
3E00003E
1F00007C
1F00007C
1F00007C
0F8000F8
0F8000F8
07C001F0
07C001F0
03E003E0
01F007C0
00F80F80
007C1F00
003E3E00
001E3C00
000E3800
0C0E3830
0C0E3830
0C0E3830
0E0E3870
0E0E3870
0F0E38F0
0FFE3FF0
0FFE3FF0
0FFE3FF0
0FFE3FF0
0FFE3FF0
00000000
00000000
00000000
00000000
00000000
00000000
00000000
00000000
00000000
00000000
00000000
00000000
00000000
ENDCHAR

STARTCHAR CODE235
ENCODING 235
SWIDTH 451 0
DWIDTH 32 0
BBX 32 64 0 -6
BITMAP
00000000
00000000
00000000
00000000
00000000
0001E000
0007F000
000FF800
000FFC00
001FFE00
001F3E00
001E1F00
001E0F00
001E0F00
000F0780
000F0780
00078380
000783C0
0003C1C0
0003C1C0
0001E0C0
0001F0C0
0000F000
00007800
0003FC00
000FFC00
003FFE00
007E7E00
007C1F00
00F81F00
00F80F80
01F00F80
01F00F80
01F00F80
03E00F80
03E00F80
03E00F80
03E00F80
03E00F80
03E00F80
03E00F80
03E01F00
03E01F00
01F01F00
01F01E00
01F03E00
00F83C00
00F87C00
007DF800
007FF000
003FE000
000F8000
00000000
00000000
00000000
00000000
00000000
00000000
00000000
00000000
00000000
00000000
00000000
00000000
ENDCHAR

STARTCHAR CODE236
ENCODING 236
SWIDTH 451 0
DWIDTH 32 0
BBX 32 64 0 -6
BITMAP
00000000
00000000
00000000
00000000
00000000
00000000
00000000
00000000
00000000
00000000
00000000
00000000
00000000
00000000
00000000
00000000
07C007C0
0FF01FE0
1FF83FF0
3FFC7FF8
3F3C79F8
7E1EF0FC
7C1EF07C
7C0FE07C
F80FE03E
F807C03E
F807C03E
F807C03E
F803803E
F803803E
F803803E
F807C03E
F807C03E
F807C03E
F80FE03E
7C0FE07C
7C1EF07C
7E1EF0FC
3F3C79F8
3FFC7FF8
1FF83FF0
0FF01FE0
07C007C0
00000000
00000000
00000000
00000000
00000000
00000000
00000000
00000000
00000000
00000000
00000000
00000000
00000000
00000000
00000000
00000000
00000000
00000000
00000000
00000000
00000000
ENDCHAR

STARTCHAR CODE237
ENCODING 237
SWIDTH 451 0
DWIDTH 32 0
BBX 32 64 0 -6
BITMAP
00000000
00000000
00000000
00000000
00000000
00000000
00000000
00000000
00000000
00000000
00000000
00000C00
00001E00
00001E00
00001E00
00001E00
00003C00
00003C00
00003800
00003800
000FF800
003FFC00
007FFE00
00FC7F00
00F07F00
01E0F780
01E0E780
01E0E780
03C0E3C0
03C1E3C0
03C1C3C0
03C1C3C0
03C1C3C0
03C3C3C0
03C383C0
03C383C0
03C383C0
03C783C0
01E70780
01E70780
01E70780
00FF0F00
00FE3F00
007FFE00
007FFE00
003FFC00
003FF000
00380000
00380000
00780000
00780000
00F00000
00F00000
00F00000
00F00000
00600000
00000000
00000000
00000000
00000000
00000000
00000000
00000000
00000000
ENDCHAR

STARTCHAR CODE238
ENCODING 238
SWIDTH 451 0
DWIDTH 32 0
BBX 32 64 0 -6
BITMAP
00000000
00000000
00000000
00000000
00000000
00000000
00000000
00000000
00000000
00000000
00000000
00000000
00000000
00000000
00000000
00000000
00000000
00000000
00000000
00000000
000FF000
007FFE00
01FFFF80
03FFFFC0
03FC0FE0
07F001F0
07E00070
07C00000
07C00000
07C00000
07C00000
03E00000
03F3FC00
01FFFE00
00FFFE00
03FFFE00
07F7FC00
07C00000
0F800000
0F800000
0F800000
0F800000
0FC00000
0FC00000
0FE00038
07F000F8
07FC0FF0
03FFFFE0
01FFFFC0
007FFF00
000FF800
00000000
00000000
00000000
00000000
00000000
00000000
00000000
00000000
00000000
00000000
00000000
00000000
00000000
ENDCHAR

STARTCHAR CODE239
ENCODING 239
SWIDTH 451 0
DWIDTH 32 0
BBX 32 64 0 -6
BITMAP
00000000
00000000
00000000
00000000
00000000
00000000
00000000
00000000
000FF000
003FFC00
00FFFF00
01FFFF80
03F81FC0
03E007C0
07C003E0
078001E0
0F8001F0
0F0000F0
0F0000F0
0F0000F0
0F0000F0
0F0000F0
0F0000F0
0F0000F0
0F0000F0
0F0000F0
0F0000F0
0F0000F0
0F0000F0
0F0000F0
0F0000F0
0F0000F0
0F0000F0
0F0000F0
0F0000F0
0F0000F0
0F0000F0
0F0000F0
0F0000F0
0F0000F0
0F0000F0
0F0000F0
0F0000F0
0F0000F0
0F0000F0
0F0000F0
0F0000F0
0F0000F0
0F0000F0
0F0000F0
0F0000F0
0F0000F0
0F0000F0
0F0000F0
00000000
00000000
00000000
00000000
00000000
00000000
00000000
00000000
00000000
00000000
ENDCHAR

STARTCHAR CODE240
ENCODING 240
SWIDTH 451 0
DWIDTH 32 0
BBX 32 64 0 -6
BITMAP
00000000
00000000
00000000
00000000
00000000
00000000
00000000
00000000
00000000
00000000
00000000
00000000
00000000
00000000
00000000
00000000
00000000
00000000
00000000
00000000
00000000
1FFFFFF8
1FFFFFF8
1FFFFFF8
1FFFFFF8
00000000
00000000
00000000
00000000
00000000
1FFFFFF8
1FFFFFF8
1FFFFFF8
1FFFFFF8
00000000
00000000
00000000
00000000
00000000
1FFFFFF8
1FFFFFF8
1FFFFFF8
1FFFFFF8
00000000
00000000
00000000
00000000
00000000
00000000
00000000
00000000
00000000
00000000
00000000
00000000
00000000
00000000
00000000
00000000
00000000
00000000
00000000
00000000
00000000
ENDCHAR

STARTCHAR CODE241
ENCODING 241
SWIDTH 451 0
DWIDTH 32 0
BBX 32 64 0 -6
BITMAP
00000000
00000000
00000000
00000000
00000000
00000000
0003C000
0003C000
0003C000
0003C000
0003C000
0003C000
0003C000
0003C000
0003C000
0003C000
0003C000
0003C000
0003C000
0003C000
1FFFFFF8
1FFFFFF8
1FFFFFF8
1FFFFFF8
0003C000
0003C000
0003C000
0003C000
0003C000
0003C000
0003C000
0003C000
0003C000
0003C000
0003C000
0003C000
0003C000
0003C000
0003C000
00000000
00000000
00000000
00000000
1FFFFFF8
1FFFFFF8
1FFFFFF8
1FFFFFF8
00000000
00000000
00000000
00000000
00000000
00000000
00000000
00000000
00000000
00000000
00000000
00000000
00000000
00000000
00000000
00000000
00000000
ENDCHAR

STARTCHAR CODE242
ENCODING 242
SWIDTH 451 0
DWIDTH 32 0
BBX 32 64 0 -6
BITMAP
00000000
00000000
00000000
00000000
00000000
00000000
00000000
00000000
00000000
00000000
00000000
1F000000
1FC00000
0FE00000
07F80000
01FC0000
00FF0000
003F8000
001FE000
0007F000
0003FC00
0000FE00
00007F80
00001FC0
00000FF0
000003F8
000003F8
00000FF0
00001FC0
00007F80
0000FE00
0003FC00
0007F000
001FE000
003F8000
00FF0000
01FC0000
07F80000
0FE00000
1FC00000
1F000000
00000000
00000000
1FFFFFF8
1FFFFFF8
1FFFFFF8
1FFFFFF8
00000000
00000000
00000000
00000000
00000000
00000000
00000000
00000000
00000000
00000000
00000000
00000000
00000000
00000000
00000000
00000000
00000000
ENDCHAR

STARTCHAR CODE243
ENCODING 243
SWIDTH 451 0
DWIDTH 32 0
BBX 32 64 0 -6
BITMAP
00000000
00000000
00000000
00000000
00000000
00000000
00000000
00000000
00000000
00000000
00000000
000000F8
000003F8
000007F0
00001FE0
00003F80
0000FF00
0001FC00
0007F800
000FE000
003FC000
007F0000
01FE0000
03F80000
0FF00000
1FC00000
1FC00000
0FF00000
03F80000
01FE0000
007F0000
003FC000
000FE000
0007F800
0001FC00
0000FF00
00003F80
00001FE0
000007F0
000003F8
000000F8
00000000
00000000
1FFFFFF8
1FFFFFF8
1FFFFFF8
1FFFFFF8
00000000
00000000
00000000
00000000
00000000
00000000
00000000
00000000
00000000
00000000
00000000
00000000
00000000
00000000
00000000
00000000
00000000
ENDCHAR

STARTCHAR CODE244
ENCODING 244
SWIDTH 451 0
DWIDTH 32 0
BBX 32 64 0 -6
BITMAP
00000000
00000000
00000000
00000000
00000000
00000000
00000000
00000000
00000000
00000000
0007C000
000FE000
001FE000
001FE000
001FE000
001FE000
003BC000
00380000
00380000
00380000
00380000
00380000
00380000
00380000
00380000
00380000
00380000
003C0000
003C0000
003C0000
003C0000
003C0000
003C0000
003C0000
003C0000
001C0000
001C0000
001C0000
001E0000
001E0000
001E0000
001E0000
001E0000
001E0000
001E0000
001E0000
001E0000
001F0000
001F0000
000F0000
000F0000
000F0000
000F0000
000F0000
000F0000
000F0000
000F8000
000F8000
000F8000
00078000
00078000
00078000
00078000
00078000
ENDCHAR

STARTCHAR CODE245
ENCODING 245
SWIDTH 451 0
DWIDTH 32 0
BBX 32 64 0 -6
BITMAP
00078000
00078000
00078000
00078000
0007C000
0007C000
0007C000
0003C000
0003C000
0003C000
0003C000
0003C000
0003C000
0003C000
0003E000
0003E000
0001E000
0001E000
0001E000
0001E000
0001E000
0001E000
0001E000
0001E000
0001E000
0000E000
0000E000
0000E000
0000F000
0000F000
0000F000
0000F000
0000F000
0000F000
0000F000
0000F000
00007000
00007000
00007000
00007000
00007000
00007000
00007000
00007000
00007000
00007000
000F7000
001FE000
001FE000
001FE000
001FE000
001FC000
000F8000
00000000
00000000
00000000
00000000
00000000
00000000
00000000
00000000
00000000
00000000
00000000
ENDCHAR

STARTCHAR CODE246
ENCODING 246
SWIDTH 451 0
DWIDTH 32 0
BBX 32 64 0 -6
BITMAP
00000000
00000000
00000000
00000000
00000000
00000000
00000000
00000000
00000000
00000000
00000000
00000000
00000000
00000000
0001C000
0003E000
0003E000
0003E000
0003E000
0001C000
00000000
00000000
00000000
00000000
00000000
00000000
00000000
00000000
00000000
1FFFFFF8
1FFFFFF8
1FFFFFF8
1FFFFFF8
00000000
00000000
00000000
00000000
00000000
00000000
00000000
00000000
00000000
0001C000
0003E000
0003E000
0003E000
0003E000
0001C000
00000000
00000000
00000000
00000000
00000000
00000000
00000000
00000000
00000000
00000000
00000000
00000000
00000000
00000000
00000000
00000000
ENDCHAR

STARTCHAR CODE247
ENCODING 247
SWIDTH 451 0
DWIDTH 32 0
BBX 32 64 0 -6
BITMAP
00000000
00000000
00000000
00000000
00000000
00000000
00000000
00000000
00000000
00000000
00000000
00000000
00000000
00000000
00000000
00000000
00000000
00000000
00000000
00F00000
03FC0000
07FF0000
0FFF8018
1FFFC038
1F3FE078
3C0FF9F0
3807FFF0
3003FFE0
0001FFC0
00007F80
00001E00
00000000
00F00000
03FC0000
07FF0000
0FFF8018
1FFFC038
1F3FE078
3C0FF9F0
3807FFF0
3003FFE0
0001FFC0
00007F80
00001E00
00000000
00000000
00000000
00000000
00000000
00000000
00000000
00000000
00000000
00000000
00000000
00000000
00000000
00000000
00000000
00000000
00000000
00000000
00000000
00000000
ENDCHAR

STARTCHAR CODE248
ENCODING 248
SWIDTH 451 0
DWIDTH 32 0
BBX 32 64 0 -6
BITMAP
00000000
00000000
00000000
0007E000
001FF800
003FFC00
007E7E00
00781E00
00F00F00
00F00F00
00E00700
00E00700
00F00F00
00F00F00
00781E00
007E7E00
003FFC00
001FF800
0007E000
00000000
00000000
00000000
00000000
00000000
00000000
00000000
00000000
00000000
00000000
00000000
00000000
00000000
00000000
00000000
00000000
00000000
00000000
00000000
00000000
00000000
00000000
00000000
00000000
00000000
00000000
00000000
00000000
00000000
00000000
00000000
00000000
00000000
00000000
00000000
00000000
00000000
00000000
00000000
00000000
00000000
00000000
00000000
00000000
00000000
ENDCHAR

STARTCHAR CODE249
ENCODING 249
SWIDTH 451 0
DWIDTH 32 0
BBX 32 64 0 -6
BITMAP
00000000
00000000
00000000
00000000
00000000
00000000
00000000
00000000
00000000
00000000
00000000
00000000
00000000
00000000
00000000
00000000
00000000
00000000
00000000
00000000
00000000
00000000
00000000
0007E000
001FF800
003FFC00
007FFE00
007FFE00
00FFFF00
00FFFF00
00FFFF00
00FFFF00
00FFFF00
00FFFF00
007FFE00
007FFE00
003FFC00
001FF800
0007E000
00000000
00000000
00000000
00000000
00000000
00000000
00000000
00000000
00000000
00000000
00000000
00000000
00000000
00000000
00000000
00000000
00000000
00000000
00000000
00000000
00000000
00000000
00000000
00000000
00000000
ENDCHAR

STARTCHAR CODE250
ENCODING 250
SWIDTH 451 0
DWIDTH 32 0
BBX 32 64 0 -6
BITMAP
00000000
00000000
00000000
00000000
00000000
00000000
00000000
00000000
00000000
00000000
00000000
00000000
00000000
00000000
00000000
00000000
00000000
00000000
00000000
00000000
00000000
00000000
00000000
00000000
00000000
0003C000
000FF000
001FF800
001FF800
003FFC00
003FFC00
003FFC00
003FFC00
001FF800
001FF800
000FF000
0003C000
00000000
00000000
00000000
00000000
00000000
00000000
00000000
00000000
00000000
00000000
00000000
00000000
00000000
00000000
00000000
00000000
00000000
00000000
00000000
00000000
00000000
00000000
00000000
00000000
00000000
00000000
00000000
ENDCHAR

STARTCHAR CODE251
ENCODING 251
SWIDTH 451 0
DWIDTH 32 0
BBX 32 64 0 -6
BITMAP
0000FFFF
0000FFFF
0000FFFF
0000FFFF
0000E000
0000E000
0001E000
0001E000
0001E000
0001C000
0001C000
0003C000
0003C000
0003C000
00038000
00038000
00078000
00078000
00078000
00070000
00070000
000F0000
000F0000
000F0000
000F0000
000E0000
000E0000
001E0000
001E0000
001E0000
001C0000
001C0000
003C0000
0C3C0000
1C3C0000
1C380000
3E380000
3E780000
7E780000
7E780000
FE700000
FF700000
EF700000
E7F00000
C7F00000
C7E00000
07E00000
07E00000
03E00000
03E00000
03E00000
03C00000
03C00000
01C00000
01C00000
01800000
00000000
00000000
00000000
00000000
00000000
00000000
00000000
00000000
ENDCHAR

STARTCHAR CODE252
ENCODING 252
SWIDTH 451 0
DWIDTH 32 0
BBX 32 64 0 -6
BITMAP
00000000
00000000
00000000
00000000
00000000
00000000
003BE000
007FF800
00FFFC00
00FFFC00
007E3E00
007C1E00
00781E00
00781E00
00781E00
00781E00
00781E00
00781E00
00781E00
00781E00
00781E00
00781E00
00781E00
00781E00
00781E00
00FC3F00
00FC3F00
00FC3F00
00000000
00000000
00000000
00000000
00000000
00000000
00000000
00000000
00000000
00000000
00000000
00000000
00000000
00000000
00000000
00000000
00000000
00000000
00000000
00000000
00000000
00000000
00000000
00000000
00000000
00000000
00000000
00000000
00000000
00000000
00000000
00000000
00000000
00000000
00000000
00000000
ENDCHAR

STARTCHAR CODE253
ENCODING 253
SWIDTH 451 0
DWIDTH 32 0
BBX 32 64 0 -6
BITMAP
00000000
00000000
00000000
00000000
00000000
000FC000
003FF000
007FF800
007CF800
00FC7C00
00FC3C00
00FC3C00
00FC3C00
00787C00
00007800
0000F800
0001F000
0003E000
0007C000
000F8000
001F0000
003E0600
003C0E00
00781E00
007FFE00
007FFE00
007FFE00
007FFE00
00000000
00000000
00000000
00000000
00000000
00000000
00000000
00000000
00000000
00000000
00000000
00000000
00000000
00000000
00000000
00000000
00000000
00000000
00000000
00000000
00000000
00000000
00000000
00000000
00000000
00000000
00000000
00000000
00000000
00000000
00000000
00000000
00000000
00000000
00000000
00000000
ENDCHAR

STARTCHAR CODE254
ENCODING 254
SWIDTH 451 0
DWIDTH 32 0
BBX 32 64 0 -6
BITMAP
00000000
00000000
00000000
00000000
00000000
00000000
00000000
00000000
00000000
00000000
00000000
00FFFF00
00FFFF00
00FFFF00
00FFFF00
00FFFF00
00FFFF00
00FFFF00
00FFFF00
00FFFF00
00FFFF00
00FFFF00
00FFFF00
00FFFF00
00FFFF00
00FFFF00
00FFFF00
00FFFF00
00FFFF00
00FFFF00
00FFFF00
00FFFF00
00FFFF00
00FFFF00
00FFFF00
00FFFF00
00FFFF00
00FFFF00
00FFFF00
00FFFF00
00FFFF00
00FFFF00
00FFFF00
00FFFF00
00FFFF00
00FFFF00
00FFFF00
00FFFF00
00FFFF00
00FFFF00
00FFFF00
00FFFF00
00000000
00000000
00000000
00000000
00000000
00000000
00000000
00000000
00000000
00000000
00000000
00000000
ENDCHAR

STARTCHAR CODE255
ENCODING 255
SWIDTH 451 0
DWIDTH 32 0
BBX 32 64 0 -6
BITMAP
00000000
00000000
00000000
00000000
00000000
00000000
00000000
00000000
00000000
00000000
00000000
00000000
00000000
00000000
00000000
00000000
00000000
00000000
00000000
00000000
00000000
00000000
00000000
00000000
00000000
00000000
00000000
00000000
00000000
00000000
00000000
00000000
00000000
00000000
00000000
00000000
00000000
00000000
00000000
00000000
00000000
00000000
00000000
00000000
00000000
00000000
00000000
00000000
00000000
00000000
00000000
00000000
00000000
00000000
00000000
00000000
00000000
00000000
00000000
00000000
00000000
00000000
00000000
00000000
ENDCHAR
ENDFONT
